<svg xmlns="http://www.w3.org/2000/svg" version="1.1" xmlns:xlink="http://www.w3.org/1999/xlink" xmlns:svgjs="http://svgjs.dev/svgjs" width="574" height="1080" preserveAspectRatio="none" viewBox="0 0 574 1080">
    <g mask="url(&quot;#SvgjsMask1072&quot;)" fill="none">
        <path d="M-100.67 905.18L-100.67 905.18" stroke="#132e65" stroke-width="1.5"></path>
        <path d="M-100.67 905.18L62.61 891.19" stroke="#132e65" stroke-width="1.5"></path>
        <path d="M-100.67 905.18L57.07 1011.88" stroke="#132e65" stroke-width="1.5"></path>
        <path d="M-100.67 905.18L48.54 757.65" stroke="#132e65" stroke-width="1.5"></path>
        <path d="M-100.67 905.18L-95.74 1136.57" stroke="#132e65" stroke-width="1.5"></path>
        <path d="M-95.74 1136.57L-95.74 1136.57" stroke="#132e65" stroke-width="1.5"></path>
        <path d="M-95.74 1136.57L48.16 1123.44" stroke="#132e65" stroke-width="1.5"></path>
        <path d="M-95.74 1136.57L57.07 1011.88" stroke="#132e65" stroke-width="1.5"></path>
        <path d="M-95.74 1136.57L62.61 891.19" stroke="#132e65" stroke-width="1.5"></path>
        <path d="M-95.74 1136.57L172.23 1012.72" stroke="#132e65" stroke-width="1.5"></path>
        <path d="M48.54 757.65L48.54 757.65" stroke="#132e65" stroke-width="1.5"></path>
        <path d="M48.54 757.65L62.61 891.19" stroke="#132e65" stroke-width="1.5"></path>
        <path d="M48.54 757.65L184.1 735.28" stroke="#132e65" stroke-width="1.5"></path>
        <path d="M62.61 891.19L62.61 891.19" stroke="#132e65" stroke-width="1.5"></path>
        <path d="M62.61 891.19L57.07 1011.88" stroke="#132e65" stroke-width="1.5"></path>
        <path d="M57.07 1011.88L57.07 1011.88" stroke="#132e65" stroke-width="1.5"></path>
        <path d="M57.07 1011.88L48.16 1123.44" stroke="#132e65" stroke-width="1.5"></path>
        <path d="M57.07 1011.88L172.23 1012.72" stroke="#132e65" stroke-width="1.5"></path>
        <path d="M48.16 1123.44L48.16 1123.44" stroke="#132e65" stroke-width="1.5"></path>
        <path d="M48.16 1123.44L210.69 1157.58" stroke="#132e65" stroke-width="1.5"></path>
        <path d="M48.16 1123.44L172.23 1012.72" stroke="#132e65" stroke-width="1.5"></path>
        <path d="M209.39 631.1L209.39 631.1" stroke="#132e65" stroke-width="1.5"></path>
        <path d="M209.39 631.1L184.1 735.28" stroke="#132e65" stroke-width="1.5"></path>
        <path d="M209.39 631.1L330.42 630.79" stroke="#132e65" stroke-width="1.5"></path>
        <path d="M184.1 735.28L184.1 735.28" stroke="#132e65" stroke-width="1.5"></path>
        <path d="M184.1 735.28L191.03 845.87" stroke="#132e65" stroke-width="1.5"></path>
        <path d="M184.1 735.28L330.42 630.79" stroke="#132e65" stroke-width="1.5"></path>
        <path d="M184.1 735.28L365.83 716.23" stroke="#132e65" stroke-width="1.5"></path>
        <path d="M184.1 735.28L62.61 891.19" stroke="#132e65" stroke-width="1.5"></path>
        <path d="M191.03 845.87L191.03 845.87" stroke="#132e65" stroke-width="1.5"></path>
        <path d="M191.03 845.87L62.61 891.19" stroke="#132e65" stroke-width="1.5"></path>
        <path d="M191.03 845.87L334.21 886.52" stroke="#132e65" stroke-width="1.5"></path>
        <path d="M172.23 1012.72L172.23 1012.72" stroke="#132e65" stroke-width="1.5"></path>
        <path d="M172.23 1012.72L210.69 1157.58" stroke="#132e65" stroke-width="1.5"></path>
        <path d="M172.23 1012.72L325.86 1043.38" stroke="#132e65" stroke-width="1.5"></path>
        <path d="M172.23 1012.72L62.61 891.19" stroke="#132e65" stroke-width="1.5"></path>
        <path d="M210.69 1157.58L210.69 1157.58" stroke="#132e65" stroke-width="1.5"></path>
        <path d="M210.69 1157.58L325.99 1128.63" stroke="#132e65" stroke-width="1.5"></path>
        <path d="M356.52 -34.84L356.52 -34.84" stroke="#132e65" stroke-width="1.5"></path>
        <path d="M356.52 -34.84L462.32 -46.57" stroke="#132e65" stroke-width="1.5"></path>
        <path d="M356.52 -34.84L360.89 80.75" stroke="#132e65" stroke-width="1.5"></path>
        <path d="M356.52 -34.84L358.85 192.8" stroke="#132e65" stroke-width="1.5"></path>
        <path d="M360.89 80.75L360.89 80.75" stroke="#132e65" stroke-width="1.5"></path>
        <path d="M360.89 80.75L358.85 192.8" stroke="#132e65" stroke-width="1.5"></path>
        <path d="M360.89 80.75L462.32 -46.57" stroke="#132e65" stroke-width="1.5"></path>
        <path d="M360.89 80.75L499.16 229.18" stroke="#132e65" stroke-width="1.5"></path>
        <path d="M360.89 80.75L600.98 79.71" stroke="#132e65" stroke-width="1.5"></path>
        <path d="M358.85 192.8L358.85 192.8" stroke="#132e65" stroke-width="1.5"></path>
        <path d="M358.85 192.8L499.16 229.18" stroke="#132e65" stroke-width="1.5"></path>
        <path d="M358.85 192.8L307.65 353.24" stroke="#132e65" stroke-width="1.5"></path>
        <path d="M358.85 192.8L478.76 354.72" stroke="#132e65" stroke-width="1.5"></path>
        <path d="M307.65 353.24L307.65 353.24" stroke="#132e65" stroke-width="1.5"></path>
        <path d="M307.65 353.24L327.92 440.53" stroke="#132e65" stroke-width="1.5"></path>
        <path d="M307.65 353.24L478.76 354.72" stroke="#132e65" stroke-width="1.5"></path>
        <path d="M307.65 353.24L475.26 449.83" stroke="#132e65" stroke-width="1.5"></path>
        <path d="M327.92 440.53L327.92 440.53" stroke="#132e65" stroke-width="1.5"></path>
        <path d="M327.92 440.53L475.26 449.83" stroke="#132e65" stroke-width="1.5"></path>
        <path d="M330.42 630.79L330.42 630.79" stroke="#132e65" stroke-width="1.5"></path>
        <path d="M330.42 630.79L365.83 716.23" stroke="#132e65" stroke-width="1.5"></path>
        <path d="M365.83 716.23L365.83 716.23" stroke="#132e65" stroke-width="1.5"></path>
        <path d="M365.83 716.23L482.3 714.32" stroke="#132e65" stroke-width="1.5"></path>
        <path d="M365.83 716.23L489.68 602.26" stroke="#132e65" stroke-width="1.5"></path>
        <path d="M365.83 716.23L334.21 886.52" stroke="#132e65" stroke-width="1.5"></path>
        <path d="M365.83 716.23L209.39 631.1" stroke="#132e65" stroke-width="1.5"></path>
        <path d="M334.21 886.52L334.21 886.52" stroke="#132e65" stroke-width="1.5"></path>
        <path d="M334.21 886.52L485.88 854.87" stroke="#132e65" stroke-width="1.5"></path>
        <path d="M334.21 886.52L325.86 1043.38" stroke="#132e65" stroke-width="1.5"></path>
        <path d="M334.21 886.52L500.06 981.37" stroke="#132e65" stroke-width="1.5"></path>
        <path d="M325.86 1043.38L325.86 1043.38" stroke="#132e65" stroke-width="1.5"></path>
        <path d="M325.86 1043.38L325.99 1128.63" stroke="#132e65" stroke-width="1.5"></path>
        <path d="M325.86 1043.38L210.69 1157.58" stroke="#132e65" stroke-width="1.5"></path>
        <path d="M325.86 1043.38L500.06 981.37" stroke="#132e65" stroke-width="1.5"></path>
        <path d="M325.99 1128.63L325.99 1128.63" stroke="#132e65" stroke-width="1.5"></path>
        <path d="M325.99 1128.63L492.53 1127.66" stroke="#132e65" stroke-width="1.5"></path>
        <path d="M462.32 -46.57L462.32 -46.57" stroke="#132e65" stroke-width="1.5"></path>
        <path d="M462.32 -46.57L579.17 -83.2" stroke="#132e65" stroke-width="1.5"></path>
        <path d="M499.16 229.18L499.16 229.18" stroke="#132e65" stroke-width="1.5"></path>
        <path d="M499.16 229.18L603.75 209.75" stroke="#132e65" stroke-width="1.5"></path>
        <path d="M499.16 229.18L478.76 354.72" stroke="#132e65" stroke-width="1.5"></path>
        <path d="M478.76 354.72L478.76 354.72" stroke="#132e65" stroke-width="1.5"></path>
        <path d="M478.76 354.72L475.26 449.83" stroke="#132e65" stroke-width="1.5"></path>
        <path d="M478.76 354.72L634.44 324.41" stroke="#132e65" stroke-width="1.5"></path>
        <path d="M475.26 449.83L475.26 449.83" stroke="#132e65" stroke-width="1.5"></path>
        <path d="M489.68 602.26L489.68 602.26" stroke="#132e65" stroke-width="1.5"></path>
        <path d="M489.68 602.26L482.3 714.32" stroke="#132e65" stroke-width="1.5"></path>
        <path d="M489.68 602.26L636.85 600.38" stroke="#132e65" stroke-width="1.5"></path>
        <path d="M489.68 602.26L475.26 449.83" stroke="#132e65" stroke-width="1.5"></path>
        <path d="M489.68 602.26L330.42 630.79" stroke="#132e65" stroke-width="1.5"></path>
        <path d="M482.3 714.32L482.3 714.32" stroke="#132e65" stroke-width="1.5"></path>
        <path d="M482.3 714.32L609.01 738.54" stroke="#132e65" stroke-width="1.5"></path>
        <path d="M485.88 854.87L485.88 854.87" stroke="#132e65" stroke-width="1.5"></path>
        <path d="M485.88 854.87L587.2 876.69" stroke="#132e65" stroke-width="1.5"></path>
        <path d="M485.88 854.87L500.06 981.37" stroke="#132e65" stroke-width="1.5"></path>
        <path d="M485.88 854.87L482.3 714.32" stroke="#132e65" stroke-width="1.5"></path>
        <path d="M500.06 981.37L500.06 981.37" stroke="#132e65" stroke-width="1.5"></path>
        <path d="M500.06 981.37L617.97 1001.85" stroke="#132e65" stroke-width="1.5"></path>
        <path d="M492.53 1127.66L492.53 1127.66" stroke="#132e65" stroke-width="1.5"></path>
        <path d="M492.53 1127.66L626.16 1167.64" stroke="#132e65" stroke-width="1.5"></path>
        <path d="M492.53 1127.66L500.06 981.37" stroke="#132e65" stroke-width="1.5"></path>
        <path d="M579.17 -83.2L579.17 -83.2" stroke="#132e65" stroke-width="1.5"></path>
        <path d="M579.17 -83.2L722.49 -52.55" stroke="#132e65" stroke-width="1.5"></path>
        <path d="M579.17 -83.2L600.98 79.71" stroke="#132e65" stroke-width="1.5"></path>
        <path d="M600.98 79.71L600.98 79.71" stroke="#132e65" stroke-width="1.5"></path>
        <path d="M600.98 79.71L714.92 98.16" stroke="#132e65" stroke-width="1.5"></path>
        <path d="M600.98 79.71L603.75 209.75" stroke="#132e65" stroke-width="1.5"></path>
        <path d="M600.98 79.71L712.54 200.63" stroke="#132e65" stroke-width="1.5"></path>
        <path d="M603.75 209.75L603.75 209.75" stroke="#132e65" stroke-width="1.5"></path>
        <path d="M603.75 209.75L712.54 200.63" stroke="#132e65" stroke-width="1.5"></path>
        <path d="M603.75 209.75L634.44 324.41" stroke="#132e65" stroke-width="1.5"></path>
        <path d="M634.44 324.41L634.44 324.41" stroke="#132e65" stroke-width="1.5"></path>
        <path d="M634.44 324.41L716.66 305.55" stroke="#132e65" stroke-width="1.5"></path>
        <path d="M631.31 445.64L631.31 445.64" stroke="#132e65" stroke-width="1.5"></path>
        <path d="M631.31 445.64L634.44 324.41" stroke="#132e65" stroke-width="1.5"></path>
        <path d="M631.31 445.64L773.3 448.28" stroke="#132e65" stroke-width="1.5"></path>
        <path d="M631.31 445.64L636.85 600.38" stroke="#132e65" stroke-width="1.5"></path>
        <path d="M631.31 445.64L475.26 449.83" stroke="#132e65" stroke-width="1.5"></path>
        <path d="M636.85 600.38L636.85 600.38" stroke="#132e65" stroke-width="1.5"></path>
        <path d="M636.85 600.38L772.6 602.83" stroke="#132e65" stroke-width="1.5"></path>
        <path d="M636.85 600.38L609.01 738.54" stroke="#132e65" stroke-width="1.5"></path>
        <path d="M609.01 738.54L609.01 738.54" stroke="#132e65" stroke-width="1.5"></path>
        <path d="M587.2 876.69L587.2 876.69" stroke="#132e65" stroke-width="1.5"></path>
        <path d="M587.2 876.69L711.25 891.69" stroke="#132e65" stroke-width="1.5"></path>
        <path d="M587.2 876.69L617.97 1001.85" stroke="#132e65" stroke-width="1.5"></path>
        <path d="M587.2 876.69L500.06 981.37" stroke="#132e65" stroke-width="1.5"></path>
        <path d="M587.2 876.69L609.01 738.54" stroke="#132e65" stroke-width="1.5"></path>
        <path d="M587.2 876.69L482.3 714.32" stroke="#132e65" stroke-width="1.5"></path>
        <path d="M617.97 1001.85L617.97 1001.85" stroke="#132e65" stroke-width="1.5"></path>
        <path d="M617.97 1001.85L745.92 1036.52" stroke="#132e65" stroke-width="1.5"></path>
        <path d="M617.97 1001.85L711.25 891.69" stroke="#132e65" stroke-width="1.5"></path>
        <path d="M626.16 1167.64L626.16 1167.64" stroke="#132e65" stroke-width="1.5"></path>
        <path d="M626.16 1167.64L716.78 1118.99" stroke="#132e65" stroke-width="1.5"></path>
        <path d="M722.49 -52.55L722.49 -52.55" stroke="#132e65" stroke-width="1.5"></path>
        <path d="M722.49 -52.55L714.92 98.16" stroke="#132e65" stroke-width="1.5"></path>
        <path d="M722.49 -52.55L600.98 79.71" stroke="#132e65" stroke-width="1.5"></path>
        <path d="M722.49 -52.55L712.54 200.63" stroke="#132e65" stroke-width="1.5"></path>
        <path d="M722.49 -52.55L462.32 -46.57" stroke="#132e65" stroke-width="1.5"></path>
        <path d="M714.92 98.16L714.92 98.16" stroke="#132e65" stroke-width="1.5"></path>
        <path d="M714.92 98.16L712.54 200.63" stroke="#132e65" stroke-width="1.5"></path>
        <path d="M714.92 98.16L603.75 209.75" stroke="#132e65" stroke-width="1.5"></path>
        <path d="M714.92 98.16L716.66 305.55" stroke="#132e65" stroke-width="1.5"></path>
        <path d="M712.54 200.63L712.54 200.63" stroke="#132e65" stroke-width="1.5"></path>
        <path d="M712.54 200.63L716.66 305.55" stroke="#132e65" stroke-width="1.5"></path>
        <path d="M712.54 200.63L634.44 324.41" stroke="#132e65" stroke-width="1.5"></path>
        <path d="M716.66 305.55L716.66 305.55" stroke="#132e65" stroke-width="1.5"></path>
        <path d="M716.66 305.55L603.75 209.75" stroke="#132e65" stroke-width="1.5"></path>
        <path d="M716.66 305.55L773.3 448.28" stroke="#132e65" stroke-width="1.5"></path>
        <path d="M716.66 305.55L631.31 445.64" stroke="#132e65" stroke-width="1.5"></path>
        <path d="M773.3 448.28L773.3 448.28" stroke="#132e65" stroke-width="1.5"></path>
        <path d="M773.3 448.28L772.6 602.83" stroke="#132e65" stroke-width="1.5"></path>
        <path d="M772.6 602.83L772.6 602.83" stroke="#132e65" stroke-width="1.5"></path>
        <path d="M772.6 602.83L751.04 759.5" stroke="#132e65" stroke-width="1.5"></path>
        <path d="M772.6 602.83L631.31 445.64" stroke="#132e65" stroke-width="1.5"></path>
        <path d="M772.6 602.83L609.01 738.54" stroke="#132e65" stroke-width="1.5"></path>
        <path d="M751.04 759.5L751.04 759.5" stroke="#132e65" stroke-width="1.5"></path>
        <path d="M751.04 759.5L711.25 891.69" stroke="#132e65" stroke-width="1.5"></path>
        <path d="M751.04 759.5L609.01 738.54" stroke="#132e65" stroke-width="1.5"></path>
        <path d="M711.25 891.69L711.25 891.69" stroke="#132e65" stroke-width="1.5"></path>
        <path d="M711.25 891.69L745.92 1036.52" stroke="#132e65" stroke-width="1.5"></path>
        <path d="M745.92 1036.52L745.92 1036.52" stroke="#132e65" stroke-width="1.5"></path>
        <path d="M745.92 1036.52L716.78 1118.99" stroke="#132e65" stroke-width="1.5"></path>
        <path d="M716.78 1118.99L716.78 1118.99" stroke="#132e65" stroke-width="1.5"></path>
        <path d="M716.78 1118.99L617.97 1001.85" stroke="#132e65" stroke-width="1.5"></path>
        <circle r="5" cx="-100.67" cy="905.18" fill="#132e65"></circle>
        <circle r="5" cx="-95.74" cy="1136.57" fill="#132e65"></circle>
        <circle r="5" cx="48.54" cy="757.65" fill="#132e65"></circle>
        <circle r="5" cx="62.61" cy="891.19" fill="#132e65"></circle>
        <circle r="5" cx="57.07" cy="1011.88" fill="#132e65"></circle>
        <circle r="5" cx="48.16" cy="1123.44" fill="#132e65"></circle>
        <circle r="5" cx="209.39" cy="631.1" fill="#132e65"></circle>
        <circle r="5" cx="184.1" cy="735.28" fill="#132e65"></circle>
        <circle r="5" cx="191.03" cy="845.87" fill="#132e65"></circle>
        <circle r="5" cx="172.23" cy="1012.72" fill="#132e65"></circle>
        <circle r="5" cx="210.69" cy="1157.58" fill="#132e65"></circle>
        <circle r="5" cx="356.52" cy="-34.84" fill="#132e65"></circle>
        <circle r="5" cx="360.89" cy="80.75" fill="#132e65"></circle>
        <circle r="5" cx="358.85" cy="192.8" fill="#132e65"></circle>
        <circle r="5" cx="307.65" cy="353.24" fill="#132e65"></circle>
        <circle r="5" cx="327.92" cy="440.53" fill="#132e65"></circle>
        <circle r="5" cx="330.42" cy="630.79" fill="#132e65"></circle>
        <circle r="5" cx="365.83" cy="716.23" fill="#132e65"></circle>
        <circle r="5" cx="334.21" cy="886.52" fill="#132e65"></circle>
        <circle r="5" cx="325.86" cy="1043.38" fill="#132e65"></circle>
        <circle r="5" cx="325.99" cy="1128.63" fill="#132e65"></circle>
        <circle r="5" cx="462.32" cy="-46.57" fill="#132e65"></circle>
        <circle r="5" cx="499.16" cy="229.18" fill="#132e65"></circle>
        <circle r="5" cx="478.76" cy="354.72" fill="#132e65"></circle>
        <circle r="5" cx="475.26" cy="449.83" fill="#132e65"></circle>
        <circle r="5" cx="489.68" cy="602.26" fill="#132e65"></circle>
        <circle r="5" cx="482.3" cy="714.32" fill="#132e65"></circle>
        <circle r="5" cx="485.88" cy="854.87" fill="#132e65"></circle>
        <circle r="5" cx="500.06" cy="981.37" fill="#132e65"></circle>
        <circle r="5" cx="492.53" cy="1127.66" fill="#132e65"></circle>
        <circle r="5" cx="579.17" cy="-83.2" fill="#132e65"></circle>
        <circle r="5" cx="600.98" cy="79.71" fill="#132e65"></circle>
        <circle r="5" cx="603.75" cy="209.75" fill="#132e65"></circle>
        <circle r="5" cx="634.44" cy="324.41" fill="#132e65"></circle>
        <circle r="5" cx="631.31" cy="445.64" fill="#132e65"></circle>
        <circle r="5" cx="636.85" cy="600.38" fill="#132e65"></circle>
        <circle r="5" cx="609.01" cy="738.54" fill="#132e65"></circle>
        <circle r="5" cx="587.2" cy="876.69" fill="#132e65"></circle>
        <circle r="5" cx="617.97" cy="1001.85" fill="#132e65"></circle>
        <circle r="5" cx="626.16" cy="1167.64" fill="#132e65"></circle>
        <circle r="5" cx="722.49" cy="-52.55" fill="#132e65"></circle>
        <circle r="5" cx="714.92" cy="98.16" fill="#132e65"></circle>
        <circle r="5" cx="712.54" cy="200.63" fill="#132e65"></circle>
        <circle r="5" cx="716.66" cy="305.55" fill="#132e65"></circle>
        <circle r="5" cx="773.3" cy="448.28" fill="#132e65"></circle>
        <circle r="5" cx="772.6" cy="602.83" fill="#132e65"></circle>
        <circle r="5" cx="751.04" cy="759.5" fill="#132e65"></circle>
        <circle r="5" cx="711.25" cy="891.69" fill="#132e65"></circle>
        <circle r="5" cx="745.92" cy="1036.52" fill="#132e65"></circle>
        <circle r="5" cx="716.78" cy="1118.99" fill="#132e65"></circle>
        <path d="M-80.06 1013.33L-80.06 1013.33" stroke="hsl(228.5, 77.2%, 51.5%)" stroke-width="1.5"></path>
        <path d="M-80.06 1013.33L-46.96 1135.87" stroke="hsl(228.5, 77.2%, 51.5%)" stroke-width="1.5"></path>
        <path d="M-80.06 1013.33L65.24 1035.5" stroke="hsl(228.5, 77.2%, 51.5%)" stroke-width="1.5"></path>
        <path d="M-80.06 1013.33L50.89 1170.74" stroke="hsl(228.5, 77.2%, 51.5%)" stroke-width="1.5"></path>
        <path d="M215.45 1012.14L215.45 1012.14" stroke="hsl(228.5, 77.2%, 51.5%)" stroke-width="1.5"></path>
        <path d="M215.45 1012.14L195.87 1141.43" stroke="hsl(228.5, 77.2%, 51.5%)" stroke-width="1.5"></path>
        <path d="M215.45 1012.14L346.58 1027.03" stroke="hsl(228.5, 77.2%, 51.5%)" stroke-width="1.5"></path>
        <path d="M215.45 1012.14L202.34 875.31" stroke="hsl(228.5, 77.2%, 51.5%)" stroke-width="1.5"></path>
        <path d="M215.45 1012.14L65.24 1035.5" stroke="hsl(228.5, 77.2%, 51.5%)" stroke-width="1.5"></path>
        <path d="M215.45 1012.14L336.63 910.74" stroke="hsl(228.5, 77.2%, 51.5%)" stroke-width="1.5"></path>
        <path d="M346.58 1027.03L346.58 1027.03" stroke="hsl(228.5, 77.2%, 51.5%)" stroke-width="1.5"></path>
        <path d="M346.58 1027.03L342.93 1122.86" stroke="hsl(228.5, 77.2%, 51.5%)" stroke-width="1.5"></path>
        <path d="M346.58 1027.03L336.63 910.74" stroke="hsl(228.5, 77.2%, 51.5%)" stroke-width="1.5"></path>
        <path d="M346.58 1027.03L467.16 1002.18" stroke="hsl(228.5, 77.2%, 51.5%)" stroke-width="1.5"></path>
        <path d="M346.58 1027.03L481.3 1118.59" stroke="hsl(228.5, 77.2%, 51.5%)" stroke-width="1.5"></path>
        <path d="M346.58 1027.03L195.87 1141.43" stroke="hsl(228.5, 77.2%, 51.5%)" stroke-width="1.5"></path>
        <path d="M480.79 486.69L480.79 486.69" stroke="hsl(228.5, 77.2%, 51.5%)" stroke-width="1.5"></path>
        <path d="M480.79 486.69L460.73 350.36" stroke="hsl(228.5, 77.2%, 51.5%)" stroke-width="1.5"></path>
        <path d="M480.79 486.69L453.37 626.68" stroke="hsl(228.5, 77.2%, 51.5%)" stroke-width="1.5"></path>
        <path d="M480.79 486.69L586.34 343.42" stroke="hsl(228.5, 77.2%, 51.5%)" stroke-width="1.5"></path>
        <path d="M480.79 486.69L619.71 630.74" stroke="hsl(228.5, 77.2%, 51.5%)" stroke-width="1.5"></path>
        <path d="M480.79 486.69L471.7 720.55" stroke="hsl(228.5, 77.2%, 51.5%)" stroke-width="1.5"></path>
        <path d="M618.42 -95L618.42 -95" stroke="hsl(228.5, 77.2%, 51.5%)" stroke-width="1.5"></path>
        <path d="M618.42 -95L756.44 -48.66" stroke="hsl(228.5, 77.2%, 51.5%)" stroke-width="1.5"></path>
        <path d="M618.42 -95L578.74 84.47" stroke="hsl(228.5, 77.2%, 51.5%)" stroke-width="1.5"></path>
        <path d="M618.42 -95L764.51 76.04" stroke="hsl(228.5, 77.2%, 51.5%)" stroke-width="1.5"></path>
        <path d="M618.42 -95L640.78 211.32" stroke="hsl(228.5, 77.2%, 51.5%)" stroke-width="1.5"></path>
        <path d="M618.42 -95L766.66 174.97" stroke="hsl(228.5, 77.2%, 51.5%)" stroke-width="1.5"></path>
        <path d="M578.74 84.47L578.74 84.47" stroke="hsl(228.5, 77.2%, 51.5%)" stroke-width="1.5"></path>
        <path d="M578.74 84.47L640.78 211.32" stroke="hsl(228.5, 77.2%, 51.5%)" stroke-width="1.5"></path>
        <path d="M578.74 84.47L483.67 197.36" stroke="hsl(228.5, 77.2%, 51.5%)" stroke-width="1.5"></path>
        <path d="M578.74 84.47L764.51 76.04" stroke="hsl(228.5, 77.2%, 51.5%)" stroke-width="1.5"></path>
        <path d="M766.66 174.97L766.66 174.97" stroke="hsl(228.5, 77.2%, 51.5%)" stroke-width="1.5"></path>
        <path d="M766.66 174.97L764.51 76.04" stroke="hsl(228.5, 77.2%, 51.5%)" stroke-width="1.5"></path>
        <path d="M766.66 174.97L640.78 211.32" stroke="hsl(228.5, 77.2%, 51.5%)" stroke-width="1.5"></path>
        <path d="M743.4 449.77L743.4 449.77" stroke="hsl(228.5, 77.2%, 51.5%)" stroke-width="1.5"></path>
        <path d="M743.4 449.77L750.28 330.77" stroke="hsl(228.5, 77.2%, 51.5%)" stroke-width="1.5"></path>
        <path d="M743.4 449.77L761.34 622.13" stroke="hsl(228.5, 77.2%, 51.5%)" stroke-width="1.5"></path>
        <path d="M743.4 449.77L586.34 343.42" stroke="hsl(228.5, 77.2%, 51.5%)" stroke-width="1.5"></path>
        <path d="M-46.96 1135.87L-46.96 1135.87" stroke="hsl(228.5, 77.2%, 51.5%)" stroke-width="1.5"></path>
        <path d="M-46.96 1135.87L50.89 1170.74" stroke="hsl(228.5, 77.2%, 51.5%)" stroke-width="1.5"></path>
        <path d="M-46.96 1135.87L65.24 1035.5" stroke="hsl(228.5, 77.2%, 51.5%)" stroke-width="1.5"></path>
        <path d="M-46.96 1135.87L195.87 1141.43" stroke="hsl(228.5, 77.2%, 51.5%)" stroke-width="1.5"></path>
        <path d="M-46.96 1135.87L215.45 1012.14" stroke="hsl(228.5, 77.2%, 51.5%)" stroke-width="1.5"></path>
        <path d="M94.19 876.71L94.19 876.71" stroke="hsl(228.5, 77.2%, 51.5%)" stroke-width="1.5"></path>
        <path d="M94.19 876.71L202.34 875.31" stroke="hsl(228.5, 77.2%, 51.5%)" stroke-width="1.5"></path>
        <path d="M94.19 876.71L65.24 1035.5" stroke="hsl(228.5, 77.2%, 51.5%)" stroke-width="1.5"></path>
        <path d="M94.19 876.71L215.45 1012.14" stroke="hsl(228.5, 77.2%, 51.5%)" stroke-width="1.5"></path>
        <path d="M94.19 876.71L-80.06 1013.33" stroke="hsl(228.5, 77.2%, 51.5%)" stroke-width="1.5"></path>
        <path d="M65.24 1035.5L65.24 1035.5" stroke="hsl(228.5, 77.2%, 51.5%)" stroke-width="1.5"></path>
        <path d="M65.24 1035.5L50.89 1170.74" stroke="hsl(228.5, 77.2%, 51.5%)" stroke-width="1.5"></path>
        <path d="M50.89 1170.74L50.89 1170.74" stroke="hsl(228.5, 77.2%, 51.5%)" stroke-width="1.5"></path>
        <path d="M50.89 1170.74L195.87 1141.43" stroke="hsl(228.5, 77.2%, 51.5%)" stroke-width="1.5"></path>
        <path d="M50.89 1170.74L215.45 1012.14" stroke="hsl(228.5, 77.2%, 51.5%)" stroke-width="1.5"></path>
        <path d="M50.89 1170.74L342.93 1122.86" stroke="hsl(228.5, 77.2%, 51.5%)" stroke-width="1.5"></path>
        <path d="M202.34 875.31L202.34 875.31" stroke="hsl(228.5, 77.2%, 51.5%)" stroke-width="1.5"></path>
        <path d="M202.34 875.31L336.63 910.74" stroke="hsl(228.5, 77.2%, 51.5%)" stroke-width="1.5"></path>
        <path d="M202.34 875.31L311.97 752.03" stroke="hsl(228.5, 77.2%, 51.5%)" stroke-width="1.5"></path>
        <path d="M202.34 875.31L346.58 1027.03" stroke="hsl(228.5, 77.2%, 51.5%)" stroke-width="1.5"></path>
        <path d="M195.87 1141.43L195.87 1141.43" stroke="hsl(228.5, 77.2%, 51.5%)" stroke-width="1.5"></path>
        <path d="M195.87 1141.43L342.93 1122.86" stroke="hsl(228.5, 77.2%, 51.5%)" stroke-width="1.5"></path>
        <path d="M195.87 1141.43L65.24 1035.5" stroke="hsl(228.5, 77.2%, 51.5%)" stroke-width="1.5"></path>
        <path d="M311.97 752.03L311.97 752.03" stroke="hsl(228.5, 77.2%, 51.5%)" stroke-width="1.5"></path>
        <path d="M311.97 752.03L336.63 910.74" stroke="hsl(228.5, 77.2%, 51.5%)" stroke-width="1.5"></path>
        <path d="M311.97 752.03L471.7 720.55" stroke="hsl(228.5, 77.2%, 51.5%)" stroke-width="1.5"></path>
        <path d="M311.97 752.03L453.37 626.68" stroke="hsl(228.5, 77.2%, 51.5%)" stroke-width="1.5"></path>
        <path d="M311.97 752.03L498.34 891.46" stroke="hsl(228.5, 77.2%, 51.5%)" stroke-width="1.5"></path>
        <path d="M336.63 910.74L336.63 910.74" stroke="hsl(228.5, 77.2%, 51.5%)" stroke-width="1.5"></path>
        <path d="M336.63 910.74L467.16 1002.18" stroke="hsl(228.5, 77.2%, 51.5%)" stroke-width="1.5"></path>
        <path d="M336.63 910.74L498.34 891.46" stroke="hsl(228.5, 77.2%, 51.5%)" stroke-width="1.5"></path>
        <path d="M342.93 1122.86L342.93 1122.86" stroke="hsl(228.5, 77.2%, 51.5%)" stroke-width="1.5"></path>
        <path d="M342.93 1122.86L481.3 1118.59" stroke="hsl(228.5, 77.2%, 51.5%)" stroke-width="1.5"></path>
        <path d="M483.67 197.36L483.67 197.36" stroke="hsl(228.5, 77.2%, 51.5%)" stroke-width="1.5"></path>
        <path d="M483.67 197.36L460.73 350.36" stroke="hsl(228.5, 77.2%, 51.5%)" stroke-width="1.5"></path>
        <path d="M483.67 197.36L640.78 211.32" stroke="hsl(228.5, 77.2%, 51.5%)" stroke-width="1.5"></path>
        <path d="M483.67 197.36L586.34 343.42" stroke="hsl(228.5, 77.2%, 51.5%)" stroke-width="1.5"></path>
        <path d="M483.67 197.36L766.66 174.97" stroke="hsl(228.5, 77.2%, 51.5%)" stroke-width="1.5"></path>
        <path d="M483.67 197.36L480.79 486.69" stroke="hsl(228.5, 77.2%, 51.5%)" stroke-width="1.5"></path>
        <path d="M460.73 350.36L460.73 350.36" stroke="hsl(228.5, 77.2%, 51.5%)" stroke-width="1.5"></path>
        <path d="M460.73 350.36L586.34 343.42" stroke="hsl(228.5, 77.2%, 51.5%)" stroke-width="1.5"></path>
        <path d="M453.37 626.68L453.37 626.68" stroke="hsl(228.5, 77.2%, 51.5%)" stroke-width="1.5"></path>
        <path d="M453.37 626.68L471.7 720.55" stroke="hsl(228.5, 77.2%, 51.5%)" stroke-width="1.5"></path>
        <path d="M453.37 626.68L619.71 630.74" stroke="hsl(228.5, 77.2%, 51.5%)" stroke-width="1.5"></path>
        <path d="M471.7 720.55L471.7 720.55" stroke="hsl(228.5, 77.2%, 51.5%)" stroke-width="1.5"></path>
        <path d="M471.7 720.55L626.05 749" stroke="hsl(228.5, 77.2%, 51.5%)" stroke-width="1.5"></path>
        <path d="M471.7 720.55L498.34 891.46" stroke="hsl(228.5, 77.2%, 51.5%)" stroke-width="1.5"></path>
        <path d="M471.7 720.55L619.71 630.74" stroke="hsl(228.5, 77.2%, 51.5%)" stroke-width="1.5"></path>
        <path d="M498.34 891.46L498.34 891.46" stroke="hsl(228.5, 77.2%, 51.5%)" stroke-width="1.5"></path>
        <path d="M498.34 891.46L467.16 1002.18" stroke="hsl(228.5, 77.2%, 51.5%)" stroke-width="1.5"></path>
        <path d="M498.34 891.46L636.7 884.73" stroke="hsl(228.5, 77.2%, 51.5%)" stroke-width="1.5"></path>
        <path d="M498.34 891.46L604.13 996.85" stroke="hsl(228.5, 77.2%, 51.5%)" stroke-width="1.5"></path>
        <path d="M467.16 1002.18L467.16 1002.18" stroke="hsl(228.5, 77.2%, 51.5%)" stroke-width="1.5"></path>
        <path d="M467.16 1002.18L481.3 1118.59" stroke="hsl(228.5, 77.2%, 51.5%)" stroke-width="1.5"></path>
        <path d="M467.16 1002.18L604.13 996.85" stroke="hsl(228.5, 77.2%, 51.5%)" stroke-width="1.5"></path>
        <path d="M467.16 1002.18L342.93 1122.86" stroke="hsl(228.5, 77.2%, 51.5%)" stroke-width="1.5"></path>
        <path d="M481.3 1118.59L481.3 1118.59" stroke="hsl(228.5, 77.2%, 51.5%)" stroke-width="1.5"></path>
        <path d="M481.3 1118.59L628.37 1167.08" stroke="hsl(228.5, 77.2%, 51.5%)" stroke-width="1.5"></path>
        <path d="M481.3 1118.59L604.13 996.85" stroke="hsl(228.5, 77.2%, 51.5%)" stroke-width="1.5"></path>
        <path d="M481.3 1118.59L498.34 891.46" stroke="hsl(228.5, 77.2%, 51.5%)" stroke-width="1.5"></path>
        <path d="M640.78 211.32L640.78 211.32" stroke="hsl(228.5, 77.2%, 51.5%)" stroke-width="1.5"></path>
        <path d="M586.34 343.42L586.34 343.42" stroke="hsl(228.5, 77.2%, 51.5%)" stroke-width="1.5"></path>
        <path d="M586.34 343.42L640.78 211.32" stroke="hsl(228.5, 77.2%, 51.5%)" stroke-width="1.5"></path>
        <path d="M586.34 343.42L750.28 330.77" stroke="hsl(228.5, 77.2%, 51.5%)" stroke-width="1.5"></path>
        <path d="M619.71 630.74L619.71 630.74" stroke="hsl(228.5, 77.2%, 51.5%)" stroke-width="1.5"></path>
        <path d="M619.71 630.74L626.05 749" stroke="hsl(228.5, 77.2%, 51.5%)" stroke-width="1.5"></path>
        <path d="M619.71 630.74L761.34 622.13" stroke="hsl(228.5, 77.2%, 51.5%)" stroke-width="1.5"></path>
        <path d="M619.71 630.74L758.24 744.92" stroke="hsl(228.5, 77.2%, 51.5%)" stroke-width="1.5"></path>
        <path d="M626.05 749L626.05 749" stroke="hsl(228.5, 77.2%, 51.5%)" stroke-width="1.5"></path>
        <path d="M626.05 749L758.24 744.92" stroke="hsl(228.5, 77.2%, 51.5%)" stroke-width="1.5"></path>
        <path d="M626.05 749L636.7 884.73" stroke="hsl(228.5, 77.2%, 51.5%)" stroke-width="1.5"></path>
        <path d="M636.7 884.73L636.7 884.73" stroke="hsl(228.5, 77.2%, 51.5%)" stroke-width="1.5"></path>
        <path d="M636.7 884.73L721.79 906.52" stroke="hsl(228.5, 77.2%, 51.5%)" stroke-width="1.5"></path>
        <path d="M636.7 884.73L604.13 996.85" stroke="hsl(228.5, 77.2%, 51.5%)" stroke-width="1.5"></path>
        <path d="M604.13 996.85L604.13 996.85" stroke="hsl(228.5, 77.2%, 51.5%)" stroke-width="1.5"></path>
        <path d="M604.13 996.85L725.14 1026.63" stroke="hsl(228.5, 77.2%, 51.5%)" stroke-width="1.5"></path>
        <path d="M604.13 996.85L721.79 906.52" stroke="hsl(228.5, 77.2%, 51.5%)" stroke-width="1.5"></path>
        <path d="M628.37 1167.08L628.37 1167.08" stroke="hsl(228.5, 77.2%, 51.5%)" stroke-width="1.5"></path>
        <path d="M628.37 1167.08L722.78 1175.58" stroke="hsl(228.5, 77.2%, 51.5%)" stroke-width="1.5"></path>
        <path d="M628.37 1167.08L725.14 1026.63" stroke="hsl(228.5, 77.2%, 51.5%)" stroke-width="1.5"></path>
        <path d="M628.37 1167.08L604.13 996.85" stroke="hsl(228.5, 77.2%, 51.5%)" stroke-width="1.5"></path>
        <path d="M628.37 1167.08L467.16 1002.18" stroke="hsl(228.5, 77.2%, 51.5%)" stroke-width="1.5"></path>
        <path d="M756.44 -48.66L756.44 -48.66" stroke="hsl(228.5, 77.2%, 51.5%)" stroke-width="1.5"></path>
        <path d="M756.44 -48.66L764.51 76.04" stroke="hsl(228.5, 77.2%, 51.5%)" stroke-width="1.5"></path>
        <path d="M764.51 76.04L764.51 76.04" stroke="hsl(228.5, 77.2%, 51.5%)" stroke-width="1.5"></path>
        <path d="M764.51 76.04L640.78 211.32" stroke="hsl(228.5, 77.2%, 51.5%)" stroke-width="1.5"></path>
        <path d="M750.28 330.77L750.28 330.77" stroke="hsl(228.5, 77.2%, 51.5%)" stroke-width="1.5"></path>
        <path d="M750.28 330.77L766.66 174.97" stroke="hsl(228.5, 77.2%, 51.5%)" stroke-width="1.5"></path>
        <path d="M750.28 330.77L640.78 211.32" stroke="hsl(228.5, 77.2%, 51.5%)" stroke-width="1.5"></path>
        <path d="M761.34 622.13L761.34 622.13" stroke="hsl(228.5, 77.2%, 51.5%)" stroke-width="1.5"></path>
        <path d="M761.34 622.13L758.24 744.92" stroke="hsl(228.5, 77.2%, 51.5%)" stroke-width="1.5"></path>
        <path d="M758.24 744.92L758.24 744.92" stroke="hsl(228.5, 77.2%, 51.5%)" stroke-width="1.5"></path>
        <path d="M758.24 744.92L721.79 906.52" stroke="hsl(228.5, 77.2%, 51.5%)" stroke-width="1.5"></path>
        <path d="M758.24 744.92L636.7 884.73" stroke="hsl(228.5, 77.2%, 51.5%)" stroke-width="1.5"></path>
        <path d="M721.79 906.52L721.79 906.52" stroke="hsl(228.5, 77.2%, 51.5%)" stroke-width="1.5"></path>
        <path d="M721.79 906.52L725.14 1026.63" stroke="hsl(228.5, 77.2%, 51.5%)" stroke-width="1.5"></path>
        <path d="M725.14 1026.63L725.14 1026.63" stroke="hsl(228.5, 77.2%, 51.5%)" stroke-width="1.5"></path>
        <path d="M725.14 1026.63L722.78 1175.58" stroke="hsl(228.5, 77.2%, 51.5%)" stroke-width="1.5"></path>
        <path d="M725.14 1026.63L636.7 884.73" stroke="hsl(228.5, 77.2%, 51.5%)" stroke-width="1.5"></path>
        <path d="M725.14 1026.63L467.16 1002.18" stroke="hsl(228.5, 77.2%, 51.5%)" stroke-width="1.5"></path>
        <path d="M722.78 1175.58L722.78 1175.58" stroke="hsl(228.5, 77.2%, 51.5%)" stroke-width="1.5"></path>
        <path d="M722.78 1175.58L604.13 996.85" stroke="hsl(228.5, 77.2%, 51.5%)" stroke-width="1.5"></path>
        <path d="M722.78 1175.58L481.3 1118.59" stroke="hsl(228.5, 77.2%, 51.5%)" stroke-width="1.5"></path>
        <path d="M722.78 1175.58L721.79 906.52" stroke="hsl(228.5, 77.2%, 51.5%)" stroke-width="1.5"></path>
        <path d="M722.78 1175.58L636.7 884.73" stroke="hsl(228.5, 77.2%, 51.5%)" stroke-width="1.5"></path>
        <circle r="25" cx="-80.06" cy="1013.33" fill="url(&quot;#SvgjsRadialGradient1073&quot;)"></circle>
        <circle r="25" cx="215.45" cy="1012.14" fill="url(&quot;#SvgjsRadialGradient1073&quot;)"></circle>
        <circle r="25" cx="346.58" cy="1027.03" fill="url(&quot;#SvgjsRadialGradient1073&quot;)"></circle>
        <circle r="25" cx="480.79" cy="486.69" fill="url(&quot;#SvgjsRadialGradient1073&quot;)"></circle>
        <circle r="25" cx="618.42" cy="-95" fill="url(&quot;#SvgjsRadialGradient1073&quot;)"></circle>
        <circle r="25" cx="578.74" cy="84.47" fill="url(&quot;#SvgjsRadialGradient1073&quot;)"></circle>
        <circle r="25" cx="766.66" cy="174.97" fill="url(&quot;#SvgjsRadialGradient1073&quot;)"></circle>
        <circle r="25" cx="743.4" cy="449.77" fill="url(&quot;#SvgjsRadialGradient1073&quot;)"></circle>
        <circle r="5" cx="-46.96" cy="1135.87" fill="#8b9ad9"></circle>
        <circle r="5" cx="94.19" cy="876.71" fill="#8b9ad9"></circle>
        <circle r="5" cx="65.24" cy="1035.5" fill="#8b9ad9"></circle>
        <circle r="5" cx="50.89" cy="1170.74" fill="#8b9ad9"></circle>
        <circle r="5" cx="202.34" cy="875.31" fill="#8b9ad9"></circle>
        <circle r="5" cx="195.87" cy="1141.43" fill="#8b9ad9"></circle>
        <circle r="5" cx="311.97" cy="752.03" fill="#8b9ad9"></circle>
        <circle r="5" cx="336.63" cy="910.74" fill="#8b9ad9"></circle>
        <circle r="5" cx="342.93" cy="1122.86" fill="#8b9ad9"></circle>
        <circle r="5" cx="483.67" cy="197.36" fill="#8b9ad9"></circle>
        <circle r="5" cx="460.73" cy="350.36" fill="#8b9ad9"></circle>
        <circle r="5" cx="453.37" cy="626.68" fill="#8b9ad9"></circle>
        <circle r="5" cx="471.7" cy="720.55" fill="#8b9ad9"></circle>
        <circle r="5" cx="498.34" cy="891.46" fill="#8b9ad9"></circle>
        <circle r="5" cx="467.16" cy="1002.18" fill="#8b9ad9"></circle>
        <circle r="5" cx="481.3" cy="1118.59" fill="#8b9ad9"></circle>
        <circle r="5" cx="640.78" cy="211.32" fill="#8b9ad9"></circle>
        <circle r="5" cx="586.34" cy="343.42" fill="#8b9ad9"></circle>
        <circle r="5" cx="619.71" cy="630.74" fill="#8b9ad9"></circle>
        <circle r="5" cx="626.05" cy="749" fill="#8b9ad9"></circle>
        <circle r="5" cx="636.7" cy="884.73" fill="#8b9ad9"></circle>
        <circle r="5" cx="604.13" cy="996.85" fill="#8b9ad9"></circle>
        <circle r="5" cx="628.37" cy="1167.08" fill="#8b9ad9"></circle>
        <circle r="5" cx="756.44" cy="-48.66" fill="#8b9ad9"></circle>
        <circle r="5" cx="764.51" cy="76.04" fill="#8b9ad9"></circle>
        <circle r="5" cx="750.28" cy="330.77" fill="#8b9ad9"></circle>
        <circle r="5" cx="761.34" cy="622.13" fill="#8b9ad9"></circle>
        <circle r="5" cx="758.24" cy="744.92" fill="#8b9ad9"></circle>
        <circle r="5" cx="721.79" cy="906.52" fill="#8b9ad9"></circle>
        <circle r="5" cx="725.14" cy="1026.63" fill="#8b9ad9"></circle>
        <circle r="5" cx="722.78" cy="1175.58" fill="#8b9ad9"></circle>
    </g>
    <defs>
        <mask id="SvgjsMask1072">
            <rect width="574" height="1080" fill="#ffffff"></rect>
        </mask>
        <radialGradient id="SvgjsRadialGradient1073">
            <stop stop-color="#ffffff" offset="0.1"></stop>
            <stop stop-color="#1735b3" offset="0.2"></stop>
            <stop stop-color="rgba(23, 53, 179, 0)" offset="1"></stop>
        </radialGradient>
    </defs>
</svg>