<svg xmlns="http://www.w3.org/2000/svg" version="1.1" xmlns:xlink="http://www.w3.org/1999/xlink" xmlns:svgjs="http://svgjs.dev/svgjs" width="767" height="1080" preserveAspectRatio="none" viewBox="0 0 767 1080">
    <g mask="url(&quot;#SvgjsMask1060&quot;)" fill="none">
        <path d="M-67.72 773.88L-67.72 773.88" stroke="#132e65" stroke-width="1.5"></path>
        <path d="M-67.72 773.88L-64.75 894.87" stroke="#132e65" stroke-width="1.5"></path>
        <path d="M-67.72 773.88L92.26 743.37" stroke="#132e65" stroke-width="1.5"></path>
        <path d="M-67.72 773.88L91.85 879.6" stroke="#132e65" stroke-width="1.5"></path>
        <path d="M-67.72 773.88L-78.6 994.54" stroke="#132e65" stroke-width="1.5"></path>
        <path d="M-67.72 773.88L191.57 848.8" stroke="#132e65" stroke-width="1.5"></path>
        <path d="M-64.75 894.87L-64.75 894.87" stroke="#132e65" stroke-width="1.5"></path>
        <path d="M-64.75 894.87L-78.6 994.54" stroke="#132e65" stroke-width="1.5"></path>
        <path d="M-64.75 894.87L91.85 879.6" stroke="#132e65" stroke-width="1.5"></path>
        <path d="M-64.75 894.87L63.22 1023.73" stroke="#132e65" stroke-width="1.5"></path>
        <path d="M-64.75 894.87L92.26 743.37" stroke="#132e65" stroke-width="1.5"></path>
        <path d="M-78.6 994.54L-78.6 994.54" stroke="#132e65" stroke-width="1.5"></path>
        <path d="M-59.23 1138.81L-59.23 1138.81" stroke="#132e65" stroke-width="1.5"></path>
        <path d="M-59.23 1138.81L56.11 1155.27" stroke="#132e65" stroke-width="1.5"></path>
        <path d="M-59.23 1138.81L-78.6 994.54" stroke="#132e65" stroke-width="1.5"></path>
        <path d="M-59.23 1138.81L63.22 1023.73" stroke="#132e65" stroke-width="1.5"></path>
        <path d="M-59.23 1138.81L-64.75 894.87" stroke="#132e65" stroke-width="1.5"></path>
        <path d="M92.26 743.37L92.26 743.37" stroke="#132e65" stroke-width="1.5"></path>
        <path d="M92.26 743.37L219.89 736.44" stroke="#132e65" stroke-width="1.5"></path>
        <path d="M92.26 743.37L91.85 879.6" stroke="#132e65" stroke-width="1.5"></path>
        <path d="M91.85 879.6L91.85 879.6" stroke="#132e65" stroke-width="1.5"></path>
        <path d="M91.85 879.6L191.57 848.8" stroke="#132e65" stroke-width="1.5"></path>
        <path d="M91.85 879.6L187.94 979.19" stroke="#132e65" stroke-width="1.5"></path>
        <path d="M91.85 879.6L63.22 1023.73" stroke="#132e65" stroke-width="1.5"></path>
        <path d="M63.22 1023.73L63.22 1023.73" stroke="#132e65" stroke-width="1.5"></path>
        <path d="M63.22 1023.73L56.11 1155.27" stroke="#132e65" stroke-width="1.5"></path>
        <path d="M63.22 1023.73L187.94 979.19" stroke="#132e65" stroke-width="1.5"></path>
        <path d="M63.22 1023.73L-78.6 994.54" stroke="#132e65" stroke-width="1.5"></path>
        <path d="M56.11 1155.27L56.11 1155.27" stroke="#132e65" stroke-width="1.5"></path>
        <path d="M219.89 736.44L219.89 736.44" stroke="#132e65" stroke-width="1.5"></path>
        <path d="M219.89 736.44L322.82 742.71" stroke="#132e65" stroke-width="1.5"></path>
        <path d="M219.89 736.44L191.57 848.8" stroke="#132e65" stroke-width="1.5"></path>
        <path d="M191.57 848.8L191.57 848.8" stroke="#132e65" stroke-width="1.5"></path>
        <path d="M191.57 848.8L320.37 858.58" stroke="#132e65" stroke-width="1.5"></path>
        <path d="M191.57 848.8L187.94 979.19" stroke="#132e65" stroke-width="1.5"></path>
        <path d="M187.94 979.19L187.94 979.19" stroke="#132e65" stroke-width="1.5"></path>
        <path d="M220.38 1132.55L220.38 1132.55" stroke="#132e65" stroke-width="1.5"></path>
        <path d="M220.38 1132.55L350.81 1176.47" stroke="#132e65" stroke-width="1.5"></path>
        <path d="M220.38 1132.55L187.94 979.19" stroke="#132e65" stroke-width="1.5"></path>
        <path d="M220.38 1132.55L56.11 1155.27" stroke="#132e65" stroke-width="1.5"></path>
        <path d="M220.38 1132.55L342.79 1019" stroke="#132e65" stroke-width="1.5"></path>
        <path d="M368.96 491.89L368.96 491.89" stroke="#132e65" stroke-width="1.5"></path>
        <path d="M368.96 491.89L478.11 466.69" stroke="#132e65" stroke-width="1.5"></path>
        <path d="M368.96 491.89L442.97 578.19" stroke="#132e65" stroke-width="1.5"></path>
        <path d="M368.96 491.89L315.7 625.05" stroke="#132e65" stroke-width="1.5"></path>
        <path d="M368.96 491.89L488.56 326.75" stroke="#132e65" stroke-width="1.5"></path>
        <path d="M368.96 491.89L590.51 589.81" stroke="#132e65" stroke-width="1.5"></path>
        <path d="M315.7 625.05L315.7 625.05" stroke="#132e65" stroke-width="1.5"></path>
        <path d="M315.7 625.05L322.82 742.71" stroke="#132e65" stroke-width="1.5"></path>
        <path d="M315.7 625.05L442.97 578.19" stroke="#132e65" stroke-width="1.5"></path>
        <path d="M315.7 625.05L219.89 736.44" stroke="#132e65" stroke-width="1.5"></path>
        <path d="M315.7 625.05L455.41 747.87" stroke="#132e65" stroke-width="1.5"></path>
        <path d="M315.7 625.05L478.11 466.69" stroke="#132e65" stroke-width="1.5"></path>
        <path d="M322.82 742.71L322.82 742.71" stroke="#132e65" stroke-width="1.5"></path>
        <path d="M322.82 742.71L320.37 858.58" stroke="#132e65" stroke-width="1.5"></path>
        <path d="M322.82 742.71L455.41 747.87" stroke="#132e65" stroke-width="1.5"></path>
        <path d="M320.37 858.58L320.37 858.58" stroke="#132e65" stroke-width="1.5"></path>
        <path d="M320.37 858.58L219.89 736.44" stroke="#132e65" stroke-width="1.5"></path>
        <path d="M320.37 858.58L342.79 1019" stroke="#132e65" stroke-width="1.5"></path>
        <path d="M320.37 858.58L488.33 864.74" stroke="#132e65" stroke-width="1.5"></path>
        <path d="M342.79 1019L342.79 1019" stroke="#132e65" stroke-width="1.5"></path>
        <path d="M342.79 1019L350.81 1176.47" stroke="#132e65" stroke-width="1.5"></path>
        <path d="M342.79 1019L187.94 979.19" stroke="#132e65" stroke-width="1.5"></path>
        <path d="M350.81 1176.47L350.81 1176.47" stroke="#132e65" stroke-width="1.5"></path>
        <path d="M350.81 1176.47L486.86 1152.6" stroke="#132e65" stroke-width="1.5"></path>
        <path d="M350.81 1176.47L187.94 979.19" stroke="#132e65" stroke-width="1.5"></path>
        <path d="M350.81 1176.47L615.51 1137.15" stroke="#132e65" stroke-width="1.5"></path>
        <path d="M350.81 1176.47L56.11 1155.27" stroke="#132e65" stroke-width="1.5"></path>
        <path d="M473.05 -77.23L473.05 -77.23" stroke="#132e65" stroke-width="1.5"></path>
        <path d="M473.05 -77.23L590.01 -63.12" stroke="#132e65" stroke-width="1.5"></path>
        <path d="M473.05 -77.23L467.76 81.19" stroke="#132e65" stroke-width="1.5"></path>
        <path d="M473.05 -77.23L637.37 62.91" stroke="#132e65" stroke-width="1.5"></path>
        <path d="M473.05 -77.23L762.24 -67.83" stroke="#132e65" stroke-width="1.5"></path>
        <path d="M473.05 -77.23L750.13 43.33" stroke="#132e65" stroke-width="1.5"></path>
        <path d="M473.05 -77.23L630.68 194.64" stroke="#132e65" stroke-width="1.5"></path>
        <path d="M467.76 81.19L467.76 81.19" stroke="#132e65" stroke-width="1.5"></path>
        <path d="M467.76 81.19L637.37 62.91" stroke="#132e65" stroke-width="1.5"></path>
        <path d="M467.76 81.19L590.01 -63.12" stroke="#132e65" stroke-width="1.5"></path>
        <path d="M488.56 326.75L488.56 326.75" stroke="#132e65" stroke-width="1.5"></path>
        <path d="M488.56 326.75L587.51 341.5" stroke="#132e65" stroke-width="1.5"></path>
        <path d="M478.11 466.69L478.11 466.69" stroke="#132e65" stroke-width="1.5"></path>
        <path d="M478.11 466.69L442.97 578.19" stroke="#132e65" stroke-width="1.5"></path>
        <path d="M478.11 466.69L488.56 326.75" stroke="#132e65" stroke-width="1.5"></path>
        <path d="M478.11 466.69L636.13 450.56" stroke="#132e65" stroke-width="1.5"></path>
        <path d="M478.11 466.69L587.51 341.5" stroke="#132e65" stroke-width="1.5"></path>
        <path d="M442.97 578.19L442.97 578.19" stroke="#132e65" stroke-width="1.5"></path>
        <path d="M442.97 578.19L590.51 589.81" stroke="#132e65" stroke-width="1.5"></path>
        <path d="M442.97 578.19L455.41 747.87" stroke="#132e65" stroke-width="1.5"></path>
        <path d="M455.41 747.87L455.41 747.87" stroke="#132e65" stroke-width="1.5"></path>
        <path d="M455.41 747.87L488.33 864.74" stroke="#132e65" stroke-width="1.5"></path>
        <path d="M455.41 747.87L619.74 754.67" stroke="#132e65" stroke-width="1.5"></path>
        <path d="M455.41 747.87L320.37 858.58" stroke="#132e65" stroke-width="1.5"></path>
        <path d="M488.33 864.74L488.33 864.74" stroke="#132e65" stroke-width="1.5"></path>
        <path d="M488.33 864.74L575.08 904.93" stroke="#132e65" stroke-width="1.5"></path>
        <path d="M488.33 864.74L582.31 990.57" stroke="#132e65" stroke-width="1.5"></path>
        <path d="M488.33 864.74L619.74 754.67" stroke="#132e65" stroke-width="1.5"></path>
        <path d="M488.33 864.74L322.82 742.71" stroke="#132e65" stroke-width="1.5"></path>
        <path d="M486.86 1152.6L486.86 1152.6" stroke="#132e65" stroke-width="1.5"></path>
        <path d="M486.86 1152.6L615.51 1137.15" stroke="#132e65" stroke-width="1.5"></path>
        <path d="M486.86 1152.6L582.31 990.57" stroke="#132e65" stroke-width="1.5"></path>
        <path d="M486.86 1152.6L342.79 1019" stroke="#132e65" stroke-width="1.5"></path>
        <path d="M590.01 -63.12L590.01 -63.12" stroke="#132e65" stroke-width="1.5"></path>
        <path d="M590.01 -63.12L637.37 62.91" stroke="#132e65" stroke-width="1.5"></path>
        <path d="M637.37 62.91L637.37 62.91" stroke="#132e65" stroke-width="1.5"></path>
        <path d="M637.37 62.91L750.13 43.33" stroke="#132e65" stroke-width="1.5"></path>
        <path d="M637.37 62.91L630.68 194.64" stroke="#132e65" stroke-width="1.5"></path>
        <path d="M637.37 62.91L739.18 183.44" stroke="#132e65" stroke-width="1.5"></path>
        <path d="M630.68 194.64L630.68 194.64" stroke="#132e65" stroke-width="1.5"></path>
        <path d="M630.68 194.64L739.18 183.44" stroke="#132e65" stroke-width="1.5"></path>
        <path d="M630.68 194.64L587.51 341.5" stroke="#132e65" stroke-width="1.5"></path>
        <path d="M630.68 194.64L755.42 305.65" stroke="#132e65" stroke-width="1.5"></path>
        <path d="M630.68 194.64L750.13 43.33" stroke="#132e65" stroke-width="1.5"></path>
        <path d="M630.68 194.64L488.56 326.75" stroke="#132e65" stroke-width="1.5"></path>
        <path d="M587.51 341.5L587.51 341.5" stroke="#132e65" stroke-width="1.5"></path>
        <path d="M587.51 341.5L636.13 450.56" stroke="#132e65" stroke-width="1.5"></path>
        <path d="M636.13 450.56L636.13 450.56" stroke="#132e65" stroke-width="1.5"></path>
        <path d="M636.13 450.56L716.55 480.38" stroke="#132e65" stroke-width="1.5"></path>
        <path d="M590.51 589.81L590.51 589.81" stroke="#132e65" stroke-width="1.5"></path>
        <path d="M590.51 589.81L636.13 450.56" stroke="#132e65" stroke-width="1.5"></path>
        <path d="M590.51 589.81L750.72 608.12" stroke="#132e65" stroke-width="1.5"></path>
        <path d="M619.74 754.67L619.74 754.67" stroke="#132e65" stroke-width="1.5"></path>
        <path d="M619.74 754.67L575.08 904.93" stroke="#132e65" stroke-width="1.5"></path>
        <path d="M619.74 754.67L771.53 708.76" stroke="#132e65" stroke-width="1.5"></path>
        <path d="M619.74 754.67L590.51 589.81" stroke="#132e65" stroke-width="1.5"></path>
        <path d="M575.08 904.93L575.08 904.93" stroke="#132e65" stroke-width="1.5"></path>
        <path d="M575.08 904.93L582.31 990.57" stroke="#132e65" stroke-width="1.5"></path>
        <path d="M575.08 904.93L721.43 896.16" stroke="#132e65" stroke-width="1.5"></path>
        <path d="M575.08 904.93L455.41 747.87" stroke="#132e65" stroke-width="1.5"></path>
        <path d="M582.31 990.57L582.31 990.57" stroke="#132e65" stroke-width="1.5"></path>
        <path d="M582.31 990.57L615.51 1137.15" stroke="#132e65" stroke-width="1.5"></path>
        <path d="M582.31 990.57L747.86 1014.16" stroke="#132e65" stroke-width="1.5"></path>
        <path d="M582.31 990.57L721.43 896.16" stroke="#132e65" stroke-width="1.5"></path>
        <path d="M615.51 1137.15L615.51 1137.15" stroke="#132e65" stroke-width="1.5"></path>
        <path d="M762.24 -67.83L762.24 -67.83" stroke="#132e65" stroke-width="1.5"></path>
        <path d="M762.24 -67.83L750.13 43.33" stroke="#132e65" stroke-width="1.5"></path>
        <path d="M762.24 -67.83L906.76 -92.59" stroke="#132e65" stroke-width="1.5"></path>
        <path d="M762.24 -67.83L862.05 60.33" stroke="#132e65" stroke-width="1.5"></path>
        <path d="M762.24 -67.83L590.01 -63.12" stroke="#132e65" stroke-width="1.5"></path>
        <path d="M762.24 -67.83L637.37 62.91" stroke="#132e65" stroke-width="1.5"></path>
        <path d="M762.24 -67.83L739.18 183.44" stroke="#132e65" stroke-width="1.5"></path>
        <path d="M750.13 43.33L750.13 43.33" stroke="#132e65" stroke-width="1.5"></path>
        <path d="M750.13 43.33L862.05 60.33" stroke="#132e65" stroke-width="1.5"></path>
        <path d="M750.13 43.33L739.18 183.44" stroke="#132e65" stroke-width="1.5"></path>
        <path d="M739.18 183.44L739.18 183.44" stroke="#132e65" stroke-width="1.5"></path>
        <path d="M739.18 183.44L755.42 305.65" stroke="#132e65" stroke-width="1.5"></path>
        <path d="M739.18 183.44L867.56 194.47" stroke="#132e65" stroke-width="1.5"></path>
        <path d="M755.42 305.65L755.42 305.65" stroke="#132e65" stroke-width="1.5"></path>
        <path d="M755.42 305.65L852.49 340.52" stroke="#132e65" stroke-width="1.5"></path>
        <path d="M755.42 305.65L867.56 194.47" stroke="#132e65" stroke-width="1.5"></path>
        <path d="M716.55 480.38L716.55 480.38" stroke="#132e65" stroke-width="1.5"></path>
        <path d="M716.55 480.38L750.72 608.12" stroke="#132e65" stroke-width="1.5"></path>
        <path d="M716.55 480.38L590.51 589.81" stroke="#132e65" stroke-width="1.5"></path>
        <path d="M716.55 480.38L755.42 305.65" stroke="#132e65" stroke-width="1.5"></path>
        <path d="M750.72 608.12L750.72 608.12" stroke="#132e65" stroke-width="1.5"></path>
        <path d="M750.72 608.12L847.57 633.91" stroke="#132e65" stroke-width="1.5"></path>
        <path d="M750.72 608.12L771.53 708.76" stroke="#132e65" stroke-width="1.5"></path>
        <path d="M771.53 708.76L771.53 708.76" stroke="#132e65" stroke-width="1.5"></path>
        <path d="M771.53 708.76L847.57 633.91" stroke="#132e65" stroke-width="1.5"></path>
        <path d="M771.53 708.76L907.64 721.18" stroke="#132e65" stroke-width="1.5"></path>
        <path d="M771.53 708.76L862.82 864.85" stroke="#132e65" stroke-width="1.5"></path>
        <path d="M771.53 708.76L721.43 896.16" stroke="#132e65" stroke-width="1.5"></path>
        <path d="M721.43 896.16L721.43 896.16" stroke="#132e65" stroke-width="1.5"></path>
        <path d="M721.43 896.16L747.86 1014.16" stroke="#132e65" stroke-width="1.5"></path>
        <path d="M721.43 896.16L862.82 864.85" stroke="#132e65" stroke-width="1.5"></path>
        <path d="M747.86 1014.16L747.86 1014.16" stroke="#132e65" stroke-width="1.5"></path>
        <path d="M747.86 1014.16L872.71 1026.18" stroke="#132e65" stroke-width="1.5"></path>
        <path d="M766.55 1175.7L766.55 1175.7" stroke="#132e65" stroke-width="1.5"></path>
        <path d="M766.55 1175.7L897.66 1177.88" stroke="#132e65" stroke-width="1.5"></path>
        <path d="M766.55 1175.7L615.51 1137.15" stroke="#132e65" stroke-width="1.5"></path>
        <path d="M766.55 1175.7L747.86 1014.16" stroke="#132e65" stroke-width="1.5"></path>
        <path d="M766.55 1175.7L872.71 1026.18" stroke="#132e65" stroke-width="1.5"></path>
        <path d="M766.55 1175.7L582.31 990.57" stroke="#132e65" stroke-width="1.5"></path>
        <path d="M766.55 1175.7L486.86 1152.6" stroke="#132e65" stroke-width="1.5"></path>
        <path d="M906.76 -92.59L906.76 -92.59" stroke="#132e65" stroke-width="1.5"></path>
        <path d="M906.76 -92.59L862.05 60.33" stroke="#132e65" stroke-width="1.5"></path>
        <path d="M906.76 -92.59L750.13 43.33" stroke="#132e65" stroke-width="1.5"></path>
        <path d="M906.76 -92.59L867.56 194.47" stroke="#132e65" stroke-width="1.5"></path>
        <path d="M906.76 -92.59L637.37 62.91" stroke="#132e65" stroke-width="1.5"></path>
        <path d="M862.05 60.33L862.05 60.33" stroke="#132e65" stroke-width="1.5"></path>
        <path d="M862.05 60.33L867.56 194.47" stroke="#132e65" stroke-width="1.5"></path>
        <path d="M862.05 60.33L739.18 183.44" stroke="#132e65" stroke-width="1.5"></path>
        <path d="M867.56 194.47L867.56 194.47" stroke="#132e65" stroke-width="1.5"></path>
        <path d="M852.49 340.52L852.49 340.52" stroke="#132e65" stroke-width="1.5"></path>
        <path d="M852.49 340.52L867.56 194.47" stroke="#132e65" stroke-width="1.5"></path>
        <path d="M852.49 340.52L901.6 498.62" stroke="#132e65" stroke-width="1.5"></path>
        <path d="M852.49 340.52L739.18 183.44" stroke="#132e65" stroke-width="1.5"></path>
        <path d="M852.49 340.52L716.55 480.38" stroke="#132e65" stroke-width="1.5"></path>
        <path d="M852.49 340.52L636.13 450.56" stroke="#132e65" stroke-width="1.5"></path>
        <path d="M901.6 498.62L901.6 498.62" stroke="#132e65" stroke-width="1.5"></path>
        <path d="M901.6 498.62L847.57 633.91" stroke="#132e65" stroke-width="1.5"></path>
        <path d="M901.6 498.62L716.55 480.38" stroke="#132e65" stroke-width="1.5"></path>
        <path d="M901.6 498.62L750.72 608.12" stroke="#132e65" stroke-width="1.5"></path>
        <path d="M901.6 498.62L907.64 721.18" stroke="#132e65" stroke-width="1.5"></path>
        <path d="M847.57 633.91L847.57 633.91" stroke="#132e65" stroke-width="1.5"></path>
        <path d="M847.57 633.91L907.64 721.18" stroke="#132e65" stroke-width="1.5"></path>
        <path d="M907.64 721.18L907.64 721.18" stroke="#132e65" stroke-width="1.5"></path>
        <path d="M862.82 864.85L862.82 864.85" stroke="#132e65" stroke-width="1.5"></path>
        <path d="M862.82 864.85L907.64 721.18" stroke="#132e65" stroke-width="1.5"></path>
        <path d="M862.82 864.85L872.71 1026.18" stroke="#132e65" stroke-width="1.5"></path>
        <path d="M862.82 864.85L747.86 1014.16" stroke="#132e65" stroke-width="1.5"></path>
        <path d="M862.82 864.85L847.57 633.91" stroke="#132e65" stroke-width="1.5"></path>
        <path d="M872.71 1026.18L872.71 1026.18" stroke="#132e65" stroke-width="1.5"></path>
        <path d="M897.66 1177.88L897.66 1177.88" stroke="#132e65" stroke-width="1.5"></path>
        <path d="M897.66 1177.88L872.71 1026.18" stroke="#132e65" stroke-width="1.5"></path>
        <circle r="5" cx="-67.72" cy="773.88" fill="#132e65"></circle>
        <circle r="5" cx="-64.75" cy="894.87" fill="#132e65"></circle>
        <circle r="5" cx="-78.6" cy="994.54" fill="#132e65"></circle>
        <circle r="5" cx="-59.23" cy="1138.81" fill="#132e65"></circle>
        <circle r="5" cx="92.26" cy="743.37" fill="#132e65"></circle>
        <circle r="5" cx="91.85" cy="879.6" fill="#132e65"></circle>
        <circle r="5" cx="63.22" cy="1023.73" fill="#132e65"></circle>
        <circle r="5" cx="56.11" cy="1155.27" fill="#132e65"></circle>
        <circle r="5" cx="219.89" cy="736.44" fill="#132e65"></circle>
        <circle r="5" cx="191.57" cy="848.8" fill="#132e65"></circle>
        <circle r="5" cx="187.94" cy="979.19" fill="#132e65"></circle>
        <circle r="5" cx="220.38" cy="1132.55" fill="#132e65"></circle>
        <circle r="5" cx="368.96" cy="491.89" fill="#132e65"></circle>
        <circle r="5" cx="315.7" cy="625.05" fill="#132e65"></circle>
        <circle r="5" cx="322.82" cy="742.71" fill="#132e65"></circle>
        <circle r="5" cx="320.37" cy="858.58" fill="#132e65"></circle>
        <circle r="5" cx="342.79" cy="1019" fill="#132e65"></circle>
        <circle r="5" cx="350.81" cy="1176.47" fill="#132e65"></circle>
        <circle r="5" cx="473.05" cy="-77.23" fill="#132e65"></circle>
        <circle r="5" cx="467.76" cy="81.19" fill="#132e65"></circle>
        <circle r="5" cx="488.56" cy="326.75" fill="#132e65"></circle>
        <circle r="5" cx="478.11" cy="466.69" fill="#132e65"></circle>
        <circle r="5" cx="442.97" cy="578.19" fill="#132e65"></circle>
        <circle r="5" cx="455.41" cy="747.87" fill="#132e65"></circle>
        <circle r="5" cx="488.33" cy="864.74" fill="#132e65"></circle>
        <circle r="5" cx="486.86" cy="1152.6" fill="#132e65"></circle>
        <circle r="5" cx="590.01" cy="-63.12" fill="#132e65"></circle>
        <circle r="5" cx="637.37" cy="62.91" fill="#132e65"></circle>
        <circle r="5" cx="630.68" cy="194.64" fill="#132e65"></circle>
        <circle r="5" cx="587.51" cy="341.5" fill="#132e65"></circle>
        <circle r="5" cx="636.13" cy="450.56" fill="#132e65"></circle>
        <circle r="5" cx="590.51" cy="589.81" fill="#132e65"></circle>
        <circle r="5" cx="619.74" cy="754.67" fill="#132e65"></circle>
        <circle r="5" cx="575.08" cy="904.93" fill="#132e65"></circle>
        <circle r="5" cx="582.31" cy="990.57" fill="#132e65"></circle>
        <circle r="5" cx="615.51" cy="1137.15" fill="#132e65"></circle>
        <circle r="5" cx="762.24" cy="-67.83" fill="#132e65"></circle>
        <circle r="5" cx="750.13" cy="43.33" fill="#132e65"></circle>
        <circle r="5" cx="739.18" cy="183.44" fill="#132e65"></circle>
        <circle r="5" cx="755.42" cy="305.65" fill="#132e65"></circle>
        <circle r="5" cx="716.55" cy="480.38" fill="#132e65"></circle>
        <circle r="5" cx="750.72" cy="608.12" fill="#132e65"></circle>
        <circle r="5" cx="771.53" cy="708.76" fill="#132e65"></circle>
        <circle r="5" cx="721.43" cy="896.16" fill="#132e65"></circle>
        <circle r="5" cx="747.86" cy="1014.16" fill="#132e65"></circle>
        <circle r="5" cx="766.55" cy="1175.7" fill="#132e65"></circle>
        <circle r="5" cx="906.76" cy="-92.59" fill="#132e65"></circle>
        <circle r="5" cx="862.05" cy="60.33" fill="#132e65"></circle>
        <circle r="5" cx="867.56" cy="194.47" fill="#132e65"></circle>
        <circle r="5" cx="852.49" cy="340.52" fill="#132e65"></circle>
        <circle r="5" cx="901.6" cy="498.62" fill="#132e65"></circle>
        <circle r="5" cx="847.57" cy="633.91" fill="#132e65"></circle>
        <circle r="5" cx="907.64" cy="721.18" fill="#132e65"></circle>
        <circle r="5" cx="862.82" cy="864.85" fill="#132e65"></circle>
        <circle r="5" cx="872.71" cy="1026.18" fill="#132e65"></circle>
        <circle r="5" cx="897.66" cy="1177.88" fill="#132e65"></circle>
        <path d="M-93.78 863.85L-93.78 863.85" stroke="hsl(228.5, 77.2%, 51.5%)" stroke-width="1.5"></path>
        <path d="M-93.78 863.85L-49.14 1012.72" stroke="hsl(228.5, 77.2%, 51.5%)" stroke-width="1.5"></path>
        <path d="M-93.78 863.85L85.4 896.46" stroke="hsl(228.5, 77.2%, 51.5%)" stroke-width="1.5"></path>
        <path d="M-93.78 863.85L85.88 986.87" stroke="hsl(228.5, 77.2%, 51.5%)" stroke-width="1.5"></path>
        <path d="M-93.78 863.85L-65.99 1121.91" stroke="hsl(228.5, 77.2%, 51.5%)" stroke-width="1.5"></path>
        <path d="M-93.78 863.85L231.42 864.67" stroke="hsl(228.5, 77.2%, 51.5%)" stroke-width="1.5"></path>
        <path d="M-49.14 1012.72L-49.14 1012.72" stroke="hsl(228.5, 77.2%, 51.5%)" stroke-width="1.5"></path>
        <path d="M-49.14 1012.72L-65.99 1121.91" stroke="hsl(228.5, 77.2%, 51.5%)" stroke-width="1.5"></path>
        <path d="M-49.14 1012.72L85.88 986.87" stroke="hsl(228.5, 77.2%, 51.5%)" stroke-width="1.5"></path>
        <path d="M-49.14 1012.72L85.4 896.46" stroke="hsl(228.5, 77.2%, 51.5%)" stroke-width="1.5"></path>
        <path d="M87.16 1156.43L87.16 1156.43" stroke="hsl(228.5, 77.2%, 51.5%)" stroke-width="1.5"></path>
        <path d="M87.16 1156.43L190.76 1154.98" stroke="hsl(228.5, 77.2%, 51.5%)" stroke-width="1.5"></path>
        <path d="M87.16 1156.43L-65.99 1121.91" stroke="hsl(228.5, 77.2%, 51.5%)" stroke-width="1.5"></path>
        <path d="M87.16 1156.43L85.88 986.87" stroke="hsl(228.5, 77.2%, 51.5%)" stroke-width="1.5"></path>
        <path d="M87.16 1156.43L223.8 1033.64" stroke="hsl(228.5, 77.2%, 51.5%)" stroke-width="1.5"></path>
        <path d="M604.83 451.46L604.83 451.46" stroke="hsl(228.5, 77.2%, 51.5%)" stroke-width="1.5"></path>
        <path d="M604.83 451.46L598.28 591.9" stroke="hsl(228.5, 77.2%, 51.5%)" stroke-width="1.5"></path>
        <path d="M604.83 451.46L764.78 443.22" stroke="hsl(228.5, 77.2%, 51.5%)" stroke-width="1.5"></path>
        <path d="M604.83 451.46L498.2 591.86" stroke="hsl(228.5, 77.2%, 51.5%)" stroke-width="1.5"></path>
        <path d="M750.74 181.94L750.74 181.94" stroke="hsl(228.5, 77.2%, 51.5%)" stroke-width="1.5"></path>
        <path d="M750.74 181.94L753.72 87.37" stroke="hsl(228.5, 77.2%, 51.5%)" stroke-width="1.5"></path>
        <path d="M750.74 181.94L897.48 206.78" stroke="hsl(228.5, 77.2%, 51.5%)" stroke-width="1.5"></path>
        <path d="M750.74 181.94L864.81 322.63" stroke="hsl(228.5, 77.2%, 51.5%)" stroke-width="1.5"></path>
        <path d="M758.84 872.58L758.84 872.58" stroke="hsl(228.5, 77.2%, 51.5%)" stroke-width="1.5"></path>
        <path d="M758.84 872.58L756.95 992.67" stroke="hsl(228.5, 77.2%, 51.5%)" stroke-width="1.5"></path>
        <path d="M758.84 872.58L882.31 881.28" stroke="hsl(228.5, 77.2%, 51.5%)" stroke-width="1.5"></path>
        <path d="M758.84 872.58L872.32 754.27" stroke="hsl(228.5, 77.2%, 51.5%)" stroke-width="1.5"></path>
        <path d="M758.84 872.58L904.4 1005.49" stroke="hsl(228.5, 77.2%, 51.5%)" stroke-width="1.5"></path>
        <path d="M756.95 992.67L756.95 992.67" stroke="hsl(228.5, 77.2%, 51.5%)" stroke-width="1.5"></path>
        <path d="M756.95 992.67L744.49 1119.62" stroke="hsl(228.5, 77.2%, 51.5%)" stroke-width="1.5"></path>
        <path d="M756.95 992.67L904.4 1005.49" stroke="hsl(228.5, 77.2%, 51.5%)" stroke-width="1.5"></path>
        <path d="M756.95 992.67L608.43 1001.16" stroke="hsl(228.5, 77.2%, 51.5%)" stroke-width="1.5"></path>
        <path d="M869.12 42.14L869.12 42.14" stroke="hsl(228.5, 77.2%, 51.5%)" stroke-width="1.5"></path>
        <path d="M869.12 42.14L892 -65.43" stroke="hsl(228.5, 77.2%, 51.5%)" stroke-width="1.5"></path>
        <path d="M869.12 42.14L753.72 87.37" stroke="hsl(228.5, 77.2%, 51.5%)" stroke-width="1.5"></path>
        <path d="M869.12 42.14L897.48 206.78" stroke="hsl(228.5, 77.2%, 51.5%)" stroke-width="1.5"></path>
        <path d="M869.12 42.14L750.74 181.94" stroke="hsl(228.5, 77.2%, 51.5%)" stroke-width="1.5"></path>
        <path d="M869.12 42.14L864.81 322.63" stroke="hsl(228.5, 77.2%, 51.5%)" stroke-width="1.5"></path>
        <path d="M869.12 42.14L764.51 370.42" stroke="hsl(228.5, 77.2%, 51.5%)" stroke-width="1.5"></path>
        <path d="M864.81 322.63L864.81 322.63" stroke="hsl(228.5, 77.2%, 51.5%)" stroke-width="1.5"></path>
        <path d="M864.81 322.63L764.51 370.42" stroke="hsl(228.5, 77.2%, 51.5%)" stroke-width="1.5"></path>
        <path d="M864.81 322.63L897.48 206.78" stroke="hsl(228.5, 77.2%, 51.5%)" stroke-width="1.5"></path>
        <path d="M864.81 322.63L764.78 443.22" stroke="hsl(228.5, 77.2%, 51.5%)" stroke-width="1.5"></path>
        <path d="M864.81 322.63L753.72 87.37" stroke="hsl(228.5, 77.2%, 51.5%)" stroke-width="1.5"></path>
        <path d="M-65.99 1121.91L-65.99 1121.91" stroke="hsl(228.5, 77.2%, 51.5%)" stroke-width="1.5"></path>
        <path d="M-65.99 1121.91L85.88 986.87" stroke="hsl(228.5, 77.2%, 51.5%)" stroke-width="1.5"></path>
        <path d="M-65.99 1121.91L190.76 1154.98" stroke="hsl(228.5, 77.2%, 51.5%)" stroke-width="1.5"></path>
        <path d="M85.4 896.46L85.4 896.46" stroke="hsl(228.5, 77.2%, 51.5%)" stroke-width="1.5"></path>
        <path d="M85.4 896.46L85.88 986.87" stroke="hsl(228.5, 77.2%, 51.5%)" stroke-width="1.5"></path>
        <path d="M85.4 896.46L231.42 864.67" stroke="hsl(228.5, 77.2%, 51.5%)" stroke-width="1.5"></path>
        <path d="M85.88 986.87L85.88 986.87" stroke="hsl(228.5, 77.2%, 51.5%)" stroke-width="1.5"></path>
        <path d="M85.88 986.87L223.8 1033.64" stroke="hsl(228.5, 77.2%, 51.5%)" stroke-width="1.5"></path>
        <path d="M85.88 986.87L231.42 864.67" stroke="hsl(228.5, 77.2%, 51.5%)" stroke-width="1.5"></path>
        <path d="M231.42 864.67L231.42 864.67" stroke="hsl(228.5, 77.2%, 51.5%)" stroke-width="1.5"></path>
        <path d="M231.42 864.67L334.38 854.52" stroke="hsl(228.5, 77.2%, 51.5%)" stroke-width="1.5"></path>
        <path d="M231.42 864.67L223.8 1033.64" stroke="hsl(228.5, 77.2%, 51.5%)" stroke-width="1.5"></path>
        <path d="M231.42 864.67L350 989.86" stroke="hsl(228.5, 77.2%, 51.5%)" stroke-width="1.5"></path>
        <path d="M223.8 1033.64L223.8 1033.64" stroke="hsl(228.5, 77.2%, 51.5%)" stroke-width="1.5"></path>
        <path d="M223.8 1033.64L190.76 1154.98" stroke="hsl(228.5, 77.2%, 51.5%)" stroke-width="1.5"></path>
        <path d="M223.8 1033.64L350 989.86" stroke="hsl(228.5, 77.2%, 51.5%)" stroke-width="1.5"></path>
        <path d="M223.8 1033.64L330.39 1162.04" stroke="hsl(228.5, 77.2%, 51.5%)" stroke-width="1.5"></path>
        <path d="M190.76 1154.98L190.76 1154.98" stroke="hsl(228.5, 77.2%, 51.5%)" stroke-width="1.5"></path>
        <path d="M190.76 1154.98L330.39 1162.04" stroke="hsl(228.5, 77.2%, 51.5%)" stroke-width="1.5"></path>
        <path d="M334.38 854.52L334.38 854.52" stroke="hsl(228.5, 77.2%, 51.5%)" stroke-width="1.5"></path>
        <path d="M334.38 854.52L459.82 885.26" stroke="hsl(228.5, 77.2%, 51.5%)" stroke-width="1.5"></path>
        <path d="M334.38 854.52L350 989.86" stroke="hsl(228.5, 77.2%, 51.5%)" stroke-width="1.5"></path>
        <path d="M334.38 854.52L476.1 739.01" stroke="hsl(228.5, 77.2%, 51.5%)" stroke-width="1.5"></path>
        <path d="M334.38 854.52L481.87 991.86" stroke="hsl(228.5, 77.2%, 51.5%)" stroke-width="1.5"></path>
        <path d="M350 989.86L350 989.86" stroke="hsl(228.5, 77.2%, 51.5%)" stroke-width="1.5"></path>
        <path d="M350 989.86L481.87 991.86" stroke="hsl(228.5, 77.2%, 51.5%)" stroke-width="1.5"></path>
        <path d="M330.39 1162.04L330.39 1162.04" stroke="hsl(228.5, 77.2%, 51.5%)" stroke-width="1.5"></path>
        <path d="M330.39 1162.04L462.6 1158.53" stroke="hsl(228.5, 77.2%, 51.5%)" stroke-width="1.5"></path>
        <path d="M498.2 591.86L498.2 591.86" stroke="hsl(228.5, 77.2%, 51.5%)" stroke-width="1.5"></path>
        <path d="M498.2 591.86L598.28 591.9" stroke="hsl(228.5, 77.2%, 51.5%)" stroke-width="1.5"></path>
        <path d="M498.2 591.86L476.1 739.01" stroke="hsl(228.5, 77.2%, 51.5%)" stroke-width="1.5"></path>
        <path d="M476.1 739.01L476.1 739.01" stroke="hsl(228.5, 77.2%, 51.5%)" stroke-width="1.5"></path>
        <path d="M476.1 739.01L582.73 768.09" stroke="hsl(228.5, 77.2%, 51.5%)" stroke-width="1.5"></path>
        <path d="M476.1 739.01L459.82 885.26" stroke="hsl(228.5, 77.2%, 51.5%)" stroke-width="1.5"></path>
        <path d="M459.82 885.26L459.82 885.26" stroke="hsl(228.5, 77.2%, 51.5%)" stroke-width="1.5"></path>
        <path d="M459.82 885.26L481.87 991.86" stroke="hsl(228.5, 77.2%, 51.5%)" stroke-width="1.5"></path>
        <path d="M481.87 991.86L481.87 991.86" stroke="hsl(228.5, 77.2%, 51.5%)" stroke-width="1.5"></path>
        <path d="M481.87 991.86L608.43 1001.16" stroke="hsl(228.5, 77.2%, 51.5%)" stroke-width="1.5"></path>
        <path d="M481.87 991.86L462.6 1158.53" stroke="hsl(228.5, 77.2%, 51.5%)" stroke-width="1.5"></path>
        <path d="M481.87 991.86L593 1129.88" stroke="hsl(228.5, 77.2%, 51.5%)" stroke-width="1.5"></path>
        <path d="M462.6 1158.53L462.6 1158.53" stroke="hsl(228.5, 77.2%, 51.5%)" stroke-width="1.5"></path>
        <path d="M462.6 1158.53L593 1129.88" stroke="hsl(228.5, 77.2%, 51.5%)" stroke-width="1.5"></path>
        <path d="M462.6 1158.53L350 989.86" stroke="hsl(228.5, 77.2%, 51.5%)" stroke-width="1.5"></path>
        <path d="M462.6 1158.53L608.43 1001.16" stroke="hsl(228.5, 77.2%, 51.5%)" stroke-width="1.5"></path>
        <path d="M598.28 591.9L598.28 591.9" stroke="hsl(228.5, 77.2%, 51.5%)" stroke-width="1.5"></path>
        <path d="M598.28 591.9L751.56 631.89" stroke="hsl(228.5, 77.2%, 51.5%)" stroke-width="1.5"></path>
        <path d="M598.28 591.9L582.73 768.09" stroke="hsl(228.5, 77.2%, 51.5%)" stroke-width="1.5"></path>
        <path d="M598.28 591.9L476.1 739.01" stroke="hsl(228.5, 77.2%, 51.5%)" stroke-width="1.5"></path>
        <path d="M598.28 591.9L764.78 443.22" stroke="hsl(228.5, 77.2%, 51.5%)" stroke-width="1.5"></path>
        <path d="M582.73 768.09L582.73 768.09" stroke="hsl(228.5, 77.2%, 51.5%)" stroke-width="1.5"></path>
        <path d="M582.73 768.09L459.82 885.26" stroke="hsl(228.5, 77.2%, 51.5%)" stroke-width="1.5"></path>
        <path d="M582.73 768.09L498.2 591.86" stroke="hsl(228.5, 77.2%, 51.5%)" stroke-width="1.5"></path>
        <path d="M608.43 1001.16L608.43 1001.16" stroke="hsl(228.5, 77.2%, 51.5%)" stroke-width="1.5"></path>
        <path d="M608.43 1001.16L593 1129.88" stroke="hsl(228.5, 77.2%, 51.5%)" stroke-width="1.5"></path>
        <path d="M608.43 1001.16L744.49 1119.62" stroke="hsl(228.5, 77.2%, 51.5%)" stroke-width="1.5"></path>
        <path d="M608.43 1001.16L459.82 885.26" stroke="hsl(228.5, 77.2%, 51.5%)" stroke-width="1.5"></path>
        <path d="M608.43 1001.16L758.84 872.58" stroke="hsl(228.5, 77.2%, 51.5%)" stroke-width="1.5"></path>
        <path d="M593 1129.88L593 1129.88" stroke="hsl(228.5, 77.2%, 51.5%)" stroke-width="1.5"></path>
        <path d="M753.72 87.37L753.72 87.37" stroke="hsl(228.5, 77.2%, 51.5%)" stroke-width="1.5"></path>
        <path d="M753.72 87.37L897.48 206.78" stroke="hsl(228.5, 77.2%, 51.5%)" stroke-width="1.5"></path>
        <path d="M753.72 87.37L892 -65.43" stroke="hsl(228.5, 77.2%, 51.5%)" stroke-width="1.5"></path>
        <path d="M753.72 87.37L764.51 370.42" stroke="hsl(228.5, 77.2%, 51.5%)" stroke-width="1.5"></path>
        <path d="M764.51 370.42L764.51 370.42" stroke="hsl(228.5, 77.2%, 51.5%)" stroke-width="1.5"></path>
        <path d="M764.51 370.42L764.78 443.22" stroke="hsl(228.5, 77.2%, 51.5%)" stroke-width="1.5"></path>
        <path d="M764.51 370.42L604.83 451.46" stroke="hsl(228.5, 77.2%, 51.5%)" stroke-width="1.5"></path>
        <path d="M764.78 443.22L764.78 443.22" stroke="hsl(228.5, 77.2%, 51.5%)" stroke-width="1.5"></path>
        <path d="M751.56 631.89L751.56 631.89" stroke="hsl(228.5, 77.2%, 51.5%)" stroke-width="1.5"></path>
        <path d="M751.56 631.89L856.81 606.51" stroke="hsl(228.5, 77.2%, 51.5%)" stroke-width="1.5"></path>
        <path d="M751.56 631.89L872.32 754.27" stroke="hsl(228.5, 77.2%, 51.5%)" stroke-width="1.5"></path>
        <path d="M751.56 631.89L764.78 443.22" stroke="hsl(228.5, 77.2%, 51.5%)" stroke-width="1.5"></path>
        <path d="M744.49 1119.62L744.49 1119.62" stroke="hsl(228.5, 77.2%, 51.5%)" stroke-width="1.5"></path>
        <path d="M892 -65.43L892 -65.43" stroke="hsl(228.5, 77.2%, 51.5%)" stroke-width="1.5"></path>
        <path d="M892 -65.43L897.48 206.78" stroke="hsl(228.5, 77.2%, 51.5%)" stroke-width="1.5"></path>
        <path d="M897.48 206.78L897.48 206.78" stroke="hsl(228.5, 77.2%, 51.5%)" stroke-width="1.5"></path>
        <path d="M856.81 606.51L856.81 606.51" stroke="hsl(228.5, 77.2%, 51.5%)" stroke-width="1.5"></path>
        <path d="M856.81 606.51L872.32 754.27" stroke="hsl(228.5, 77.2%, 51.5%)" stroke-width="1.5"></path>
        <path d="M856.81 606.51L764.78 443.22" stroke="hsl(228.5, 77.2%, 51.5%)" stroke-width="1.5"></path>
        <path d="M856.81 606.51L764.51 370.42" stroke="hsl(228.5, 77.2%, 51.5%)" stroke-width="1.5"></path>
        <path d="M872.32 754.27L872.32 754.27" stroke="hsl(228.5, 77.2%, 51.5%)" stroke-width="1.5"></path>
        <path d="M872.32 754.27L882.31 881.28" stroke="hsl(228.5, 77.2%, 51.5%)" stroke-width="1.5"></path>
        <path d="M882.31 881.28L882.31 881.28" stroke="hsl(228.5, 77.2%, 51.5%)" stroke-width="1.5"></path>
        <path d="M882.31 881.28L904.4 1005.49" stroke="hsl(228.5, 77.2%, 51.5%)" stroke-width="1.5"></path>
        <path d="M882.31 881.28L756.95 992.67" stroke="hsl(228.5, 77.2%, 51.5%)" stroke-width="1.5"></path>
        <path d="M882.31 881.28L744.49 1119.62" stroke="hsl(228.5, 77.2%, 51.5%)" stroke-width="1.5"></path>
        <path d="M882.31 881.28L856.81 606.51" stroke="hsl(228.5, 77.2%, 51.5%)" stroke-width="1.5"></path>
        <path d="M904.4 1005.49L904.4 1005.49" stroke="hsl(228.5, 77.2%, 51.5%)" stroke-width="1.5"></path>
        <path d="M904.4 1005.49L899.23 1175.66" stroke="hsl(228.5, 77.2%, 51.5%)" stroke-width="1.5"></path>
        <path d="M904.4 1005.49L744.49 1119.62" stroke="hsl(228.5, 77.2%, 51.5%)" stroke-width="1.5"></path>
        <path d="M899.23 1175.66L899.23 1175.66" stroke="hsl(228.5, 77.2%, 51.5%)" stroke-width="1.5"></path>
        <path d="M899.23 1175.66L744.49 1119.62" stroke="hsl(228.5, 77.2%, 51.5%)" stroke-width="1.5"></path>
        <path d="M899.23 1175.66L756.95 992.67" stroke="hsl(228.5, 77.2%, 51.5%)" stroke-width="1.5"></path>
        <path d="M899.23 1175.66L882.31 881.28" stroke="hsl(228.5, 77.2%, 51.5%)" stroke-width="1.5"></path>
        <circle r="25" cx="-93.78" cy="863.85" fill="url(&quot;#SvgjsRadialGradient1061&quot;)"></circle>
        <circle r="25" cx="-49.14" cy="1012.72" fill="url(&quot;#SvgjsRadialGradient1061&quot;)"></circle>
        <circle r="25" cx="87.16" cy="1156.43" fill="url(&quot;#SvgjsRadialGradient1061&quot;)"></circle>
        <circle r="25" cx="604.83" cy="451.46" fill="url(&quot;#SvgjsRadialGradient1061&quot;)"></circle>
        <circle r="25" cx="750.74" cy="181.94" fill="url(&quot;#SvgjsRadialGradient1061&quot;)"></circle>
        <circle r="25" cx="758.84" cy="872.58" fill="url(&quot;#SvgjsRadialGradient1061&quot;)"></circle>
        <circle r="25" cx="756.95" cy="992.67" fill="url(&quot;#SvgjsRadialGradient1061&quot;)"></circle>
        <circle r="25" cx="869.12" cy="42.14" fill="url(&quot;#SvgjsRadialGradient1061&quot;)"></circle>
        <circle r="25" cx="864.81" cy="322.63" fill="url(&quot;#SvgjsRadialGradient1061&quot;)"></circle>
        <circle r="5" cx="-65.99" cy="1121.91" fill="#8b9ad9"></circle>
        <circle r="5" cx="85.4" cy="896.46" fill="#8b9ad9"></circle>
        <circle r="5" cx="85.88" cy="986.87" fill="#8b9ad9"></circle>
        <circle r="5" cx="231.42" cy="864.67" fill="#8b9ad9"></circle>
        <circle r="5" cx="223.8" cy="1033.64" fill="#8b9ad9"></circle>
        <circle r="5" cx="190.76" cy="1154.98" fill="#8b9ad9"></circle>
        <circle r="5" cx="334.38" cy="854.52" fill="#8b9ad9"></circle>
        <circle r="5" cx="350" cy="989.86" fill="#8b9ad9"></circle>
        <circle r="5" cx="330.39" cy="1162.04" fill="#8b9ad9"></circle>
        <circle r="5" cx="498.2" cy="591.86" fill="#8b9ad9"></circle>
        <circle r="5" cx="476.1" cy="739.01" fill="#8b9ad9"></circle>
        <circle r="5" cx="459.82" cy="885.26" fill="#8b9ad9"></circle>
        <circle r="5" cx="481.87" cy="991.86" fill="#8b9ad9"></circle>
        <circle r="5" cx="462.6" cy="1158.53" fill="#8b9ad9"></circle>
        <circle r="5" cx="598.28" cy="591.9" fill="#8b9ad9"></circle>
        <circle r="5" cx="582.73" cy="768.09" fill="#8b9ad9"></circle>
        <circle r="5" cx="608.43" cy="1001.16" fill="#8b9ad9"></circle>
        <circle r="5" cx="593" cy="1129.88" fill="#8b9ad9"></circle>
        <circle r="5" cx="753.72" cy="87.37" fill="#8b9ad9"></circle>
        <circle r="5" cx="764.51" cy="370.42" fill="#8b9ad9"></circle>
        <circle r="5" cx="764.78" cy="443.22" fill="#8b9ad9"></circle>
        <circle r="5" cx="751.56" cy="631.89" fill="#8b9ad9"></circle>
        <circle r="5" cx="744.49" cy="1119.62" fill="#8b9ad9"></circle>
        <circle r="5" cx="892" cy="-65.43" fill="#8b9ad9"></circle>
        <circle r="5" cx="897.48" cy="206.78" fill="#8b9ad9"></circle>
        <circle r="5" cx="856.81" cy="606.51" fill="#8b9ad9"></circle>
        <circle r="5" cx="872.32" cy="754.27" fill="#8b9ad9"></circle>
        <circle r="5" cx="882.31" cy="881.28" fill="#8b9ad9"></circle>
        <circle r="5" cx="904.4" cy="1005.49" fill="#8b9ad9"></circle>
        <circle r="5" cx="899.23" cy="1175.66" fill="#8b9ad9"></circle>
    </g>
    <defs>
        <mask id="SvgjsMask1060">
            <rect width="767" height="1080" fill="#ffffff"></rect>
        </mask>
        <radialGradient id="SvgjsRadialGradient1061">
            <stop stop-color="#ffffff" offset="0.1"></stop>
            <stop stop-color="#1735b3" offset="0.2"></stop>
            <stop stop-color="rgba(23, 53, 179, 0)" offset="1"></stop>
        </radialGradient>
    </defs>
</svg>