<svg xmlns="http://www.w3.org/2000/svg" version="1.1" xmlns:xlink="http://www.w3.org/1999/xlink" xmlns:svgjs="http://svgjs.dev/svgjs" width="1440" height="560" preserveAspectRatio="none" viewBox="0 0 1440 560"><g mask="url(&quot;#SvgjsMask1686&quot;)" fill="none"><rect width="1440" height="560" x="0" y="0" fill="url(&quot;#SvgjsLinearGradient1687&quot;)"></rect><path d="M1102.9360179428822 418.59208382573917L1088.7027336601436 534.5128818322092 1204.6235316666136 548.746166114948 1218.8568159493523 432.8253681084779z" fill="rgba(192, 192, 192, 0.65)" class="triangle-float3"></path><path d="M553.91766532127 308.03989061504745L695.7462071007737 245.05564608922958 587.4065072265387 163.4158264620786z" fill="rgba(192, 192, 192, 0.65)" class="triangle-float1"></path><path d="M262.681,497.376C295.171,495.896,326.704,482.142,342.588,453.76C358.145,425.963,351.749,392.957,336.887,364.783C320.714,334.124,297.343,302.488,262.681,302.278C227.793,302.067,204.57,333.791,186.903,363.876C168.92,394.499,151.549,430.782,169.08,461.666C186.748,492.792,226.927,499.005,262.681,497.376" fill="rgba(192, 192, 192, 0.65)" class="triangle-float3"></path><path d="M833.149,591.805C886.382,592.172,928.255,549.909,952.399,502.465C974.236,459.555,971.83,409.138,947.144,367.801C923.105,327.548,880.031,303.326,833.149,302.783C785.267,302.229,738.757,323.828,714.489,365.108C689.91,406.917,694.222,457.871,716.713,500.84C741.193,547.609,780.362,591.441,833.149,591.805" fill="rgba(192, 192, 192, 0.65)" class="triangle-float3"></path></g><defs><mask id="SvgjsMask1686"><rect width="1440" height="560" fill="#ffffff"></rect></mask><linearGradient x1="15.28%" y1="-39.29%" x2="84.72%" y2="139.29%" gradientUnits="userSpaceOnUse" id="SvgjsLinearGradient1687"><stop stop-color="#0e2a47" offset="0"></stop><stop stop-color="rgba(15, 73, 148, 1)" offset="1"></stop></linearGradient><style>
                @keyframes float1 {
                    0%{transform: translate(0, 0)}
                    50%{transform: translate(-10px, 0)}
                    100%{transform: translate(0, 0)}
                }

                .triangle-float1 {
                    animation: float1 5s infinite;
                }

                @keyframes float2 {
                    0%{transform: translate(0, 0)}
                    50%{transform: translate(-5px, -5px)}
                    100%{transform: translate(0, 0)}
                }

                .triangle-float2 {
                    animation: float2 4s infinite;
                }

                @keyframes float3 {
                    0%{transform: translate(0, 0)}
                    50%{transform: translate(0, -10px)}
                    100%{transform: translate(0, 0)}
                }

                .triangle-float3 {
                    animation: float3 6s infinite;
                }
            </style></defs></svg>