<svg xmlns="http://www.w3.org/2000/svg" version="1.1" xmlns:xlink="http://www.w3.org/1999/xlink" xmlns:svgjs="http://svgjs.dev/svgjs" width="1536" height="736" preserveAspectRatio="none" viewBox="0 0 1536 736"><g mask="url(&quot;#SvgjsMask1012&quot;)" fill="none"><path d="M26.68 -31.12L91.63 6.38L91.63 81.38L26.68 118.88L-38.27 81.38L-38.27 6.38zM91.63 756.38L156.59 793.88L156.59 868.88L91.63 906.38L26.68 868.88L26.68 793.88zM156.59 -31.12L221.54 6.38L221.54 81.38L156.59 118.88L91.63 81.38L91.63 6.38zM221.54 81.38L286.5 118.88L286.5 193.88L221.54 231.38L156.59 193.88L156.59 118.88zM221.54 531.38L286.5 568.88L286.5 643.88L221.54 681.38L156.59 643.88L156.59 568.88zM286.5 193.88L351.45 231.38L351.45 306.38L286.5 343.88L221.54 306.38L221.54 231.38zM286.5 643.88L351.45 681.38L351.45 756.38L286.5 793.88L221.54 756.38L221.54 681.38zM416.4 -31.12L481.36 6.38L481.36 81.38L416.4 118.88L351.45 81.38L351.45 6.38zM481.36 81.38L546.31 118.88L546.31 193.88L481.36 231.38L416.4 193.88L416.4 118.88zM481.36 306.38L546.31 343.88L546.31 418.88L481.36 456.38L416.4 418.88L416.4 343.88zM416.4 418.88L481.36 456.38L481.36 531.38L416.4 568.88L351.45 531.38L351.45 456.38zM481.36 531.38L546.31 568.88L546.31 643.88L481.36 681.38L416.4 643.88L416.4 568.88zM611.26 81.38L676.22 118.88L676.22 193.88L611.26 231.38L546.31 193.88L546.31 118.88zM611.26 306.38L676.22 343.88L676.22 418.88L611.26 456.38L546.31 418.88L546.31 343.88zM546.31 418.88L611.26 456.38L611.26 531.38L546.31 568.88L481.36 531.38L481.36 456.38zM611.26 756.38L676.22 793.88L676.22 868.88L611.26 906.38L546.31 868.88L546.31 793.88zM741.17 531.38L806.13 568.88L806.13 643.88L741.17 681.38L676.22 643.88L676.22 568.88zM806.12 418.88L871.08 456.38L871.08 531.38L806.12 568.88L741.17 531.38L741.17 456.38zM806.12 643.88L871.08 681.38L871.08 756.38L806.12 793.88L741.17 756.38L741.17 681.38zM1000.99 81.38L1065.94 118.88L1065.94 193.88L1000.99 231.38L936.03 193.88L936.03 118.88zM1000.99 306.38L1065.94 343.88L1065.94 418.88L1000.99 456.38L936.03 418.88L936.03 343.88zM936.03 418.88L1000.99 456.38L1000.99 531.38L936.03 568.88L871.08 531.38L871.08 456.38zM936.03 643.88L1000.99 681.38L1000.99 756.38L936.03 793.88L871.08 756.38L871.08 681.38zM1065.94 193.88L1130.89 231.38L1130.89 306.38L1065.94 343.88L1000.99 306.38L1000.99 231.38zM1065.94 643.88L1130.89 681.38L1130.89 756.38L1065.94 793.88L1000.99 756.38L1000.99 681.38zM1260.8 306.38L1325.75 343.88L1325.75 418.88L1260.8 456.38L1195.85 418.88L1195.85 343.88zM1260.8 531.38L1325.75 568.88L1325.75 643.88L1260.8 681.38L1195.85 643.88L1195.85 568.88zM1260.8 756.38L1325.75 793.88L1325.75 868.88L1260.8 906.38L1195.85 868.88L1195.85 793.88zM1325.76 -31.12L1390.71 6.38L1390.71 81.38L1325.76 118.88L1260.8 81.38L1260.8 6.38zM1390.71 81.38L1455.66 118.88L1455.66 193.88L1390.71 231.38L1325.76 193.88L1325.76 118.88zM1325.76 193.88L1390.71 231.38L1390.71 306.38L1325.76 343.88L1260.8 306.38L1260.8 231.38zM1390.71 306.38L1455.66 343.88L1455.66 418.88L1390.71 456.38L1325.76 418.88L1325.76 343.88zM1390.71 531.38L1455.66 568.88L1455.66 643.88L1390.71 681.38L1325.76 643.88L1325.76 568.88zM1390.71 756.38L1455.66 793.88L1455.66 868.88L1390.71 906.38L1325.76 868.88L1325.76 793.88zM1520.62 81.38L1585.57 118.88L1585.57 193.88L1520.62 231.38L1455.66 193.88L1455.66 118.88zM1520.62 306.38L1585.57 343.88L1585.57 418.88L1520.62 456.38L1455.66 418.88L1455.66 343.88zM1455.66 418.88L1520.62 456.38L1520.62 531.38L1455.66 568.88L1390.71 531.38L1390.71 456.38zM1520.62 531.38L1585.57 568.88L1585.57 643.88L1520.62 681.38L1455.66 643.88L1455.66 568.88z" stroke="#03305d" stroke-width="2"></path><path d="M19.18 -31.12 a7.5 7.5 0 1 0 15 0 a7.5 7.5 0 1 0 -15 0zM84.13 6.38 a7.5 7.5 0 1 0 15 0 a7.5 7.5 0 1 0 -15 0zM84.13 81.38 a7.5 7.5 0 1 0 15 0 a7.5 7.5 0 1 0 -15 0zM19.18 118.88 a7.5 7.5 0 1 0 15 0 a7.5 7.5 0 1 0 -15 0zM-45.77 81.38 a7.5 7.5 0 1 0 15 0 a7.5 7.5 0 1 0 -15 0zM-45.77 6.38 a7.5 7.5 0 1 0 15 0 a7.5 7.5 0 1 0 -15 0zM84.13 756.38 a7.5 7.5 0 1 0 15 0 a7.5 7.5 0 1 0 -15 0zM149.09 793.88 a7.5 7.5 0 1 0 15 0 a7.5 7.5 0 1 0 -15 0zM149.09 868.88 a7.5 7.5 0 1 0 15 0 a7.5 7.5 0 1 0 -15 0zM84.13 906.38 a7.5 7.5 0 1 0 15 0 a7.5 7.5 0 1 0 -15 0zM19.18 868.88 a7.5 7.5 0 1 0 15 0 a7.5 7.5 0 1 0 -15 0zM19.18 793.88 a7.5 7.5 0 1 0 15 0 a7.5 7.5 0 1 0 -15 0zM149.09 -31.12 a7.5 7.5 0 1 0 15 0 a7.5 7.5 0 1 0 -15 0zM214.04 6.38 a7.5 7.5 0 1 0 15 0 a7.5 7.5 0 1 0 -15 0zM214.04 81.38 a7.5 7.5 0 1 0 15 0 a7.5 7.5 0 1 0 -15 0zM149.09 118.88 a7.5 7.5 0 1 0 15 0 a7.5 7.5 0 1 0 -15 0zM279 118.88 a7.5 7.5 0 1 0 15 0 a7.5 7.5 0 1 0 -15 0zM279 193.88 a7.5 7.5 0 1 0 15 0 a7.5 7.5 0 1 0 -15 0zM214.04 231.38 a7.5 7.5 0 1 0 15 0 a7.5 7.5 0 1 0 -15 0zM149.09 193.88 a7.5 7.5 0 1 0 15 0 a7.5 7.5 0 1 0 -15 0zM214.04 531.38 a7.5 7.5 0 1 0 15 0 a7.5 7.5 0 1 0 -15 0zM279 568.88 a7.5 7.5 0 1 0 15 0 a7.5 7.5 0 1 0 -15 0zM279 643.88 a7.5 7.5 0 1 0 15 0 a7.5 7.5 0 1 0 -15 0zM214.04 681.38 a7.5 7.5 0 1 0 15 0 a7.5 7.5 0 1 0 -15 0zM149.09 643.88 a7.5 7.5 0 1 0 15 0 a7.5 7.5 0 1 0 -15 0zM149.09 568.88 a7.5 7.5 0 1 0 15 0 a7.5 7.5 0 1 0 -15 0zM343.95 231.38 a7.5 7.5 0 1 0 15 0 a7.5 7.5 0 1 0 -15 0zM343.95 306.38 a7.5 7.5 0 1 0 15 0 a7.5 7.5 0 1 0 -15 0zM279 343.88 a7.5 7.5 0 1 0 15 0 a7.5 7.5 0 1 0 -15 0zM214.04 306.38 a7.5 7.5 0 1 0 15 0 a7.5 7.5 0 1 0 -15 0zM343.95 681.38 a7.5 7.5 0 1 0 15 0 a7.5 7.5 0 1 0 -15 0zM343.95 756.38 a7.5 7.5 0 1 0 15 0 a7.5 7.5 0 1 0 -15 0zM279 793.88 a7.5 7.5 0 1 0 15 0 a7.5 7.5 0 1 0 -15 0zM214.04 756.38 a7.5 7.5 0 1 0 15 0 a7.5 7.5 0 1 0 -15 0zM408.9 -31.12 a7.5 7.5 0 1 0 15 0 a7.5 7.5 0 1 0 -15 0zM473.86 6.38 a7.5 7.5 0 1 0 15 0 a7.5 7.5 0 1 0 -15 0zM473.86 81.38 a7.5 7.5 0 1 0 15 0 a7.5 7.5 0 1 0 -15 0zM408.9 118.88 a7.5 7.5 0 1 0 15 0 a7.5 7.5 0 1 0 -15 0zM343.95 81.38 a7.5 7.5 0 1 0 15 0 a7.5 7.5 0 1 0 -15 0zM343.95 6.38 a7.5 7.5 0 1 0 15 0 a7.5 7.5 0 1 0 -15 0zM538.81 118.88 a7.5 7.5 0 1 0 15 0 a7.5 7.5 0 1 0 -15 0zM538.81 193.88 a7.5 7.5 0 1 0 15 0 a7.5 7.5 0 1 0 -15 0zM473.86 231.38 a7.5 7.5 0 1 0 15 0 a7.5 7.5 0 1 0 -15 0zM408.9 193.88 a7.5 7.5 0 1 0 15 0 a7.5 7.5 0 1 0 -15 0zM473.86 306.38 a7.5 7.5 0 1 0 15 0 a7.5 7.5 0 1 0 -15 0zM538.81 343.88 a7.5 7.5 0 1 0 15 0 a7.5 7.5 0 1 0 -15 0zM538.81 418.88 a7.5 7.5 0 1 0 15 0 a7.5 7.5 0 1 0 -15 0zM473.86 456.38 a7.5 7.5 0 1 0 15 0 a7.5 7.5 0 1 0 -15 0zM408.9 418.88 a7.5 7.5 0 1 0 15 0 a7.5 7.5 0 1 0 -15 0zM408.9 343.88 a7.5 7.5 0 1 0 15 0 a7.5 7.5 0 1 0 -15 0zM473.86 531.38 a7.5 7.5 0 1 0 15 0 a7.5 7.5 0 1 0 -15 0zM408.9 568.88 a7.5 7.5 0 1 0 15 0 a7.5 7.5 0 1 0 -15 0zM343.95 531.38 a7.5 7.5 0 1 0 15 0 a7.5 7.5 0 1 0 -15 0zM343.95 456.38 a7.5 7.5 0 1 0 15 0 a7.5 7.5 0 1 0 -15 0zM538.81 568.88 a7.5 7.5 0 1 0 15 0 a7.5 7.5 0 1 0 -15 0zM538.81 643.88 a7.5 7.5 0 1 0 15 0 a7.5 7.5 0 1 0 -15 0zM473.86 681.38 a7.5 7.5 0 1 0 15 0 a7.5 7.5 0 1 0 -15 0zM408.9 643.88 a7.5 7.5 0 1 0 15 0 a7.5 7.5 0 1 0 -15 0zM603.76 81.38 a7.5 7.5 0 1 0 15 0 a7.5 7.5 0 1 0 -15 0zM668.72 118.88 a7.5 7.5 0 1 0 15 0 a7.5 7.5 0 1 0 -15 0zM668.72 193.88 a7.5 7.5 0 1 0 15 0 a7.5 7.5 0 1 0 -15 0zM603.76 231.38 a7.5 7.5 0 1 0 15 0 a7.5 7.5 0 1 0 -15 0zM603.76 306.38 a7.5 7.5 0 1 0 15 0 a7.5 7.5 0 1 0 -15 0zM668.72 343.88 a7.5 7.5 0 1 0 15 0 a7.5 7.5 0 1 0 -15 0zM668.72 418.88 a7.5 7.5 0 1 0 15 0 a7.5 7.5 0 1 0 -15 0zM603.76 456.38 a7.5 7.5 0 1 0 15 0 a7.5 7.5 0 1 0 -15 0zM603.76 531.38 a7.5 7.5 0 1 0 15 0 a7.5 7.5 0 1 0 -15 0zM603.76 756.38 a7.5 7.5 0 1 0 15 0 a7.5 7.5 0 1 0 -15 0zM668.72 793.88 a7.5 7.5 0 1 0 15 0 a7.5 7.5 0 1 0 -15 0zM668.72 868.88 a7.5 7.5 0 1 0 15 0 a7.5 7.5 0 1 0 -15 0zM603.76 906.38 a7.5 7.5 0 1 0 15 0 a7.5 7.5 0 1 0 -15 0zM538.81 868.88 a7.5 7.5 0 1 0 15 0 a7.5 7.5 0 1 0 -15 0zM538.81 793.88 a7.5 7.5 0 1 0 15 0 a7.5 7.5 0 1 0 -15 0zM733.67 531.38 a7.5 7.5 0 1 0 15 0 a7.5 7.5 0 1 0 -15 0zM798.63 568.88 a7.5 7.5 0 1 0 15 0 a7.5 7.5 0 1 0 -15 0zM798.63 643.88 a7.5 7.5 0 1 0 15 0 a7.5 7.5 0 1 0 -15 0zM733.67 681.38 a7.5 7.5 0 1 0 15 0 a7.5 7.5 0 1 0 -15 0zM668.72 643.88 a7.5 7.5 0 1 0 15 0 a7.5 7.5 0 1 0 -15 0zM668.72 568.88 a7.5 7.5 0 1 0 15 0 a7.5 7.5 0 1 0 -15 0zM798.62 418.88 a7.5 7.5 0 1 0 15 0 a7.5 7.5 0 1 0 -15 0zM863.58 456.38 a7.5 7.5 0 1 0 15 0 a7.5 7.5 0 1 0 -15 0zM863.58 531.38 a7.5 7.5 0 1 0 15 0 a7.5 7.5 0 1 0 -15 0zM798.62 568.88 a7.5 7.5 0 1 0 15 0 a7.5 7.5 0 1 0 -15 0zM733.67 456.38 a7.5 7.5 0 1 0 15 0 a7.5 7.5 0 1 0 -15 0zM798.62 643.88 a7.5 7.5 0 1 0 15 0 a7.5 7.5 0 1 0 -15 0zM863.58 681.38 a7.5 7.5 0 1 0 15 0 a7.5 7.5 0 1 0 -15 0zM863.58 756.38 a7.5 7.5 0 1 0 15 0 a7.5 7.5 0 1 0 -15 0zM798.62 793.88 a7.5 7.5 0 1 0 15 0 a7.5 7.5 0 1 0 -15 0zM733.67 756.38 a7.5 7.5 0 1 0 15 0 a7.5 7.5 0 1 0 -15 0zM993.49 81.38 a7.5 7.5 0 1 0 15 0 a7.5 7.5 0 1 0 -15 0zM1058.44 118.88 a7.5 7.5 0 1 0 15 0 a7.5 7.5 0 1 0 -15 0zM1058.44 193.88 a7.5 7.5 0 1 0 15 0 a7.5 7.5 0 1 0 -15 0zM993.49 231.38 a7.5 7.5 0 1 0 15 0 a7.5 7.5 0 1 0 -15 0zM928.53 193.88 a7.5 7.5 0 1 0 15 0 a7.5 7.5 0 1 0 -15 0zM928.53 118.88 a7.5 7.5 0 1 0 15 0 a7.5 7.5 0 1 0 -15 0zM993.49 306.38 a7.5 7.5 0 1 0 15 0 a7.5 7.5 0 1 0 -15 0zM1058.44 343.88 a7.5 7.5 0 1 0 15 0 a7.5 7.5 0 1 0 -15 0zM1058.44 418.88 a7.5 7.5 0 1 0 15 0 a7.5 7.5 0 1 0 -15 0zM993.49 456.38 a7.5 7.5 0 1 0 15 0 a7.5 7.5 0 1 0 -15 0zM928.53 418.88 a7.5 7.5 0 1 0 15 0 a7.5 7.5 0 1 0 -15 0zM928.53 343.88 a7.5 7.5 0 1 0 15 0 a7.5 7.5 0 1 0 -15 0zM993.49 531.38 a7.5 7.5 0 1 0 15 0 a7.5 7.5 0 1 0 -15 0zM928.53 568.88 a7.5 7.5 0 1 0 15 0 a7.5 7.5 0 1 0 -15 0zM928.53 643.88 a7.5 7.5 0 1 0 15 0 a7.5 7.5 0 1 0 -15 0zM993.49 681.38 a7.5 7.5 0 1 0 15 0 a7.5 7.5 0 1 0 -15 0zM993.49 756.38 a7.5 7.5 0 1 0 15 0 a7.5 7.5 0 1 0 -15 0zM928.53 793.88 a7.5 7.5 0 1 0 15 0 a7.5 7.5 0 1 0 -15 0zM1123.39 231.38 a7.5 7.5 0 1 0 15 0 a7.5 7.5 0 1 0 -15 0zM1123.39 306.38 a7.5 7.5 0 1 0 15 0 a7.5 7.5 0 1 0 -15 0zM1058.44 643.88 a7.5 7.5 0 1 0 15 0 a7.5 7.5 0 1 0 -15 0zM1123.39 681.38 a7.5 7.5 0 1 0 15 0 a7.5 7.5 0 1 0 -15 0zM1123.39 756.38 a7.5 7.5 0 1 0 15 0 a7.5 7.5 0 1 0 -15 0zM1058.44 793.88 a7.5 7.5 0 1 0 15 0 a7.5 7.5 0 1 0 -15 0zM1253.3 306.38 a7.5 7.5 0 1 0 15 0 a7.5 7.5 0 1 0 -15 0zM1318.25 343.88 a7.5 7.5 0 1 0 15 0 a7.5 7.5 0 1 0 -15 0zM1318.25 418.88 a7.5 7.5 0 1 0 15 0 a7.5 7.5 0 1 0 -15 0zM1253.3 456.38 a7.5 7.5 0 1 0 15 0 a7.5 7.5 0 1 0 -15 0zM1188.35 418.88 a7.5 7.5 0 1 0 15 0 a7.5 7.5 0 1 0 -15 0zM1188.35 343.88 a7.5 7.5 0 1 0 15 0 a7.5 7.5 0 1 0 -15 0zM1253.3 531.38 a7.5 7.5 0 1 0 15 0 a7.5 7.5 0 1 0 -15 0zM1318.25 568.88 a7.5 7.5 0 1 0 15 0 a7.5 7.5 0 1 0 -15 0zM1318.25 643.88 a7.5 7.5 0 1 0 15 0 a7.5 7.5 0 1 0 -15 0zM1253.3 681.38 a7.5 7.5 0 1 0 15 0 a7.5 7.5 0 1 0 -15 0zM1188.35 643.88 a7.5 7.5 0 1 0 15 0 a7.5 7.5 0 1 0 -15 0zM1188.35 568.88 a7.5 7.5 0 1 0 15 0 a7.5 7.5 0 1 0 -15 0zM1253.3 756.38 a7.5 7.5 0 1 0 15 0 a7.5 7.5 0 1 0 -15 0zM1318.25 793.88 a7.5 7.5 0 1 0 15 0 a7.5 7.5 0 1 0 -15 0zM1318.25 868.88 a7.5 7.5 0 1 0 15 0 a7.5 7.5 0 1 0 -15 0zM1253.3 906.38 a7.5 7.5 0 1 0 15 0 a7.5 7.5 0 1 0 -15 0zM1188.35 868.88 a7.5 7.5 0 1 0 15 0 a7.5 7.5 0 1 0 -15 0zM1188.35 793.88 a7.5 7.5 0 1 0 15 0 a7.5 7.5 0 1 0 -15 0zM1318.26 -31.12 a7.5 7.5 0 1 0 15 0 a7.5 7.5 0 1 0 -15 0zM1383.21 6.38 a7.5 7.5 0 1 0 15 0 a7.5 7.5 0 1 0 -15 0zM1383.21 81.38 a7.5 7.5 0 1 0 15 0 a7.5 7.5 0 1 0 -15 0zM1318.26 118.88 a7.5 7.5 0 1 0 15 0 a7.5 7.5 0 1 0 -15 0zM1253.3 81.38 a7.5 7.5 0 1 0 15 0 a7.5 7.5 0 1 0 -15 0zM1253.3 6.38 a7.5 7.5 0 1 0 15 0 a7.5 7.5 0 1 0 -15 0zM1448.16 118.88 a7.5 7.5 0 1 0 15 0 a7.5 7.5 0 1 0 -15 0zM1448.16 193.88 a7.5 7.5 0 1 0 15 0 a7.5 7.5 0 1 0 -15 0zM1383.21 231.38 a7.5 7.5 0 1 0 15 0 a7.5 7.5 0 1 0 -15 0zM1318.26 193.88 a7.5 7.5 0 1 0 15 0 a7.5 7.5 0 1 0 -15 0zM1383.21 306.38 a7.5 7.5 0 1 0 15 0 a7.5 7.5 0 1 0 -15 0zM1318.26 343.88 a7.5 7.5 0 1 0 15 0 a7.5 7.5 0 1 0 -15 0zM1253.3 231.38 a7.5 7.5 0 1 0 15 0 a7.5 7.5 0 1 0 -15 0zM1448.16 343.88 a7.5 7.5 0 1 0 15 0 a7.5 7.5 0 1 0 -15 0zM1448.16 418.88 a7.5 7.5 0 1 0 15 0 a7.5 7.5 0 1 0 -15 0zM1383.21 456.38 a7.5 7.5 0 1 0 15 0 a7.5 7.5 0 1 0 -15 0zM1318.26 418.88 a7.5 7.5 0 1 0 15 0 a7.5 7.5 0 1 0 -15 0zM1383.21 531.38 a7.5 7.5 0 1 0 15 0 a7.5 7.5 0 1 0 -15 0zM1448.16 568.88 a7.5 7.5 0 1 0 15 0 a7.5 7.5 0 1 0 -15 0zM1448.16 643.88 a7.5 7.5 0 1 0 15 0 a7.5 7.5 0 1 0 -15 0zM1383.21 681.38 a7.5 7.5 0 1 0 15 0 a7.5 7.5 0 1 0 -15 0zM1318.26 643.88 a7.5 7.5 0 1 0 15 0 a7.5 7.5 0 1 0 -15 0zM1318.26 568.88 a7.5 7.5 0 1 0 15 0 a7.5 7.5 0 1 0 -15 0zM1383.21 756.38 a7.5 7.5 0 1 0 15 0 a7.5 7.5 0 1 0 -15 0zM1448.16 793.88 a7.5 7.5 0 1 0 15 0 a7.5 7.5 0 1 0 -15 0zM1448.16 868.88 a7.5 7.5 0 1 0 15 0 a7.5 7.5 0 1 0 -15 0zM1383.21 906.38 a7.5 7.5 0 1 0 15 0 a7.5 7.5 0 1 0 -15 0zM1318.26 868.88 a7.5 7.5 0 1 0 15 0 a7.5 7.5 0 1 0 -15 0zM1318.26 793.88 a7.5 7.5 0 1 0 15 0 a7.5 7.5 0 1 0 -15 0zM1513.12 81.38 a7.5 7.5 0 1 0 15 0 a7.5 7.5 0 1 0 -15 0zM1578.07 118.88 a7.5 7.5 0 1 0 15 0 a7.5 7.5 0 1 0 -15 0zM1578.07 193.88 a7.5 7.5 0 1 0 15 0 a7.5 7.5 0 1 0 -15 0zM1513.12 231.38 a7.5 7.5 0 1 0 15 0 a7.5 7.5 0 1 0 -15 0zM1513.12 306.38 a7.5 7.5 0 1 0 15 0 a7.5 7.5 0 1 0 -15 0zM1578.07 343.88 a7.5 7.5 0 1 0 15 0 a7.5 7.5 0 1 0 -15 0zM1578.07 418.88 a7.5 7.5 0 1 0 15 0 a7.5 7.5 0 1 0 -15 0zM1513.12 456.38 a7.5 7.5 0 1 0 15 0 a7.5 7.5 0 1 0 -15 0zM1513.12 531.38 a7.5 7.5 0 1 0 15 0 a7.5 7.5 0 1 0 -15 0zM1578.07 568.88 a7.5 7.5 0 1 0 15 0 a7.5 7.5 0 1 0 -15 0zM1578.07 643.88 a7.5 7.5 0 1 0 15 0 a7.5 7.5 0 1 0 -15 0zM1513.12 681.38 a7.5 7.5 0 1 0 15 0 a7.5 7.5 0 1 0 -15 0z" fill="#03305d"></path><path d="M47.56 477.62L90.87 502.62L90.87 552.62L47.56 577.62L4.26 552.62L4.26 502.62zM47.56 627.62L90.87 652.62L90.87 702.62L47.56 727.62L4.26 702.62L4.26 652.62zM4.26 702.62L47.56 727.62L47.56 777.62L4.26 802.62L-39.04 777.62L-39.04 727.62zM90.87 252.62L134.17 277.62L134.17 327.62L90.87 352.62L47.56 327.62L47.56 277.62zM134.17 327.62L177.47 352.62L177.47 402.62L134.17 427.62L90.87 402.62L90.87 352.62zM90.87 402.62L134.17 427.62L134.17 477.62L90.87 502.62L47.56 477.62L47.56 427.62zM90.87 552.62L134.17 577.62L134.17 627.62L90.87 652.62L47.56 627.62L47.56 577.62zM177.47 252.62L220.77 277.62L220.77 327.62L177.47 352.62L134.17 327.62L134.17 277.62zM177.47 402.62L220.77 427.62L220.77 477.62L177.47 502.62L134.17 477.62L134.17 427.62zM220.77 477.62L264.07 502.62L264.07 552.62L220.77 577.62L177.47 552.62L177.47 502.62zM177.47 552.62L220.77 577.62L220.77 627.62L177.47 652.62L134.17 627.62L134.17 577.62zM220.77 627.62L264.07 652.62L264.07 702.62L220.77 727.62L177.47 702.62L177.47 652.62zM177.47 702.62L220.77 727.62L220.77 777.62L177.47 802.62L134.17 777.62L134.17 727.62zM307.38 177.62L350.68 202.62L350.68 252.62L307.38 277.62L264.07 252.62L264.07 202.62zM264.07 252.62L307.38 277.62L307.38 327.62L264.07 352.62L220.77 327.62L220.77 277.62zM264.07 402.62L307.38 427.62L307.38 477.62L264.07 502.62L220.77 477.62L220.77 427.62zM307.38 477.62L350.68 502.62L350.68 552.62L307.38 577.62L264.07 552.62L264.07 502.62zM393.98 27.62L437.29 52.62L437.29 102.62L393.98 127.62L350.68 102.62L350.68 52.62zM350.68 102.62L393.98 127.62L393.98 177.62L350.68 202.62L307.38 177.62L307.38 127.62zM393.98 177.62L437.29 202.62L437.29 252.62L393.98 277.62L350.68 252.62L350.68 202.62zM393.98 327.62L437.29 352.62L437.29 402.62L393.98 427.62L350.68 402.62L350.68 352.62zM350.68 402.62L393.98 427.62L393.98 477.62L350.68 502.62L307.38 477.62L307.38 427.62zM480.59 27.62L523.89 52.62L523.89 102.62L480.59 127.62L437.29 102.62L437.29 52.62zM437.29 102.62L480.59 127.62L480.59 177.62L437.29 202.62L393.98 177.62L393.98 127.62zM480.59 177.62L523.89 202.62L523.89 252.62L480.59 277.62L437.29 252.62L437.29 202.62zM437.29 252.62L480.59 277.62L480.59 327.62L437.29 352.62L393.98 327.62L393.98 277.62zM480.59 327.62L523.89 352.62L523.89 402.62L480.59 427.62L437.29 402.62L437.29 352.62zM480.59 627.62L523.89 652.62L523.89 702.62L480.59 727.62L437.29 702.62L437.29 652.62zM523.89 102.62L567.19 127.62L567.19 177.62L523.89 202.62L480.59 177.62L480.59 127.62zM523.89 252.62L567.19 277.62L567.19 327.62L523.89 352.62L480.59 327.62L480.59 277.62zM610.5 -47.38L653.8 -22.38L653.8 27.62L610.5 52.62L567.19 27.62L567.19 -22.38zM653.8 177.62L697.1 202.62L697.1 252.62L653.8 277.62L610.5 252.62L610.5 202.62zM610.5 252.62L653.8 277.62L653.8 327.62L610.5 352.62L567.19 327.62L567.19 277.62zM697.1 -47.38L740.4 -22.38L740.4 27.62L697.1 52.62L653.8 27.62L653.8 -22.38zM740.4 27.62L783.71 52.62L783.71 102.62L740.4 127.62L697.1 102.62L697.1 52.62zM697.1 252.62L740.4 277.62L740.4 327.62L697.1 352.62L653.8 327.62L653.8 277.62zM697.1 402.62L740.4 427.62L740.4 477.62L697.1 502.62L653.8 477.62L653.8 427.62zM740.4 477.62L783.71 502.62L783.71 552.62L740.4 577.62L697.1 552.62L697.1 502.62zM827.01 27.62L870.31 52.62L870.31 102.62L827.01 127.62L783.71 102.62L783.71 52.62zM783.71 402.62L827.01 427.62L827.01 477.62L783.71 502.62L740.4 477.62L740.4 427.62zM783.71 552.62L827.01 577.62L827.01 627.62L783.71 652.62L740.4 627.62L740.4 577.62zM827.01 627.62L870.31 652.62L870.31 702.62L827.01 727.62L783.71 702.62L783.71 652.62zM870.31 -47.38L913.61 -22.38L913.61 27.62L870.31 52.62L827.01 27.62L827.01 -22.38zM913.61 177.62L956.92 202.62L956.92 252.62L913.61 277.62L870.31 252.62L870.31 202.62zM913.61 327.62L956.92 352.62L956.92 402.62L913.61 427.62L870.31 402.62L870.31 352.62zM913.61 627.62L956.92 652.62L956.92 702.62L913.61 727.62L870.31 702.62L870.31 652.62zM870.31 702.62L913.61 727.62L913.61 777.62L870.31 802.62L827.01 777.62L827.01 727.62zM1000.22 27.62L1043.52 52.62L1043.52 102.62L1000.22 127.62L956.92 102.62L956.92 52.62zM956.92 552.62L1000.22 577.62L1000.22 627.62L956.92 652.62L913.61 627.62L913.61 577.62zM1086.82 27.62L1130.13 52.62L1130.13 102.62L1086.82 127.62L1043.52 102.62L1043.52 52.62zM1043.52 102.62L1086.82 127.62L1086.82 177.62L1043.52 202.62L1000.22 177.62L1000.22 127.62zM1043.52 402.62L1086.82 427.62L1086.82 477.62L1043.52 502.62L1000.22 477.62L1000.22 427.62zM1086.82 477.62L1130.13 502.62L1130.13 552.62L1086.82 577.62L1043.52 552.62L1043.52 502.62zM1043.52 552.62L1086.82 577.62L1086.82 627.62L1043.52 652.62L1000.22 627.62L1000.22 577.62zM1086.82 627.62L1130.13 652.62L1130.13 702.62L1086.82 727.62L1043.52 702.62L1043.52 652.62zM1130.13 -47.38L1173.43 -22.38L1173.43 27.62L1130.13 52.62L1086.82 27.62L1086.82 -22.38zM1173.43 177.62L1216.73 202.62L1216.73 252.62L1173.43 277.62L1130.13 252.62L1130.13 202.62zM1173.43 327.62L1216.73 352.62L1216.73 402.62L1173.43 427.62L1130.13 402.62L1130.13 352.62zM1173.43 477.62L1216.73 502.62L1216.73 552.62L1173.43 577.62L1130.13 552.62L1130.13 502.62zM1260.03 27.62L1303.34 52.62L1303.34 102.62L1260.03 127.62L1216.73 102.62L1216.73 52.62zM1260.03 327.62L1303.34 352.62L1303.34 402.62L1260.03 427.62L1216.73 402.62L1216.73 352.62zM1216.73 402.62L1260.03 427.62L1260.03 477.62L1216.73 502.62L1173.43 477.62L1173.43 427.62zM1260.03 627.62L1303.34 652.62L1303.34 702.62L1260.03 727.62L1216.73 702.62L1216.73 652.62zM1216.73 702.62L1260.03 727.62L1260.03 777.62L1216.73 802.62L1173.43 777.62L1173.43 727.62zM1303.34 252.62L1346.64 277.62L1346.64 327.62L1303.34 352.62L1260.03 327.62L1260.03 277.62zM1346.64 327.62L1389.94 352.62L1389.94 402.62L1346.64 427.62L1303.34 402.62L1303.34 352.62zM1346.64 477.62L1389.94 502.62L1389.94 552.62L1346.64 577.62L1303.34 552.62L1303.34 502.62zM1346.64 627.62L1389.94 652.62L1389.94 702.62L1346.64 727.62L1303.34 702.62L1303.34 652.62zM1303.34 702.62L1346.64 727.62L1346.64 777.62L1303.34 802.62L1260.03 777.62L1260.03 727.62zM1433.24 27.62L1476.55 52.62L1476.55 102.62L1433.24 127.62L1389.94 102.62L1389.94 52.62zM1389.94 102.62L1433.24 127.62L1433.24 177.62L1389.94 202.62L1346.64 177.62L1346.64 127.62zM1389.94 252.62L1433.24 277.62L1433.24 327.62L1389.94 352.62L1346.64 327.62L1346.64 277.62zM1389.94 552.62L1433.24 577.62L1433.24 627.62L1389.94 652.62L1346.64 627.62L1346.64 577.62zM1389.94 702.62L1433.24 727.62L1433.24 777.62L1389.94 802.62L1346.64 777.62L1346.64 727.62zM1519.85 177.62L1563.15 202.62L1563.15 252.62L1519.85 277.62L1476.55 252.62L1476.55 202.62zM1476.55 402.62L1519.85 427.62L1519.85 477.62L1476.55 502.62L1433.24 477.62L1433.24 427.62zM1519.85 627.62L1563.15 652.62L1563.15 702.62L1519.85 727.62L1476.55 702.62L1476.55 652.62z" stroke="rgba(6, 80, 156, 0.93)" stroke-width="2"></path></g><defs><mask id="SvgjsMask1012"><rect width="1536" height="736" fill="#ffffff"></rect></mask></defs></svg>