<svg xmlns="http://www.w3.org/2000/svg" version="1.1" xmlns:xlink="http://www.w3.org/1999/xlink" xmlns:svgjs="http://svgjs.dev/svgjs" width="1536" height="736" preserveAspectRatio="none" viewBox="0 0 1536 736"><g mask="url(&quot;#SvgjsMask1054&quot;)" fill="none"><path d="M-87.15 546.88L-87.15 546.88" stroke="#132e65" stroke-width="1.5"></path><path d="M-87.15 546.88L-61.73 674.83" stroke="#132e65" stroke-width="1.5"></path><path d="M-87.15 546.88L-46.91 796.74" stroke="#132e65" stroke-width="1.5"></path><path d="M-87.15 546.88L75.55 812.64" stroke="#132e65" stroke-width="1.5"></path><path d="M-61.73 674.83L-61.73 674.83" stroke="#132e65" stroke-width="1.5"></path><path d="M-61.73 674.83L-46.91 796.74" stroke="#132e65" stroke-width="1.5"></path><path d="M-46.91 796.74L-46.91 796.74" stroke="#132e65" stroke-width="1.5"></path><path d="M-46.91 796.74L75.55 812.64" stroke="#132e65" stroke-width="1.5"></path><path d="M-46.91 796.74L221.28 833.16" stroke="#132e65" stroke-width="1.5"></path><path d="M-46.91 796.74L250.14 674.76" stroke="#132e65" stroke-width="1.5"></path><path d="M75.55 812.64L75.55 812.64" stroke="#132e65" stroke-width="1.5"></path><path d="M75.55 812.64L221.28 833.16" stroke="#132e65" stroke-width="1.5"></path><path d="M244.58 537.05L244.58 537.05" stroke="#132e65" stroke-width="1.5"></path><path d="M244.58 537.05L250.14 674.76" stroke="#132e65" stroke-width="1.5"></path><path d="M244.58 537.05L345.68 650.36" stroke="#132e65" stroke-width="1.5"></path><path d="M244.58 537.05L398.76 407.86" stroke="#132e65" stroke-width="1.5"></path><path d="M244.58 537.05L513.26 516.02" stroke="#132e65" stroke-width="1.5"></path><path d="M250.14 674.76L250.14 674.76" stroke="#132e65" stroke-width="1.5"></path><path d="M250.14 674.76L345.68 650.36" stroke="#132e65" stroke-width="1.5"></path><path d="M250.14 674.76L221.28 833.16" stroke="#132e65" stroke-width="1.5"></path><path d="M221.28 833.16L221.28 833.16" stroke="#132e65" stroke-width="1.5"></path><path d="M221.28 833.16L345.68 650.36" stroke="#132e65" stroke-width="1.5"></path><path d="M398.76 407.86L398.76 407.86" stroke="#132e65" stroke-width="1.5"></path><path d="M398.76 407.86L526.34 386.5" stroke="#132e65" stroke-width="1.5"></path><path d="M398.76 407.86L513.26 516.02" stroke="#132e65" stroke-width="1.5"></path><path d="M398.76 407.86L345.68 650.36" stroke="#132e65" stroke-width="1.5"></path><path d="M398.76 407.86L660.75 403.27" stroke="#132e65" stroke-width="1.5"></path><path d="M398.76 407.86L558.69 650.32" stroke="#132e65" stroke-width="1.5"></path><path d="M345.68 650.36L345.68 650.36" stroke="#132e65" stroke-width="1.5"></path><path d="M345.68 650.36L558.69 650.32" stroke="#132e65" stroke-width="1.5"></path><path d="M345.68 650.36L513.26 516.02" stroke="#132e65" stroke-width="1.5"></path><path d="M526.34 386.5L526.34 386.5" stroke="#132e65" stroke-width="1.5"></path><path d="M526.34 386.5L513.26 516.02" stroke="#132e65" stroke-width="1.5"></path><path d="M526.34 386.5L660.75 403.27" stroke="#132e65" stroke-width="1.5"></path><path d="M526.34 386.5L689.16 533.2" stroke="#132e65" stroke-width="1.5"></path><path d="M513.26 516.02L513.26 516.02" stroke="#132e65" stroke-width="1.5"></path><path d="M513.26 516.02L558.69 650.32" stroke="#132e65" stroke-width="1.5"></path><path d="M513.26 516.02L689.16 533.2" stroke="#132e65" stroke-width="1.5"></path><path d="M513.26 516.02L660.75 403.27" stroke="#132e65" stroke-width="1.5"></path><path d="M513.26 516.02L658.11 640.13" stroke="#132e65" stroke-width="1.5"></path><path d="M558.69 650.32L558.69 650.32" stroke="#132e65" stroke-width="1.5"></path><path d="M558.69 650.32L658.11 640.13" stroke="#132e65" stroke-width="1.5"></path><path d="M558.69 650.32L689.16 533.2" stroke="#132e65" stroke-width="1.5"></path><path d="M558.69 650.32L518.75 846.16" stroke="#132e65" stroke-width="1.5"></path><path d="M558.69 650.32L677.89 843.87" stroke="#132e65" stroke-width="1.5"></path><path d="M518.75 846.16L518.75 846.16" stroke="#132e65" stroke-width="1.5"></path><path d="M518.75 846.16L677.89 843.87" stroke="#132e65" stroke-width="1.5"></path><path d="M518.75 846.16L658.11 640.13" stroke="#132e65" stroke-width="1.5"></path><path d="M660.75 403.27L660.75 403.27" stroke="#132e65" stroke-width="1.5"></path><path d="M660.75 403.27L689.16 533.2" stroke="#132e65" stroke-width="1.5"></path><path d="M660.75 403.27L827.9 395.23" stroke="#132e65" stroke-width="1.5"></path><path d="M660.75 403.27L829.98 559.57" stroke="#132e65" stroke-width="1.5"></path><path d="M689.16 533.2L689.16 533.2" stroke="#132e65" stroke-width="1.5"></path><path d="M689.16 533.2L658.11 640.13" stroke="#132e65" stroke-width="1.5"></path><path d="M689.16 533.2L829.98 559.57" stroke="#132e65" stroke-width="1.5"></path><path d="M658.11 640.13L658.11 640.13" stroke="#132e65" stroke-width="1.5"></path><path d="M658.11 640.13L827.63 682.11" stroke="#132e65" stroke-width="1.5"></path><path d="M658.11 640.13L829.98 559.57" stroke="#132e65" stroke-width="1.5"></path><path d="M677.89 843.87L677.89 843.87" stroke="#132e65" stroke-width="1.5"></path><path d="M677.89 843.87L819.35 848.47" stroke="#132e65" stroke-width="1.5"></path><path d="M677.89 843.87L658.11 640.13" stroke="#132e65" stroke-width="1.5"></path><path d="M861.15 216.19L861.15 216.19" stroke="#132e65" stroke-width="1.5"></path><path d="M861.15 216.19L995.49 257.89" stroke="#132e65" stroke-width="1.5"></path><path d="M861.15 216.19L951.51 74.3" stroke="#132e65" stroke-width="1.5"></path><path d="M861.15 216.19L827.9 395.23" stroke="#132e65" stroke-width="1.5"></path><path d="M827.9 395.23L827.9 395.23" stroke="#132e65" stroke-width="1.5"></path><path d="M827.9 395.23L829.98 559.57" stroke="#132e65" stroke-width="1.5"></path><path d="M827.9 395.23L956.41 521.86" stroke="#132e65" stroke-width="1.5"></path><path d="M829.98 559.57L829.98 559.57" stroke="#132e65" stroke-width="1.5"></path><path d="M829.98 559.57L827.63 682.11" stroke="#132e65" stroke-width="1.5"></path><path d="M829.98 559.57L956.41 521.86" stroke="#132e65" stroke-width="1.5"></path><path d="M829.98 559.57L950.35 646.1" stroke="#132e65" stroke-width="1.5"></path><path d="M827.63 682.11L827.63 682.11" stroke="#132e65" stroke-width="1.5"></path><path d="M827.63 682.11L950.35 646.1" stroke="#132e65" stroke-width="1.5"></path><path d="M819.35 848.47L819.35 848.47" stroke="#132e65" stroke-width="1.5"></path><path d="M819.35 848.47L964.43 797.69" stroke="#132e65" stroke-width="1.5"></path><path d="M819.35 848.47L827.63 682.11" stroke="#132e65" stroke-width="1.5"></path><path d="M819.35 848.47L950.35 646.1" stroke="#132e65" stroke-width="1.5"></path><path d="M975.92 -58.29L975.92 -58.29" stroke="#132e65" stroke-width="1.5"></path><path d="M975.92 -58.29L951.51 74.3" stroke="#132e65" stroke-width="1.5"></path><path d="M975.92 -58.29L1127.81 -105.09" stroke="#132e65" stroke-width="1.5"></path><path d="M975.92 -58.29L1147.52 102.61" stroke="#132e65" stroke-width="1.5"></path><path d="M975.92 -58.29L861.15 216.19" stroke="#132e65" stroke-width="1.5"></path><path d="M975.92 -58.29L1277.22 -90.4" stroke="#132e65" stroke-width="1.5"></path><path d="M951.51 74.3L951.51 74.3" stroke="#132e65" stroke-width="1.5"></path><path d="M951.51 74.3L995.49 257.89" stroke="#132e65" stroke-width="1.5"></path><path d="M951.51 74.3L1147.52 102.61" stroke="#132e65" stroke-width="1.5"></path><path d="M951.51 74.3L1127.81 -105.09" stroke="#132e65" stroke-width="1.5"></path><path d="M995.49 257.89L995.49 257.89" stroke="#132e65" stroke-width="1.5"></path><path d="M995.49 257.89L1158.11 255.82" stroke="#132e65" stroke-width="1.5"></path><path d="M995.49 257.89L1122.08 376.69" stroke="#132e65" stroke-width="1.5"></path><path d="M956.41 521.86L956.41 521.86" stroke="#132e65" stroke-width="1.5"></path><path d="M956.41 521.86L950.35 646.1" stroke="#132e65" stroke-width="1.5"></path><path d="M950.35 646.1L950.35 646.1" stroke="#132e65" stroke-width="1.5"></path><path d="M964.43 797.69L964.43 797.69" stroke="#132e65" stroke-width="1.5"></path><path d="M964.43 797.69L950.35 646.1" stroke="#132e65" stroke-width="1.5"></path><path d="M1127.81 -105.09L1127.81 -105.09" stroke="#132e65" stroke-width="1.5"></path><path d="M1127.81 -105.09L1277.22 -90.4" stroke="#132e65" stroke-width="1.5"></path><path d="M1127.81 -105.09L1147.52 102.61" stroke="#132e65" stroke-width="1.5"></path><path d="M1127.81 -105.09L1284.66 97.77" stroke="#132e65" stroke-width="1.5"></path><path d="M1127.81 -105.09L1422.28 63.29" stroke="#132e65" stroke-width="1.5"></path><path d="M1147.52 102.61L1147.52 102.61" stroke="#132e65" stroke-width="1.5"></path><path d="M1147.52 102.61L1284.66 97.77" stroke="#132e65" stroke-width="1.5"></path><path d="M1147.52 102.61L1158.11 255.82" stroke="#132e65" stroke-width="1.5"></path><path d="M1158.11 255.82L1158.11 255.82" stroke="#132e65" stroke-width="1.5"></path><path d="M1158.11 255.82L1122.08 376.69" stroke="#132e65" stroke-width="1.5"></path><path d="M1158.11 255.82L1306.91 204.05" stroke="#132e65" stroke-width="1.5"></path><path d="M1122.08 376.69L1122.08 376.69" stroke="#132e65" stroke-width="1.5"></path><path d="M1122.08 376.69L1257.83 385.81" stroke="#132e65" stroke-width="1.5"></path><path d="M1122.08 376.69L1112.89 544.94" stroke="#132e65" stroke-width="1.5"></path><path d="M1122.08 376.69L1302.75 500.79" stroke="#132e65" stroke-width="1.5"></path><path d="M1122.08 376.69L956.41 521.86" stroke="#132e65" stroke-width="1.5"></path><path d="M1112.89 544.94L1112.89 544.94" stroke="#132e65" stroke-width="1.5"></path><path d="M1112.89 544.94L1154.89 695.34" stroke="#132e65" stroke-width="1.5"></path><path d="M1112.89 544.94L956.41 521.86" stroke="#132e65" stroke-width="1.5"></path><path d="M1112.89 544.94L950.35 646.1" stroke="#132e65" stroke-width="1.5"></path><path d="M1112.89 544.94L1302.75 500.79" stroke="#132e65" stroke-width="1.5"></path><path d="M1112.89 544.94L1257.83 385.81" stroke="#132e65" stroke-width="1.5"></path><path d="M1154.89 695.34L1154.89 695.34" stroke="#132e65" stroke-width="1.5"></path><path d="M1154.89 695.34L1296.76 704.14" stroke="#132e65" stroke-width="1.5"></path><path d="M1154.89 695.34L1144.7 840.97" stroke="#132e65" stroke-width="1.5"></path><path d="M1154.89 695.34L1299.42 821.24" stroke="#132e65" stroke-width="1.5"></path><path d="M1144.7 840.97L1144.7 840.97" stroke="#132e65" stroke-width="1.5"></path><path d="M1144.7 840.97L1299.42 821.24" stroke="#132e65" stroke-width="1.5"></path><path d="M1144.7 840.97L964.43 797.69" stroke="#132e65" stroke-width="1.5"></path><path d="M1144.7 840.97L1296.76 704.14" stroke="#132e65" stroke-width="1.5"></path><path d="M1277.22 -90.4L1277.22 -90.4" stroke="#132e65" stroke-width="1.5"></path><path d="M1277.22 -90.4L1284.66 97.77" stroke="#132e65" stroke-width="1.5"></path><path d="M1277.22 -90.4L1422.28 63.29" stroke="#132e65" stroke-width="1.5"></path><path d="M1277.22 -90.4L1147.52 102.61" stroke="#132e65" stroke-width="1.5"></path><path d="M1277.22 -90.4L1306.91 204.05" stroke="#132e65" stroke-width="1.5"></path><path d="M1284.66 97.77L1284.66 97.77" stroke="#132e65" stroke-width="1.5"></path><path d="M1284.66 97.77L1306.91 204.05" stroke="#132e65" stroke-width="1.5"></path><path d="M1284.66 97.77L1422.28 63.29" stroke="#132e65" stroke-width="1.5"></path><path d="M1284.66 97.77L1418.71 206.55" stroke="#132e65" stroke-width="1.5"></path><path d="M1284.66 97.77L1158.11 255.82" stroke="#132e65" stroke-width="1.5"></path><path d="M1306.91 204.05L1306.91 204.05" stroke="#132e65" stroke-width="1.5"></path><path d="M1306.91 204.05L1418.71 206.55" stroke="#132e65" stroke-width="1.5"></path><path d="M1257.83 385.81L1257.83 385.81" stroke="#132e65" stroke-width="1.5"></path><path d="M1257.83 385.81L1302.75 500.79" stroke="#132e65" stroke-width="1.5"></path><path d="M1257.83 385.81L1158.11 255.82" stroke="#132e65" stroke-width="1.5"></path><path d="M1302.75 500.79L1302.75 500.79" stroke="#132e65" stroke-width="1.5"></path><path d="M1302.75 500.79L1414.54 519.68" stroke="#132e65" stroke-width="1.5"></path><path d="M1302.75 500.79L1426.32 400.06" stroke="#132e65" stroke-width="1.5"></path><path d="M1302.75 500.79L1296.76 704.14" stroke="#132e65" stroke-width="1.5"></path><path d="M1296.76 704.14L1296.76 704.14" stroke="#132e65" stroke-width="1.5"></path><path d="M1296.76 704.14L1299.42 821.24" stroke="#132e65" stroke-width="1.5"></path><path d="M1296.76 704.14L1450.66 704.18" stroke="#132e65" stroke-width="1.5"></path><path d="M1296.76 704.14L1459.79 801.21" stroke="#132e65" stroke-width="1.5"></path><path d="M1299.42 821.24L1299.42 821.24" stroke="#132e65" stroke-width="1.5"></path><path d="M1299.42 821.24L1459.79 801.21" stroke="#132e65" stroke-width="1.5"></path><path d="M1299.42 821.24L1450.66 704.18" stroke="#132e65" stroke-width="1.5"></path><path d="M1422.28 63.29L1422.28 63.29" stroke="#132e65" stroke-width="1.5"></path><path d="M1422.28 63.29L1418.71 206.55" stroke="#132e65" stroke-width="1.5"></path><path d="M1422.28 63.29L1571.71 54.03" stroke="#132e65" stroke-width="1.5"></path><path d="M1422.28 63.29L1306.91 204.05" stroke="#132e65" stroke-width="1.5"></path><path d="M1422.28 63.29L1584.46 194.77" stroke="#132e65" stroke-width="1.5"></path><path d="M1418.71 206.55L1418.71 206.55" stroke="#132e65" stroke-width="1.5"></path><path d="M1418.71 206.55L1584.46 194.77" stroke="#132e65" stroke-width="1.5"></path><path d="M1418.71 206.55L1426.32 400.06" stroke="#132e65" stroke-width="1.5"></path><path d="M1426.32 400.06L1426.32 400.06" stroke="#132e65" stroke-width="1.5"></path><path d="M1426.32 400.06L1414.54 519.68" stroke="#132e65" stroke-width="1.5"></path><path d="M1426.32 400.06L1553.37 400.45" stroke="#132e65" stroke-width="1.5"></path><path d="M1426.32 400.06L1257.83 385.81" stroke="#132e65" stroke-width="1.5"></path><path d="M1414.54 519.68L1414.54 519.68" stroke="#132e65" stroke-width="1.5"></path><path d="M1450.66 704.18L1450.66 704.18" stroke="#132e65" stroke-width="1.5"></path><path d="M1450.66 704.18L1459.79 801.21" stroke="#132e65" stroke-width="1.5"></path><path d="M1450.66 704.18L1607.35 711" stroke="#132e65" stroke-width="1.5"></path><path d="M1450.66 704.18L1414.54 519.68" stroke="#132e65" stroke-width="1.5"></path><path d="M1459.79 801.21L1459.79 801.21" stroke="#132e65" stroke-width="1.5"></path><path d="M1604.68 -60.85L1604.68 -60.85" stroke="#132e65" stroke-width="1.5"></path><path d="M1604.68 -60.85L1571.71 54.03" stroke="#132e65" stroke-width="1.5"></path><path d="M1604.68 -60.85L1717.57 -105.85" stroke="#132e65" stroke-width="1.5"></path><path d="M1604.68 -60.85L1749.49 51.38" stroke="#132e65" stroke-width="1.5"></path><path d="M1604.68 -60.85L1422.28 63.29" stroke="#132e65" stroke-width="1.5"></path><path d="M1604.68 -60.85L1584.46 194.77" stroke="#132e65" stroke-width="1.5"></path><path d="M1571.71 54.03L1571.71 54.03" stroke="#132e65" stroke-width="1.5"></path><path d="M1571.71 54.03L1584.46 194.77" stroke="#132e65" stroke-width="1.5"></path><path d="M1571.71 54.03L1749.49 51.38" stroke="#132e65" stroke-width="1.5"></path><path d="M1584.46 194.77L1584.46 194.77" stroke="#132e65" stroke-width="1.5"></path><path d="M1584.46 194.77L1746.47 188.65" stroke="#132e65" stroke-width="1.5"></path><path d="M1584.46 194.77L1553.37 400.45" stroke="#132e65" stroke-width="1.5"></path><path d="M1553.37 400.45L1553.37 400.45" stroke="#132e65" stroke-width="1.5"></path><path d="M1553.37 400.45L1540.4 538.65" stroke="#132e65" stroke-width="1.5"></path><path d="M1553.37 400.45L1727.38 380.06" stroke="#132e65" stroke-width="1.5"></path><path d="M1553.37 400.45L1414.54 519.68" stroke="#132e65" stroke-width="1.5"></path><path d="M1553.37 400.45L1418.71 206.55" stroke="#132e65" stroke-width="1.5"></path><path d="M1540.4 538.65L1540.4 538.65" stroke="#132e65" stroke-width="1.5"></path><path d="M1540.4 538.65L1414.54 519.68" stroke="#132e65" stroke-width="1.5"></path><path d="M1540.4 538.65L1426.32 400.06" stroke="#132e65" stroke-width="1.5"></path><path d="M1607.35 711L1607.35 711" stroke="#132e65" stroke-width="1.5"></path><path d="M1607.35 711L1728.77 705.54" stroke="#132e65" stroke-width="1.5"></path><path d="M1607.35 711L1690.92 832.94" stroke="#132e65" stroke-width="1.5"></path><path d="M1607.35 711L1459.79 801.21" stroke="#132e65" stroke-width="1.5"></path><path d="M1607.35 711L1540.4 538.65" stroke="#132e65" stroke-width="1.5"></path><path d="M1717.57 -105.85L1717.57 -105.85" stroke="#132e65" stroke-width="1.5"></path><path d="M1717.57 -105.85L1749.49 51.38" stroke="#132e65" stroke-width="1.5"></path><path d="M1717.57 -105.85L1571.71 54.03" stroke="#132e65" stroke-width="1.5"></path><path d="M1717.57 -105.85L1746.47 188.65" stroke="#132e65" stroke-width="1.5"></path><path d="M1717.57 -105.85L1584.46 194.77" stroke="#132e65" stroke-width="1.5"></path><path d="M1717.57 -105.85L1422.28 63.29" stroke="#132e65" stroke-width="1.5"></path><path d="M1749.49 51.38L1749.49 51.38" stroke="#132e65" stroke-width="1.5"></path><path d="M1749.49 51.38L1746.47 188.65" stroke="#132e65" stroke-width="1.5"></path><path d="M1746.47 188.65L1746.47 188.65" stroke="#132e65" stroke-width="1.5"></path><path d="M1727.38 380.06L1727.38 380.06" stroke="#132e65" stroke-width="1.5"></path><path d="M1727.38 380.06L1746.47 188.65" stroke="#132e65" stroke-width="1.5"></path><path d="M1727.38 380.06L1584.46 194.77" stroke="#132e65" stroke-width="1.5"></path><path d="M1727.38 380.06L1540.4 538.65" stroke="#132e65" stroke-width="1.5"></path><path d="M1727.38 380.06L1426.32 400.06" stroke="#132e65" stroke-width="1.5"></path><path d="M1728.77 705.54L1728.77 705.54" stroke="#132e65" stroke-width="1.5"></path><path d="M1728.77 705.54L1690.92 832.94" stroke="#132e65" stroke-width="1.5"></path><path d="M1728.77 705.54L1540.4 538.65" stroke="#132e65" stroke-width="1.5"></path><path d="M1728.77 705.54L1450.66 704.18" stroke="#132e65" stroke-width="1.5"></path><path d="M1728.77 705.54L1459.79 801.21" stroke="#132e65" stroke-width="1.5"></path><path d="M1690.92 832.94L1690.92 832.94" stroke="#132e65" stroke-width="1.5"></path><path d="M1690.92 832.94L1459.79 801.21" stroke="#132e65" stroke-width="1.5"></path><path d="M1690.92 832.94L1450.66 704.18" stroke="#132e65" stroke-width="1.5"></path><path d="M1690.92 832.94L1540.4 538.65" stroke="#132e65" stroke-width="1.5"></path><path d="M1690.92 832.94L1299.42 821.24" stroke="#132e65" stroke-width="1.5"></path><circle r="5" cx="-87.15" cy="546.88" fill="#132e65"></circle><circle r="5" cx="-61.73" cy="674.83" fill="#132e65"></circle><circle r="5" cx="-46.91" cy="796.74" fill="#132e65"></circle><circle r="5" cx="75.55" cy="812.64" fill="#132e65"></circle><circle r="5" cx="244.58" cy="537.05" fill="#132e65"></circle><circle r="5" cx="250.14" cy="674.76" fill="#132e65"></circle><circle r="5" cx="221.28" cy="833.16" fill="#132e65"></circle><circle r="5" cx="398.76" cy="407.86" fill="#132e65"></circle><circle r="5" cx="345.68" cy="650.36" fill="#132e65"></circle><circle r="5" cx="526.34" cy="386.5" fill="#132e65"></circle><circle r="5" cx="513.26" cy="516.02" fill="#132e65"></circle><circle r="5" cx="558.69" cy="650.32" fill="#132e65"></circle><circle r="5" cx="518.75" cy="846.16" fill="#132e65"></circle><circle r="5" cx="660.75" cy="403.27" fill="#132e65"></circle><circle r="5" cx="689.16" cy="533.2" fill="#132e65"></circle><circle r="5" cx="658.11" cy="640.13" fill="#132e65"></circle><circle r="5" cx="677.89" cy="843.87" fill="#132e65"></circle><circle r="5" cx="861.15" cy="216.19" fill="#132e65"></circle><circle r="5" cx="827.9" cy="395.23" fill="#132e65"></circle><circle r="5" cx="829.98" cy="559.57" fill="#132e65"></circle><circle r="5" cx="827.63" cy="682.11" fill="#132e65"></circle><circle r="5" cx="819.35" cy="848.47" fill="#132e65"></circle><circle r="5" cx="975.92" cy="-58.29" fill="#132e65"></circle><circle r="5" cx="951.51" cy="74.3" fill="#132e65"></circle><circle r="5" cx="995.49" cy="257.89" fill="#132e65"></circle><circle r="5" cx="956.41" cy="521.86" fill="#132e65"></circle><circle r="5" cx="950.35" cy="646.1" fill="#132e65"></circle><circle r="5" cx="964.43" cy="797.69" fill="#132e65"></circle><circle r="5" cx="1127.81" cy="-105.09" fill="#132e65"></circle><circle r="5" cx="1147.52" cy="102.61" fill="#132e65"></circle><circle r="5" cx="1158.11" cy="255.82" fill="#132e65"></circle><circle r="5" cx="1122.08" cy="376.69" fill="#132e65"></circle><circle r="5" cx="1112.89" cy="544.94" fill="#132e65"></circle><circle r="5" cx="1154.89" cy="695.34" fill="#132e65"></circle><circle r="5" cx="1144.7" cy="840.97" fill="#132e65"></circle><circle r="5" cx="1277.22" cy="-90.4" fill="#132e65"></circle><circle r="5" cx="1284.66" cy="97.77" fill="#132e65"></circle><circle r="5" cx="1306.91" cy="204.05" fill="#132e65"></circle><circle r="5" cx="1257.83" cy="385.81" fill="#132e65"></circle><circle r="5" cx="1302.75" cy="500.79" fill="#132e65"></circle><circle r="5" cx="1296.76" cy="704.14" fill="#132e65"></circle><circle r="5" cx="1299.42" cy="821.24" fill="#132e65"></circle><circle r="5" cx="1422.28" cy="63.29" fill="#132e65"></circle><circle r="5" cx="1418.71" cy="206.55" fill="#132e65"></circle><circle r="5" cx="1426.32" cy="400.06" fill="#132e65"></circle><circle r="5" cx="1414.54" cy="519.68" fill="#132e65"></circle><circle r="5" cx="1450.66" cy="704.18" fill="#132e65"></circle><circle r="5" cx="1459.79" cy="801.21" fill="#132e65"></circle><circle r="5" cx="1604.68" cy="-60.85" fill="#132e65"></circle><circle r="5" cx="1571.71" cy="54.03" fill="#132e65"></circle><circle r="5" cx="1584.46" cy="194.77" fill="#132e65"></circle><circle r="5" cx="1553.37" cy="400.45" fill="#132e65"></circle><circle r="5" cx="1540.4" cy="538.65" fill="#132e65"></circle><circle r="5" cx="1607.35" cy="711" fill="#132e65"></circle><circle r="5" cx="1717.57" cy="-105.85" fill="#132e65"></circle><circle r="5" cx="1749.49" cy="51.38" fill="#132e65"></circle><circle r="5" cx="1746.47" cy="188.65" fill="#132e65"></circle><circle r="5" cx="1727.38" cy="380.06" fill="#132e65"></circle><circle r="5" cx="1728.77" cy="705.54" fill="#132e65"></circle><circle r="5" cx="1690.92" cy="832.94" fill="#132e65"></circle><path d="M-83.9 811.72L-83.9 811.72" stroke="hsl(228.5, 77.2%, 51.5%)" stroke-width="1.5"></path><path d="M-83.9 811.72L-67.04 690.56" stroke="hsl(228.5, 77.2%, 51.5%)" stroke-width="1.5"></path><path d="M-83.9 811.72L91.08 852.5" stroke="hsl(228.5, 77.2%, 51.5%)" stroke-width="1.5"></path><path d="M376.77 693.29L376.77 693.29" stroke="hsl(228.5, 77.2%, 51.5%)" stroke-width="1.5"></path><path d="M376.77 693.29L369.71 789.03" stroke="hsl(228.5, 77.2%, 51.5%)" stroke-width="1.5"></path><path d="M376.77 693.29L261.26 672.74" stroke="hsl(228.5, 77.2%, 51.5%)" stroke-width="1.5"></path><path d="M376.77 693.29L494.38 643.29" stroke="hsl(228.5, 77.2%, 51.5%)" stroke-width="1.5"></path><path d="M376.77 693.29L491.29 545.5" stroke="hsl(228.5, 77.2%, 51.5%)" stroke-width="1.5"></path><path d="M376.77 693.29L542.91 851.02" stroke="hsl(228.5, 77.2%, 51.5%)" stroke-width="1.5"></path><path d="M690.47 555.26L690.47 555.26" stroke="hsl(228.5, 77.2%, 51.5%)" stroke-width="1.5"></path><path d="M690.47 555.26L696.42 660.7" stroke="hsl(228.5, 77.2%, 51.5%)" stroke-width="1.5"></path><path d="M690.47 555.26L803.73 667.77" stroke="hsl(228.5, 77.2%, 51.5%)" stroke-width="1.5"></path><path d="M990.32 533.01L990.32 533.01" stroke="hsl(228.5, 77.2%, 51.5%)" stroke-width="1.5"></path><path d="M990.32 533.01L850.19 510.39" stroke="hsl(228.5, 77.2%, 51.5%)" stroke-width="1.5"></path><path d="M990.32 533.01L962.64 676.23" stroke="hsl(228.5, 77.2%, 51.5%)" stroke-width="1.5"></path><path d="M990.32 533.01L995.75 385.46" stroke="hsl(228.5, 77.2%, 51.5%)" stroke-width="1.5"></path><path d="M990.32 533.01L1161.88 526.94" stroke="hsl(228.5, 77.2%, 51.5%)" stroke-width="1.5"></path><path d="M990.32 533.01L1121.26 678.04" stroke="hsl(228.5, 77.2%, 51.5%)" stroke-width="1.5"></path><path d="M1011.97 834.85L1011.97 834.85" stroke="hsl(228.5, 77.2%, 51.5%)" stroke-width="1.5"></path><path d="M1011.97 834.85L1104.38 797" stroke="hsl(228.5, 77.2%, 51.5%)" stroke-width="1.5"></path><path d="M1397.97 398.19L1397.97 398.19" stroke="hsl(228.5, 77.2%, 51.5%)" stroke-width="1.5"></path><path d="M1397.97 398.19L1295.07 368.74" stroke="hsl(228.5, 77.2%, 51.5%)" stroke-width="1.5"></path><path d="M1397.97 398.19L1435.93 260.45" stroke="hsl(228.5, 77.2%, 51.5%)" stroke-width="1.5"></path><path d="M1397.97 398.19L1401.66 556.93" stroke="hsl(228.5, 77.2%, 51.5%)" stroke-width="1.5"></path><path d="M1397.97 398.19L1276.99 548.44" stroke="hsl(228.5, 77.2%, 51.5%)" stroke-width="1.5"></path><path d="M1397.97 398.19L1587.13 339.25" stroke="hsl(228.5, 77.2%, 51.5%)" stroke-width="1.5"></path><path d="M1397.97 398.19L1300.51 206.46" stroke="hsl(228.5, 77.2%, 51.5%)" stroke-width="1.5"></path><path d="M1598.35 258.4L1598.35 258.4" stroke="hsl(228.5, 77.2%, 51.5%)" stroke-width="1.5"></path><path d="M1598.35 258.4L1587.13 339.25" stroke="hsl(228.5, 77.2%, 51.5%)" stroke-width="1.5"></path><path d="M1598.35 258.4L1748.65 226.51" stroke="hsl(228.5, 77.2%, 51.5%)" stroke-width="1.5"></path><path d="M1598.35 258.4L1435.93 260.45" stroke="hsl(228.5, 77.2%, 51.5%)" stroke-width="1.5"></path><path d="M1598.35 258.4L1587.87 85.22" stroke="hsl(228.5, 77.2%, 51.5%)" stroke-width="1.5"></path><path d="M1719.49 -84.33L1719.49 -84.33" stroke="hsl(228.5, 77.2%, 51.5%)" stroke-width="1.5"></path><path d="M1719.49 -84.33L1582.86 -110.6" stroke="hsl(228.5, 77.2%, 51.5%)" stroke-width="1.5"></path><path d="M1748.65 226.51L1748.65 226.51" stroke="hsl(228.5, 77.2%, 51.5%)" stroke-width="1.5"></path><path d="M1748.65 226.51L1692.77 107.99" stroke="hsl(228.5, 77.2%, 51.5%)" stroke-width="1.5"></path><path d="M1748.65 226.51L1724.8 388.19" stroke="hsl(228.5, 77.2%, 51.5%)" stroke-width="1.5"></path><path d="M1748.65 226.51L1587.13 339.25" stroke="hsl(228.5, 77.2%, 51.5%)" stroke-width="1.5"></path><path d="M1724.8 388.19L1724.8 388.19" stroke="hsl(228.5, 77.2%, 51.5%)" stroke-width="1.5"></path><path d="M1724.8 388.19L1587.13 339.25" stroke="hsl(228.5, 77.2%, 51.5%)" stroke-width="1.5"></path><path d="M-67.04 690.56L-67.04 690.56" stroke="hsl(228.5, 77.2%, 51.5%)" stroke-width="1.5"></path><path d="M-67.04 690.56L108.19 702.5" stroke="hsl(228.5, 77.2%, 51.5%)" stroke-width="1.5"></path><path d="M-67.04 690.56L91.08 852.5" stroke="hsl(228.5, 77.2%, 51.5%)" stroke-width="1.5"></path><path d="M-67.04 690.56L194.1 840.06" stroke="hsl(228.5, 77.2%, 51.5%)" stroke-width="1.5"></path><path d="M-67.04 690.56L261.26 672.74" stroke="hsl(228.5, 77.2%, 51.5%)" stroke-width="1.5"></path><path d="M108.19 702.5L108.19 702.5" stroke="hsl(228.5, 77.2%, 51.5%)" stroke-width="1.5"></path><path d="M108.19 702.5L91.08 852.5" stroke="hsl(228.5, 77.2%, 51.5%)" stroke-width="1.5"></path><path d="M108.19 702.5L261.26 672.74" stroke="hsl(228.5, 77.2%, 51.5%)" stroke-width="1.5"></path><path d="M108.19 702.5L194.1 840.06" stroke="hsl(228.5, 77.2%, 51.5%)" stroke-width="1.5"></path><path d="M108.19 702.5L-83.9 811.72" stroke="hsl(228.5, 77.2%, 51.5%)" stroke-width="1.5"></path><path d="M91.08 852.5L91.08 852.5" stroke="hsl(228.5, 77.2%, 51.5%)" stroke-width="1.5"></path><path d="M91.08 852.5L194.1 840.06" stroke="hsl(228.5, 77.2%, 51.5%)" stroke-width="1.5"></path><path d="M261.26 672.74L261.26 672.74" stroke="hsl(228.5, 77.2%, 51.5%)" stroke-width="1.5"></path><path d="M261.26 672.74L369.71 789.03" stroke="hsl(228.5, 77.2%, 51.5%)" stroke-width="1.5"></path><path d="M194.1 840.06L194.1 840.06" stroke="hsl(228.5, 77.2%, 51.5%)" stroke-width="1.5"></path><path d="M194.1 840.06L261.26 672.74" stroke="hsl(228.5, 77.2%, 51.5%)" stroke-width="1.5"></path><path d="M194.1 840.06L369.71 789.03" stroke="hsl(228.5, 77.2%, 51.5%)" stroke-width="1.5"></path><path d="M369.71 789.03L369.71 789.03" stroke="hsl(228.5, 77.2%, 51.5%)" stroke-width="1.5"></path><path d="M491.29 545.5L491.29 545.5" stroke="hsl(228.5, 77.2%, 51.5%)" stroke-width="1.5"></path><path d="M491.29 545.5L494.38 643.29" stroke="hsl(228.5, 77.2%, 51.5%)" stroke-width="1.5"></path><path d="M491.29 545.5L690.47 555.26" stroke="hsl(228.5, 77.2%, 51.5%)" stroke-width="1.5"></path><path d="M491.29 545.5L696.42 660.7" stroke="hsl(228.5, 77.2%, 51.5%)" stroke-width="1.5"></path><path d="M491.29 545.5L261.26 672.74" stroke="hsl(228.5, 77.2%, 51.5%)" stroke-width="1.5"></path><path d="M494.38 643.29L494.38 643.29" stroke="hsl(228.5, 77.2%, 51.5%)" stroke-width="1.5"></path><path d="M494.38 643.29L369.71 789.03" stroke="hsl(228.5, 77.2%, 51.5%)" stroke-width="1.5"></path><path d="M494.38 643.29L696.42 660.7" stroke="hsl(228.5, 77.2%, 51.5%)" stroke-width="1.5"></path><path d="M494.38 643.29L542.91 851.02" stroke="hsl(228.5, 77.2%, 51.5%)" stroke-width="1.5"></path><path d="M494.38 643.29L690.47 555.26" stroke="hsl(228.5, 77.2%, 51.5%)" stroke-width="1.5"></path><path d="M542.91 851.02L542.91 851.02" stroke="hsl(228.5, 77.2%, 51.5%)" stroke-width="1.5"></path><path d="M542.91 851.02L648.4 804.21" stroke="hsl(228.5, 77.2%, 51.5%)" stroke-width="1.5"></path><path d="M542.91 851.02L369.71 789.03" stroke="hsl(228.5, 77.2%, 51.5%)" stroke-width="1.5"></path><path d="M696.42 660.7L696.42 660.7" stroke="hsl(228.5, 77.2%, 51.5%)" stroke-width="1.5"></path><path d="M696.42 660.7L803.73 667.77" stroke="hsl(228.5, 77.2%, 51.5%)" stroke-width="1.5"></path><path d="M696.42 660.7L648.4 804.21" stroke="hsl(228.5, 77.2%, 51.5%)" stroke-width="1.5"></path><path d="M648.4 804.21L648.4 804.21" stroke="hsl(228.5, 77.2%, 51.5%)" stroke-width="1.5"></path><path d="M850.19 510.39L850.19 510.39" stroke="hsl(228.5, 77.2%, 51.5%)" stroke-width="1.5"></path><path d="M850.19 510.39L803.73 667.77" stroke="hsl(228.5, 77.2%, 51.5%)" stroke-width="1.5"></path><path d="M850.19 510.39L690.47 555.26" stroke="hsl(228.5, 77.2%, 51.5%)" stroke-width="1.5"></path><path d="M850.19 510.39L995.75 385.46" stroke="hsl(228.5, 77.2%, 51.5%)" stroke-width="1.5"></path><path d="M803.73 667.77L803.73 667.77" stroke="hsl(228.5, 77.2%, 51.5%)" stroke-width="1.5"></path><path d="M803.73 667.77L840.4 805.91" stroke="hsl(228.5, 77.2%, 51.5%)" stroke-width="1.5"></path><path d="M803.73 667.77L962.64 676.23" stroke="hsl(228.5, 77.2%, 51.5%)" stroke-width="1.5"></path><path d="M803.73 667.77L648.4 804.21" stroke="hsl(228.5, 77.2%, 51.5%)" stroke-width="1.5"></path><path d="M840.4 805.91L840.4 805.91" stroke="hsl(228.5, 77.2%, 51.5%)" stroke-width="1.5"></path><path d="M840.4 805.91L1011.97 834.85" stroke="hsl(228.5, 77.2%, 51.5%)" stroke-width="1.5"></path><path d="M840.4 805.91L962.64 676.23" stroke="hsl(228.5, 77.2%, 51.5%)" stroke-width="1.5"></path><path d="M840.4 805.91L648.4 804.21" stroke="hsl(228.5, 77.2%, 51.5%)" stroke-width="1.5"></path><path d="M840.4 805.91L696.42 660.7" stroke="hsl(228.5, 77.2%, 51.5%)" stroke-width="1.5"></path><path d="M840.4 805.91L1104.38 797" stroke="hsl(228.5, 77.2%, 51.5%)" stroke-width="1.5"></path><path d="M995.75 385.46L995.75 385.46" stroke="hsl(228.5, 77.2%, 51.5%)" stroke-width="1.5"></path><path d="M995.75 385.46L1144.77 384.34" stroke="hsl(228.5, 77.2%, 51.5%)" stroke-width="1.5"></path><path d="M962.64 676.23L962.64 676.23" stroke="hsl(228.5, 77.2%, 51.5%)" stroke-width="1.5"></path><path d="M962.64 676.23L1121.26 678.04" stroke="hsl(228.5, 77.2%, 51.5%)" stroke-width="1.5"></path><path d="M962.64 676.23L1011.97 834.85" stroke="hsl(228.5, 77.2%, 51.5%)" stroke-width="1.5"></path><path d="M1144.77 384.34L1144.77 384.34" stroke="hsl(228.5, 77.2%, 51.5%)" stroke-width="1.5"></path><path d="M1144.77 384.34L1161.88 526.94" stroke="hsl(228.5, 77.2%, 51.5%)" stroke-width="1.5"></path><path d="M1144.77 384.34L1295.07 368.74" stroke="hsl(228.5, 77.2%, 51.5%)" stroke-width="1.5"></path><path d="M1144.77 384.34L1276.99 548.44" stroke="hsl(228.5, 77.2%, 51.5%)" stroke-width="1.5"></path><path d="M1144.77 384.34L990.32 533.01" stroke="hsl(228.5, 77.2%, 51.5%)" stroke-width="1.5"></path><path d="M1144.77 384.34L1300.51 206.46" stroke="hsl(228.5, 77.2%, 51.5%)" stroke-width="1.5"></path><path d="M1161.88 526.94L1161.88 526.94" stroke="hsl(228.5, 77.2%, 51.5%)" stroke-width="1.5"></path><path d="M1161.88 526.94L1276.99 548.44" stroke="hsl(228.5, 77.2%, 51.5%)" stroke-width="1.5"></path><path d="M1161.88 526.94L1251.05 643.19" stroke="hsl(228.5, 77.2%, 51.5%)" stroke-width="1.5"></path><path d="M1121.26 678.04L1121.26 678.04" stroke="hsl(228.5, 77.2%, 51.5%)" stroke-width="1.5"></path><path d="M1121.26 678.04L1104.38 797" stroke="hsl(228.5, 77.2%, 51.5%)" stroke-width="1.5"></path><path d="M1121.26 678.04L1251.05 643.19" stroke="hsl(228.5, 77.2%, 51.5%)" stroke-width="1.5"></path><path d="M1104.38 797L1104.38 797" stroke="hsl(228.5, 77.2%, 51.5%)" stroke-width="1.5"></path><path d="M1104.38 797L962.64 676.23" stroke="hsl(228.5, 77.2%, 51.5%)" stroke-width="1.5"></path><path d="M1104.38 797L1307.84 848.88" stroke="hsl(228.5, 77.2%, 51.5%)" stroke-width="1.5"></path><path d="M1104.38 797L1251.05 643.19" stroke="hsl(228.5, 77.2%, 51.5%)" stroke-width="1.5"></path><path d="M1248.65 -100L1248.65 -100" stroke="hsl(228.5, 77.2%, 51.5%)" stroke-width="1.5"></path><path d="M1248.65 -100L1283.3 47.7" stroke="hsl(228.5, 77.2%, 51.5%)" stroke-width="1.5"></path><path d="M1248.65 -100L1425.56 -65.55" stroke="hsl(228.5, 77.2%, 51.5%)" stroke-width="1.5"></path><path d="M1248.65 -100L1457.42 59.36" stroke="hsl(228.5, 77.2%, 51.5%)" stroke-width="1.5"></path><path d="M1248.65 -100L1300.51 206.46" stroke="hsl(228.5, 77.2%, 51.5%)" stroke-width="1.5"></path><path d="M1248.65 -100L1582.86 -110.6" stroke="hsl(228.5, 77.2%, 51.5%)" stroke-width="1.5"></path><path d="M1248.65 -100L1587.87 85.22" stroke="hsl(228.5, 77.2%, 51.5%)" stroke-width="1.5"></path><path d="M1283.3 47.7L1283.3 47.7" stroke="hsl(228.5, 77.2%, 51.5%)" stroke-width="1.5"></path><path d="M1283.3 47.7L1300.51 206.46" stroke="hsl(228.5, 77.2%, 51.5%)" stroke-width="1.5"></path><path d="M1283.3 47.7L1457.42 59.36" stroke="hsl(228.5, 77.2%, 51.5%)" stroke-width="1.5"></path><path d="M1283.3 47.7L1425.56 -65.55" stroke="hsl(228.5, 77.2%, 51.5%)" stroke-width="1.5"></path><path d="M1300.51 206.46L1300.51 206.46" stroke="hsl(228.5, 77.2%, 51.5%)" stroke-width="1.5"></path><path d="M1300.51 206.46L1435.93 260.45" stroke="hsl(228.5, 77.2%, 51.5%)" stroke-width="1.5"></path><path d="M1295.07 368.74L1295.07 368.74" stroke="hsl(228.5, 77.2%, 51.5%)" stroke-width="1.5"></path><path d="M1295.07 368.74L1300.51 206.46" stroke="hsl(228.5, 77.2%, 51.5%)" stroke-width="1.5"></path><path d="M1295.07 368.74L1435.93 260.45" stroke="hsl(228.5, 77.2%, 51.5%)" stroke-width="1.5"></path><path d="M1276.99 548.44L1276.99 548.44" stroke="hsl(228.5, 77.2%, 51.5%)" stroke-width="1.5"></path><path d="M1276.99 548.44L1251.05 643.19" stroke="hsl(228.5, 77.2%, 51.5%)" stroke-width="1.5"></path><path d="M1251.05 643.19L1251.05 643.19" stroke="hsl(228.5, 77.2%, 51.5%)" stroke-width="1.5"></path><path d="M1307.84 848.88L1307.84 848.88" stroke="hsl(228.5, 77.2%, 51.5%)" stroke-width="1.5"></path><path d="M1307.84 848.88L1403.12 799.89" stroke="hsl(228.5, 77.2%, 51.5%)" stroke-width="1.5"></path><path d="M1425.56 -65.55L1425.56 -65.55" stroke="hsl(228.5, 77.2%, 51.5%)" stroke-width="1.5"></path><path d="M1425.56 -65.55L1457.42 59.36" stroke="hsl(228.5, 77.2%, 51.5%)" stroke-width="1.5"></path><path d="M1425.56 -65.55L1582.86 -110.6" stroke="hsl(228.5, 77.2%, 51.5%)" stroke-width="1.5"></path><path d="M1425.56 -65.55L1587.87 85.22" stroke="hsl(228.5, 77.2%, 51.5%)" stroke-width="1.5"></path><path d="M1425.56 -65.55L1719.49 -84.33" stroke="hsl(228.5, 77.2%, 51.5%)" stroke-width="1.5"></path><path d="M1457.42 59.36L1457.42 59.36" stroke="hsl(228.5, 77.2%, 51.5%)" stroke-width="1.5"></path><path d="M1457.42 59.36L1587.87 85.22" stroke="hsl(228.5, 77.2%, 51.5%)" stroke-width="1.5"></path><path d="M1435.93 260.45L1435.93 260.45" stroke="hsl(228.5, 77.2%, 51.5%)" stroke-width="1.5"></path><path d="M1435.93 260.45L1587.13 339.25" stroke="hsl(228.5, 77.2%, 51.5%)" stroke-width="1.5"></path><path d="M1401.66 556.93L1401.66 556.93" stroke="hsl(228.5, 77.2%, 51.5%)" stroke-width="1.5"></path><path d="M1401.66 556.93L1432.96 663.22" stroke="hsl(228.5, 77.2%, 51.5%)" stroke-width="1.5"></path><path d="M1401.66 556.93L1276.99 548.44" stroke="hsl(228.5, 77.2%, 51.5%)" stroke-width="1.5"></path><path d="M1432.96 663.22L1432.96 663.22" stroke="hsl(228.5, 77.2%, 51.5%)" stroke-width="1.5"></path><path d="M1432.96 663.22L1556.69 692.52" stroke="hsl(228.5, 77.2%, 51.5%)" stroke-width="1.5"></path><path d="M1432.96 663.22L1403.12 799.89" stroke="hsl(228.5, 77.2%, 51.5%)" stroke-width="1.5"></path><path d="M1403.12 799.89L1403.12 799.89" stroke="hsl(228.5, 77.2%, 51.5%)" stroke-width="1.5"></path><path d="M1403.12 799.89L1549.78 810.15" stroke="hsl(228.5, 77.2%, 51.5%)" stroke-width="1.5"></path><path d="M1403.12 799.89L1556.69 692.52" stroke="hsl(228.5, 77.2%, 51.5%)" stroke-width="1.5"></path><path d="M1582.86 -110.6L1582.86 -110.6" stroke="hsl(228.5, 77.2%, 51.5%)" stroke-width="1.5"></path><path d="M1582.86 -110.6L1587.87 85.22" stroke="hsl(228.5, 77.2%, 51.5%)" stroke-width="1.5"></path><path d="M1582.86 -110.6L1457.42 59.36" stroke="hsl(228.5, 77.2%, 51.5%)" stroke-width="1.5"></path><path d="M1582.86 -110.6L1692.77 107.99" stroke="hsl(228.5, 77.2%, 51.5%)" stroke-width="1.5"></path><path d="M1587.87 85.22L1587.87 85.22" stroke="hsl(228.5, 77.2%, 51.5%)" stroke-width="1.5"></path><path d="M1587.87 85.22L1692.77 107.99" stroke="hsl(228.5, 77.2%, 51.5%)" stroke-width="1.5"></path><path d="M1587.13 339.25L1587.13 339.25" stroke="hsl(228.5, 77.2%, 51.5%)" stroke-width="1.5"></path><path d="M1556.69 692.52L1556.69 692.52" stroke="hsl(228.5, 77.2%, 51.5%)" stroke-width="1.5"></path><path d="M1556.69 692.52L1549.78 810.15" stroke="hsl(228.5, 77.2%, 51.5%)" stroke-width="1.5"></path><path d="M1549.78 810.15L1549.78 810.15" stroke="hsl(228.5, 77.2%, 51.5%)" stroke-width="1.5"></path><path d="M1549.78 810.15L1719.71 834.97" stroke="hsl(228.5, 77.2%, 51.5%)" stroke-width="1.5"></path><path d="M1692.77 107.99L1692.77 107.99" stroke="hsl(228.5, 77.2%, 51.5%)" stroke-width="1.5"></path><path d="M1725.89 640.55L1725.89 640.55" stroke="hsl(228.5, 77.2%, 51.5%)" stroke-width="1.5"></path><path d="M1725.89 640.55L1556.69 692.52" stroke="hsl(228.5, 77.2%, 51.5%)" stroke-width="1.5"></path><path d="M1725.89 640.55L1719.71 834.97" stroke="hsl(228.5, 77.2%, 51.5%)" stroke-width="1.5"></path><path d="M1725.89 640.55L1549.78 810.15" stroke="hsl(228.5, 77.2%, 51.5%)" stroke-width="1.5"></path><path d="M1725.89 640.55L1724.8 388.19" stroke="hsl(228.5, 77.2%, 51.5%)" stroke-width="1.5"></path><path d="M1725.89 640.55L1432.96 663.22" stroke="hsl(228.5, 77.2%, 51.5%)" stroke-width="1.5"></path><path d="M1725.89 640.55L1587.13 339.25" stroke="hsl(228.5, 77.2%, 51.5%)" stroke-width="1.5"></path><path d="M1719.71 834.97L1719.71 834.97" stroke="hsl(228.5, 77.2%, 51.5%)" stroke-width="1.5"></path><path d="M1719.71 834.97L1556.69 692.52" stroke="hsl(228.5, 77.2%, 51.5%)" stroke-width="1.5"></path><circle r="25" cx="-83.9" cy="811.72" fill="url(&quot;#SvgjsRadialGradient1055&quot;)"></circle><circle r="25" cx="376.77" cy="693.29" fill="url(&quot;#SvgjsRadialGradient1055&quot;)"></circle><circle r="25" cx="690.47" cy="555.26" fill="url(&quot;#SvgjsRadialGradient1055&quot;)"></circle><circle r="25" cx="990.32" cy="533.01" fill="url(&quot;#SvgjsRadialGradient1055&quot;)"></circle><circle r="25" cx="1011.97" cy="834.85" fill="url(&quot;#SvgjsRadialGradient1055&quot;)"></circle><circle r="25" cx="1397.97" cy="398.19" fill="url(&quot;#SvgjsRadialGradient1055&quot;)"></circle><circle r="25" cx="1598.35" cy="258.4" fill="url(&quot;#SvgjsRadialGradient1055&quot;)"></circle><circle r="25" cx="1719.49" cy="-84.33" fill="url(&quot;#SvgjsRadialGradient1055&quot;)"></circle><circle r="25" cx="1748.65" cy="226.51" fill="url(&quot;#SvgjsRadialGradient1055&quot;)"></circle><circle r="25" cx="1724.8" cy="388.19" fill="url(&quot;#SvgjsRadialGradient1055&quot;)"></circle><circle r="5" cx="-67.04" cy="690.56" fill="#8b9ad9"></circle><circle r="5" cx="108.19" cy="702.5" fill="#8b9ad9"></circle><circle r="5" cx="91.08" cy="852.5" fill="#8b9ad9"></circle><circle r="5" cx="261.26" cy="672.74" fill="#8b9ad9"></circle><circle r="5" cx="194.1" cy="840.06" fill="#8b9ad9"></circle><circle r="5" cx="369.71" cy="789.03" fill="#8b9ad9"></circle><circle r="5" cx="491.29" cy="545.5" fill="#8b9ad9"></circle><circle r="5" cx="494.38" cy="643.29" fill="#8b9ad9"></circle><circle r="5" cx="542.91" cy="851.02" fill="#8b9ad9"></circle><circle r="5" cx="696.42" cy="660.7" fill="#8b9ad9"></circle><circle r="5" cx="648.4" cy="804.21" fill="#8b9ad9"></circle><circle r="5" cx="850.19" cy="510.39" fill="#8b9ad9"></circle><circle r="5" cx="803.73" cy="667.77" fill="#8b9ad9"></circle><circle r="5" cx="840.4" cy="805.91" fill="#8b9ad9"></circle><circle r="5" cx="995.75" cy="385.46" fill="#8b9ad9"></circle><circle r="5" cx="962.64" cy="676.23" fill="#8b9ad9"></circle><circle r="5" cx="1144.77" cy="384.34" fill="#8b9ad9"></circle><circle r="5" cx="1161.88" cy="526.94" fill="#8b9ad9"></circle><circle r="5" cx="1121.26" cy="678.04" fill="#8b9ad9"></circle><circle r="5" cx="1104.38" cy="797" fill="#8b9ad9"></circle><circle r="5" cx="1248.65" cy="-100" fill="#8b9ad9"></circle><circle r="5" cx="1283.3" cy="47.7" fill="#8b9ad9"></circle><circle r="5" cx="1300.51" cy="206.46" fill="#8b9ad9"></circle><circle r="5" cx="1295.07" cy="368.74" fill="#8b9ad9"></circle><circle r="5" cx="1276.99" cy="548.44" fill="#8b9ad9"></circle><circle r="5" cx="1251.05" cy="643.19" fill="#8b9ad9"></circle><circle r="5" cx="1307.84" cy="848.88" fill="#8b9ad9"></circle><circle r="5" cx="1425.56" cy="-65.55" fill="#8b9ad9"></circle><circle r="5" cx="1457.42" cy="59.36" fill="#8b9ad9"></circle><circle r="5" cx="1435.93" cy="260.45" fill="#8b9ad9"></circle><circle r="5" cx="1401.66" cy="556.93" fill="#8b9ad9"></circle><circle r="5" cx="1432.96" cy="663.22" fill="#8b9ad9"></circle><circle r="5" cx="1403.12" cy="799.89" fill="#8b9ad9"></circle><circle r="5" cx="1582.86" cy="-110.6" fill="#8b9ad9"></circle><circle r="5" cx="1587.87" cy="85.22" fill="#8b9ad9"></circle><circle r="5" cx="1587.13" cy="339.25" fill="#8b9ad9"></circle><circle r="5" cx="1556.69" cy="692.52" fill="#8b9ad9"></circle><circle r="5" cx="1549.78" cy="810.15" fill="#8b9ad9"></circle><circle r="5" cx="1692.77" cy="107.99" fill="#8b9ad9"></circle><circle r="5" cx="1725.89" cy="640.55" fill="#8b9ad9"></circle><circle r="5" cx="1719.71" cy="834.97" fill="#8b9ad9"></circle></g><defs><mask id="SvgjsMask1054"><rect width="1536" height="736" fill="#ffffff"></rect></mask><radialGradient id="SvgjsRadialGradient1055"><stop stop-color="#ffffff" offset="0.1"></stop><stop stop-color="#1735b3" offset="0.2"></stop><stop stop-color="rgba(23, 53, 179, 0)" offset="1"></stop></radialGradient></defs></svg>