<svg xmlns="http://www.w3.org/2000/svg" version="1.1" xmlns:xlink="http://www.w3.org/1999/xlink" xmlns:svgjs="http://svgjs.dev/svgjs" width="390" height="740" preserveAspectRatio="none" viewBox="0 0 390 740"><g mask="url(&quot;#SvgjsMask1020&quot;)" fill="none"><path d="M-69.27 521.97L-69.27 521.97" stroke="#132e65" stroke-width="1.5"></path><path d="M-69.27 521.97L-27.47 622.29" stroke="#132e65" stroke-width="1.5"></path><path d="M-69.27 521.97L56.41 486.37" stroke="#132e65" stroke-width="1.5"></path><path d="M-69.27 521.97L23.27 619.22" stroke="#132e65" stroke-width="1.5"></path><path d="M-69.27 521.97L-26.64 706.8" stroke="#132e65" stroke-width="1.5"></path><path d="M-69.27 521.97L127.21 521.06" stroke="#132e65" stroke-width="1.5"></path><path d="M-69.27 521.97L30.18 711.81" stroke="#132e65" stroke-width="1.5"></path><path d="M-27.47 622.29L-27.47 622.29" stroke="#132e65" stroke-width="1.5"></path><path d="M-27.47 622.29L23.27 619.22" stroke="#132e65" stroke-width="1.5"></path><path d="M-27.47 622.29L-26.64 706.8" stroke="#132e65" stroke-width="1.5"></path><path d="M-27.47 622.29L30.18 711.81" stroke="#132e65" stroke-width="1.5"></path><path d="M-27.47 622.29L-40.67 769.91" stroke="#132e65" stroke-width="1.5"></path><path d="M-27.47 622.29L56.41 486.37" stroke="#132e65" stroke-width="1.5"></path><path d="M-26.64 706.8L-26.64 706.8" stroke="#132e65" stroke-width="1.5"></path><path d="M-26.64 706.8L30.18 711.81" stroke="#132e65" stroke-width="1.5"></path><path d="M-26.64 706.8L-40.67 769.91" stroke="#132e65" stroke-width="1.5"></path><path d="M-26.64 706.8L23.27 619.22" stroke="#132e65" stroke-width="1.5"></path><path d="M-40.67 769.91L-40.67 769.91" stroke="#132e65" stroke-width="1.5"></path><path d="M-40.67 769.91L39.67 807.78" stroke="#132e65" stroke-width="1.5"></path><path d="M-40.67 769.91L30.18 711.81" stroke="#132e65" stroke-width="1.5"></path><path d="M56.41 486.37L56.41 486.37" stroke="#132e65" stroke-width="1.5"></path><path d="M56.41 486.37L127.21 521.06" stroke="#132e65" stroke-width="1.5"></path><path d="M56.41 486.37L158.67 417.43" stroke="#132e65" stroke-width="1.5"></path><path d="M56.41 486.37L23.27 619.22" stroke="#132e65" stroke-width="1.5"></path><path d="M56.41 486.37L149.89 610.94" stroke="#132e65" stroke-width="1.5"></path><path d="M56.41 486.37L214.65 487.31" stroke="#132e65" stroke-width="1.5"></path><path d="M23.27 619.22L23.27 619.22" stroke="#132e65" stroke-width="1.5"></path><path d="M23.27 619.22L30.18 711.81" stroke="#132e65" stroke-width="1.5"></path><path d="M23.27 619.22L149.89 610.94" stroke="#132e65" stroke-width="1.5"></path><path d="M30.18 711.81L30.18 711.81" stroke="#132e65" stroke-width="1.5"></path><path d="M30.18 711.81L39.67 807.78" stroke="#132e65" stroke-width="1.5"></path><path d="M30.18 711.81L120.88 766.55" stroke="#132e65" stroke-width="1.5"></path><path d="M39.67 807.78L39.67 807.78" stroke="#132e65" stroke-width="1.5"></path><path d="M39.67 807.78L120.88 766.55" stroke="#132e65" stroke-width="1.5"></path><path d="M39.67 807.78L-26.64 706.8" stroke="#132e65" stroke-width="1.5"></path><path d="M39.67 807.78L153.47 698.17" stroke="#132e65" stroke-width="1.5"></path><path d="M158.67 417.43L158.67 417.43" stroke="#132e65" stroke-width="1.5"></path><path d="M158.67 417.43L215.94 434.49" stroke="#132e65" stroke-width="1.5"></path><path d="M158.67 417.43L214.65 487.31" stroke="#132e65" stroke-width="1.5"></path><path d="M127.21 521.06L127.21 521.06" stroke="#132e65" stroke-width="1.5"></path><path d="M127.21 521.06L149.89 610.94" stroke="#132e65" stroke-width="1.5"></path><path d="M127.21 521.06L214.65 487.31" stroke="#132e65" stroke-width="1.5"></path><path d="M127.21 521.06L158.67 417.43" stroke="#132e65" stroke-width="1.5"></path><path d="M127.21 521.06L215.94 434.49" stroke="#132e65" stroke-width="1.5"></path><path d="M127.21 521.06L214.68 611.04" stroke="#132e65" stroke-width="1.5"></path><path d="M149.89 610.94L149.89 610.94" stroke="#132e65" stroke-width="1.5"></path><path d="M149.89 610.94L214.68 611.04" stroke="#132e65" stroke-width="1.5"></path><path d="M149.89 610.94L153.47 698.17" stroke="#132e65" stroke-width="1.5"></path><path d="M149.89 610.94L238.75 679.84" stroke="#132e65" stroke-width="1.5"></path><path d="M153.47 698.17L153.47 698.17" stroke="#132e65" stroke-width="1.5"></path><path d="M153.47 698.17L120.88 766.55" stroke="#132e65" stroke-width="1.5"></path><path d="M153.47 698.17L238.75 679.84" stroke="#132e65" stroke-width="1.5"></path><path d="M120.88 766.55L120.88 766.55" stroke="#132e65" stroke-width="1.5"></path><path d="M120.88 766.55L238 779.89" stroke="#132e65" stroke-width="1.5"></path><path d="M120.88 766.55L238.75 679.84" stroke="#132e65" stroke-width="1.5"></path><path d="M246.63 45.67L246.63 45.67" stroke="#132e65" stroke-width="1.5"></path><path d="M246.63 45.67L337.28 57.82" stroke="#132e65" stroke-width="1.5"></path><path d="M246.63 45.67L324.69 -23.48" stroke="#132e65" stroke-width="1.5"></path><path d="M246.63 45.67L337.01 140.02" stroke="#132e65" stroke-width="1.5"></path><path d="M213.5 220.2L213.5 220.2" stroke="#132e65" stroke-width="1.5"></path><path d="M213.5 220.2L237.06 302.82" stroke="#132e65" stroke-width="1.5"></path><path d="M213.5 220.2L310.12 237" stroke="#132e65" stroke-width="1.5"></path><path d="M213.5 220.2L304.5 333.38" stroke="#132e65" stroke-width="1.5"></path><path d="M213.5 220.2L337.01 140.02" stroke="#132e65" stroke-width="1.5"></path><path d="M237.06 302.82L237.06 302.82" stroke="#132e65" stroke-width="1.5"></path><path d="M237.06 302.82L304.5 333.38" stroke="#132e65" stroke-width="1.5"></path><path d="M237.06 302.82L310.12 237" stroke="#132e65" stroke-width="1.5"></path><path d="M215.94 434.49L215.94 434.49" stroke="#132e65" stroke-width="1.5"></path><path d="M215.94 434.49L214.65 487.31" stroke="#132e65" stroke-width="1.5"></path><path d="M215.94 434.49L329.47 488.06" stroke="#132e65" stroke-width="1.5"></path><path d="M214.65 487.31L214.65 487.31" stroke="#132e65" stroke-width="1.5"></path><path d="M214.68 611.04L214.68 611.04" stroke="#132e65" stroke-width="1.5"></path><path d="M214.68 611.04L238.75 679.84" stroke="#132e65" stroke-width="1.5"></path><path d="M238.75 679.84L238.75 679.84" stroke="#132e65" stroke-width="1.5"></path><path d="M238 779.89L238 779.89" stroke="#132e65" stroke-width="1.5"></path><path d="M238 779.89L238.75 679.84" stroke="#132e65" stroke-width="1.5"></path><path d="M238 779.89L341.89 790.8" stroke="#132e65" stroke-width="1.5"></path><path d="M238 779.89L153.47 698.17" stroke="#132e65" stroke-width="1.5"></path><path d="M238 779.89L332.33 706.95" stroke="#132e65" stroke-width="1.5"></path><path d="M324.69 -23.48L324.69 -23.48" stroke="#132e65" stroke-width="1.5"></path><path d="M324.69 -23.48L337.28 57.82" stroke="#132e65" stroke-width="1.5"></path><path d="M324.69 -23.48L410.51 -61.7" stroke="#132e65" stroke-width="1.5"></path><path d="M337.28 57.82L337.28 57.82" stroke="#132e65" stroke-width="1.5"></path><path d="M337.28 57.82L337.01 140.02" stroke="#132e65" stroke-width="1.5"></path><path d="M337.01 140.02L337.01 140.02" stroke="#132e65" stroke-width="1.5"></path><path d="M337.01 140.02L410.68 127.52" stroke="#132e65" stroke-width="1.5"></path><path d="M337.01 140.02L310.12 237" stroke="#132e65" stroke-width="1.5"></path><path d="M310.12 237L310.12 237" stroke="#132e65" stroke-width="1.5"></path><path d="M310.12 237L304.5 333.38" stroke="#132e65" stroke-width="1.5"></path><path d="M304.5 333.38L304.5 333.38" stroke="#132e65" stroke-width="1.5"></path><path d="M304.5 333.38L345.56 399.28" stroke="#132e65" stroke-width="1.5"></path><path d="M304.5 333.38L433.22 333.78" stroke="#132e65" stroke-width="1.5"></path><path d="M304.5 333.38L407.72 418.07" stroke="#132e65" stroke-width="1.5"></path><path d="M345.56 399.28L345.56 399.28" stroke="#132e65" stroke-width="1.5"></path><path d="M345.56 399.28L407.72 418.07" stroke="#132e65" stroke-width="1.5"></path><path d="M345.56 399.28L329.47 488.06" stroke="#132e65" stroke-width="1.5"></path><path d="M345.56 399.28L408.16 488.17" stroke="#132e65" stroke-width="1.5"></path><path d="M345.56 399.28L433.22 333.78" stroke="#132e65" stroke-width="1.5"></path><path d="M329.47 488.06L329.47 488.06" stroke="#132e65" stroke-width="1.5"></path><path d="M329.47 488.06L408.16 488.17" stroke="#132e65" stroke-width="1.5"></path><path d="M329.47 488.06L407.72 418.07" stroke="#132e65" stroke-width="1.5"></path><path d="M329.47 488.06L313.16 597" stroke="#132e65" stroke-width="1.5"></path><path d="M313.16 597L313.16 597" stroke="#132e65" stroke-width="1.5"></path><path d="M313.16 597L396.83 605.37" stroke="#132e65" stroke-width="1.5"></path><path d="M313.16 597L214.68 611.04" stroke="#132e65" stroke-width="1.5"></path><path d="M332.33 706.95L332.33 706.95" stroke="#132e65" stroke-width="1.5"></path><path d="M332.33 706.95L341.89 790.8" stroke="#132e65" stroke-width="1.5"></path><path d="M332.33 706.95L421.98 706.89" stroke="#132e65" stroke-width="1.5"></path><path d="M332.33 706.95L238.75 679.84" stroke="#132e65" stroke-width="1.5"></path><path d="M332.33 706.95L406.07 777.02" stroke="#132e65" stroke-width="1.5"></path><path d="M332.33 706.95L313.16 597" stroke="#132e65" stroke-width="1.5"></path><path d="M341.89 790.8L341.89 790.8" stroke="#132e65" stroke-width="1.5"></path><path d="M341.89 790.8L406.07 777.02" stroke="#132e65" stroke-width="1.5"></path><path d="M341.89 790.8L421.98 706.89" stroke="#132e65" stroke-width="1.5"></path><path d="M341.89 790.8L238.75 679.84" stroke="#132e65" stroke-width="1.5"></path><path d="M410.51 -61.7L410.51 -61.7" stroke="#132e65" stroke-width="1.5"></path><path d="M410.51 -61.7L527.95 -66.02" stroke="#132e65" stroke-width="1.5"></path><path d="M433.68 66.64L433.68 66.64" stroke="#132e65" stroke-width="1.5"></path><path d="M433.68 66.64L410.68 127.52" stroke="#132e65" stroke-width="1.5"></path><path d="M433.68 66.64L337.28 57.82" stroke="#132e65" stroke-width="1.5"></path><path d="M433.68 66.64L508.15 129.43" stroke="#132e65" stroke-width="1.5"></path><path d="M433.68 66.64L337.01 140.02" stroke="#132e65" stroke-width="1.5"></path><path d="M433.68 66.64L410.51 -61.7" stroke="#132e65" stroke-width="1.5"></path><path d="M410.68 127.52L410.68 127.52" stroke="#132e65" stroke-width="1.5"></path><path d="M433.22 333.78L433.22 333.78" stroke="#132e65" stroke-width="1.5"></path><path d="M433.22 333.78L407.72 418.07" stroke="#132e65" stroke-width="1.5"></path><path d="M433.22 333.78L525.97 335.18" stroke="#132e65" stroke-width="1.5"></path><path d="M433.22 333.78L488.05 414.04" stroke="#132e65" stroke-width="1.5"></path><path d="M433.22 333.78L516.96 238.92" stroke="#132e65" stroke-width="1.5"></path><path d="M407.72 418.07L407.72 418.07" stroke="#132e65" stroke-width="1.5"></path><path d="M407.72 418.07L408.16 488.17" stroke="#132e65" stroke-width="1.5"></path><path d="M407.72 418.07L488.05 414.04" stroke="#132e65" stroke-width="1.5"></path><path d="M408.16 488.17L408.16 488.17" stroke="#132e65" stroke-width="1.5"></path><path d="M396.83 605.37L396.83 605.37" stroke="#132e65" stroke-width="1.5"></path><path d="M396.83 605.37L421.98 706.89" stroke="#132e65" stroke-width="1.5"></path><path d="M396.83 605.37L408.16 488.17" stroke="#132e65" stroke-width="1.5"></path><path d="M421.98 706.89L421.98 706.89" stroke="#132e65" stroke-width="1.5"></path><path d="M421.98 706.89L406.07 777.02" stroke="#132e65" stroke-width="1.5"></path><path d="M421.98 706.89L526.8 796.03" stroke="#132e65" stroke-width="1.5"></path><path d="M406.07 777.02L406.07 777.02" stroke="#132e65" stroke-width="1.5"></path><path d="M406.07 777.02L526.8 796.03" stroke="#132e65" stroke-width="1.5"></path><path d="M527.95 -66.02L527.95 -66.02" stroke="#132e65" stroke-width="1.5"></path><path d="M527.95 -66.02L433.68 66.64" stroke="#132e65" stroke-width="1.5"></path><path d="M527.95 -66.02L508.15 129.43" stroke="#132e65" stroke-width="1.5"></path><path d="M508.15 129.43L508.15 129.43" stroke="#132e65" stroke-width="1.5"></path><path d="M508.15 129.43L410.68 127.52" stroke="#132e65" stroke-width="1.5"></path><path d="M508.15 129.43L516.96 238.92" stroke="#132e65" stroke-width="1.5"></path><path d="M508.15 129.43L337.01 140.02" stroke="#132e65" stroke-width="1.5"></path><path d="M516.96 238.92L516.96 238.92" stroke="#132e65" stroke-width="1.5"></path><path d="M516.96 238.92L525.97 335.18" stroke="#132e65" stroke-width="1.5"></path><path d="M516.96 238.92L410.68 127.52" stroke="#132e65" stroke-width="1.5"></path><path d="M525.97 335.18L525.97 335.18" stroke="#132e65" stroke-width="1.5"></path><path d="M525.97 335.18L488.05 414.04" stroke="#132e65" stroke-width="1.5"></path><path d="M488.05 414.04L488.05 414.04" stroke="#132e65" stroke-width="1.5"></path><path d="M488.05 414.04L492.46 509.98" stroke="#132e65" stroke-width="1.5"></path><path d="M492.46 509.98L492.46 509.98" stroke="#132e65" stroke-width="1.5"></path><path d="M492.46 509.98L408.16 488.17" stroke="#132e65" stroke-width="1.5"></path><path d="M492.46 509.98L407.72 418.07" stroke="#132e65" stroke-width="1.5"></path><path d="M492.46 509.98L396.83 605.37" stroke="#132e65" stroke-width="1.5"></path><path d="M492.46 509.98L329.47 488.06" stroke="#132e65" stroke-width="1.5"></path><path d="M492.46 509.98L525.97 335.18" stroke="#132e65" stroke-width="1.5"></path><path d="M526.8 796.03L526.8 796.03" stroke="#132e65" stroke-width="1.5"></path><path d="M526.8 796.03L341.89 790.8" stroke="#132e65" stroke-width="1.5"></path><circle r="5" cx="-69.27" cy="521.97" fill="#132e65"></circle><circle r="5" cx="-27.47" cy="622.29" fill="#132e65"></circle><circle r="5" cx="-26.64" cy="706.8" fill="#132e65"></circle><circle r="5" cx="-40.67" cy="769.91" fill="#132e65"></circle><circle r="5" cx="56.41" cy="486.37" fill="#132e65"></circle><circle r="5" cx="23.27" cy="619.22" fill="#132e65"></circle><circle r="5" cx="30.18" cy="711.81" fill="#132e65"></circle><circle r="5" cx="39.67" cy="807.78" fill="#132e65"></circle><circle r="5" cx="158.67" cy="417.43" fill="#132e65"></circle><circle r="5" cx="127.21" cy="521.06" fill="#132e65"></circle><circle r="5" cx="149.89" cy="610.94" fill="#132e65"></circle><circle r="5" cx="153.47" cy="698.17" fill="#132e65"></circle><circle r="5" cx="120.88" cy="766.55" fill="#132e65"></circle><circle r="5" cx="246.63" cy="45.67" fill="#132e65"></circle><circle r="5" cx="213.5" cy="220.2" fill="#132e65"></circle><circle r="5" cx="237.06" cy="302.82" fill="#132e65"></circle><circle r="5" cx="215.94" cy="434.49" fill="#132e65"></circle><circle r="5" cx="214.65" cy="487.31" fill="#132e65"></circle><circle r="5" cx="214.68" cy="611.04" fill="#132e65"></circle><circle r="5" cx="238.75" cy="679.84" fill="#132e65"></circle><circle r="5" cx="238" cy="779.89" fill="#132e65"></circle><circle r="5" cx="324.69" cy="-23.48" fill="#132e65"></circle><circle r="5" cx="337.28" cy="57.82" fill="#132e65"></circle><circle r="5" cx="337.01" cy="140.02" fill="#132e65"></circle><circle r="5" cx="310.12" cy="237" fill="#132e65"></circle><circle r="5" cx="304.5" cy="333.38" fill="#132e65"></circle><circle r="5" cx="345.56" cy="399.28" fill="#132e65"></circle><circle r="5" cx="329.47" cy="488.06" fill="#132e65"></circle><circle r="5" cx="313.16" cy="597" fill="#132e65"></circle><circle r="5" cx="332.33" cy="706.95" fill="#132e65"></circle><circle r="5" cx="341.89" cy="790.8" fill="#132e65"></circle><circle r="5" cx="410.51" cy="-61.7" fill="#132e65"></circle><circle r="5" cx="433.68" cy="66.64" fill="#132e65"></circle><circle r="5" cx="410.68" cy="127.52" fill="#132e65"></circle><circle r="5" cx="433.22" cy="333.78" fill="#132e65"></circle><circle r="5" cx="407.72" cy="418.07" fill="#132e65"></circle><circle r="5" cx="408.16" cy="488.17" fill="#132e65"></circle><circle r="5" cx="396.83" cy="605.37" fill="#132e65"></circle><circle r="5" cx="421.98" cy="706.89" fill="#132e65"></circle><circle r="5" cx="406.07" cy="777.02" fill="#132e65"></circle><circle r="5" cx="527.95" cy="-66.02" fill="#132e65"></circle><circle r="5" cx="508.15" cy="129.43" fill="#132e65"></circle><circle r="5" cx="516.96" cy="238.92" fill="#132e65"></circle><circle r="5" cx="525.97" cy="335.18" fill="#132e65"></circle><circle r="5" cx="488.05" cy="414.04" fill="#132e65"></circle><circle r="5" cx="492.46" cy="509.98" fill="#132e65"></circle><circle r="5" cx="526.8" cy="796.03" fill="#132e65"></circle><path d="M250.4 394.9L250.4 394.9" stroke="hsl(228.5, 77.2%, 51.5%)" stroke-width="1.5"></path><path d="M250.4 394.9L238.24 486.11" stroke="hsl(228.5, 77.2%, 51.5%)" stroke-width="1.5"></path><path d="M250.4 394.9L334.75 491.36" stroke="hsl(228.5, 77.2%, 51.5%)" stroke-width="1.5"></path><path d="M250.4 394.9L400.43 406.26" stroke="hsl(228.5, 77.2%, 51.5%)" stroke-width="1.5"></path><path d="M243.24 703.59L243.24 703.59" stroke="hsl(228.5, 77.2%, 51.5%)" stroke-width="1.5"></path><path d="M243.24 703.59L311.5 704.66" stroke="hsl(228.5, 77.2%, 51.5%)" stroke-width="1.5"></path><path d="M243.24 703.59L240.32 784.77" stroke="hsl(228.5, 77.2%, 51.5%)" stroke-width="1.5"></path><path d="M243.24 703.59L302.58 617.27" stroke="hsl(228.5, 77.2%, 51.5%)" stroke-width="1.5"></path><path d="M240.32 784.77L240.32 784.77" stroke="hsl(228.5, 77.2%, 51.5%)" stroke-width="1.5"></path><path d="M240.32 784.77L320.73 775.16" stroke="hsl(228.5, 77.2%, 51.5%)" stroke-width="1.5"></path><path d="M240.32 784.77L151.46 782.53" stroke="hsl(228.5, 77.2%, 51.5%)" stroke-width="1.5"></path><path d="M240.32 784.77L311.5 704.66" stroke="hsl(228.5, 77.2%, 51.5%)" stroke-width="1.5"></path><path d="M240.32 784.77L142.94 672.33" stroke="hsl(228.5, 77.2%, 51.5%)" stroke-width="1.5"></path><path d="M240.32 784.77L397.16 797.81" stroke="hsl(228.5, 77.2%, 51.5%)" stroke-width="1.5"></path><path d="M343.74 218.44L343.74 218.44" stroke="hsl(228.5, 77.2%, 51.5%)" stroke-width="1.5"></path><path d="M343.74 218.44L401.25 213.8" stroke="hsl(228.5, 77.2%, 51.5%)" stroke-width="1.5"></path><path d="M343.74 218.44L313.34 155.26" stroke="hsl(228.5, 77.2%, 51.5%)" stroke-width="1.5"></path><path d="M343.74 218.44L426.25 141.77" stroke="hsl(228.5, 77.2%, 51.5%)" stroke-width="1.5"></path><path d="M343.74 218.44L422.68 345.13" stroke="hsl(228.5, 77.2%, 51.5%)" stroke-width="1.5"></path><path d="M343.74 218.44L507.98 221.47" stroke="hsl(228.5, 77.2%, 51.5%)" stroke-width="1.5"></path><path d="M427.87 616.64L427.87 616.64" stroke="hsl(228.5, 77.2%, 51.5%)" stroke-width="1.5"></path><path d="M427.87 616.64L436.16 672.05" stroke="hsl(228.5, 77.2%, 51.5%)" stroke-width="1.5"></path><path d="M427.87 616.64L507.58 616.85" stroke="hsl(228.5, 77.2%, 51.5%)" stroke-width="1.5"></path><path d="M427.87 616.64L429.23 500.48" stroke="hsl(228.5, 77.2%, 51.5%)" stroke-width="1.5"></path><path d="M427.87 616.64L531 677.01" stroke="hsl(228.5, 77.2%, 51.5%)" stroke-width="1.5"></path><path d="M427.87 616.64L302.58 617.27" stroke="hsl(228.5, 77.2%, 51.5%)" stroke-width="1.5"></path><path d="M427.87 616.64L499.91 496.66" stroke="hsl(228.5, 77.2%, 51.5%)" stroke-width="1.5"></path><path d="M-39.54 612.61L-39.54 612.61" stroke="hsl(228.5, 77.2%, 51.5%)" stroke-width="1.5"></path><path d="M-39.54 612.61L-44.06 704.05" stroke="hsl(228.5, 77.2%, 51.5%)" stroke-width="1.5"></path><path d="M-39.54 612.61L42.29 671.82" stroke="hsl(228.5, 77.2%, 51.5%)" stroke-width="1.5"></path><path d="M-44.06 704.05L-44.06 704.05" stroke="hsl(228.5, 77.2%, 51.5%)" stroke-width="1.5"></path><path d="M-44.06 704.05L-26.19 789.02" stroke="hsl(228.5, 77.2%, 51.5%)" stroke-width="1.5"></path><path d="M-44.06 704.05L42.29 671.82" stroke="hsl(228.5, 77.2%, 51.5%)" stroke-width="1.5"></path><path d="M-44.06 704.05L27.77 769.5" stroke="hsl(228.5, 77.2%, 51.5%)" stroke-width="1.5"></path><path d="M-44.06 704.05L142.94 672.33" stroke="hsl(228.5, 77.2%, 51.5%)" stroke-width="1.5"></path><path d="M-44.06 704.05L151.46 782.53" stroke="hsl(228.5, 77.2%, 51.5%)" stroke-width="1.5"></path><path d="M-26.19 789.02L-26.19 789.02" stroke="hsl(228.5, 77.2%, 51.5%)" stroke-width="1.5"></path><path d="M-26.19 789.02L27.77 769.5" stroke="hsl(228.5, 77.2%, 51.5%)" stroke-width="1.5"></path><path d="M-26.19 789.02L42.29 671.82" stroke="hsl(228.5, 77.2%, 51.5%)" stroke-width="1.5"></path><path d="M-26.19 789.02L-39.54 612.61" stroke="hsl(228.5, 77.2%, 51.5%)" stroke-width="1.5"></path><path d="M-26.19 789.02L151.46 782.53" stroke="hsl(228.5, 77.2%, 51.5%)" stroke-width="1.5"></path><path d="M-26.19 789.02L142.94 672.33" stroke="hsl(228.5, 77.2%, 51.5%)" stroke-width="1.5"></path><path d="M42.29 671.82L42.29 671.82" stroke="hsl(228.5, 77.2%, 51.5%)" stroke-width="1.5"></path><path d="M42.29 671.82L27.77 769.5" stroke="hsl(228.5, 77.2%, 51.5%)" stroke-width="1.5"></path><path d="M42.29 671.82L142.94 672.33" stroke="hsl(228.5, 77.2%, 51.5%)" stroke-width="1.5"></path><path d="M27.77 769.5L27.77 769.5" stroke="hsl(228.5, 77.2%, 51.5%)" stroke-width="1.5"></path><path d="M27.77 769.5L151.46 782.53" stroke="hsl(228.5, 77.2%, 51.5%)" stroke-width="1.5"></path><path d="M27.77 769.5L142.94 672.33" stroke="hsl(228.5, 77.2%, 51.5%)" stroke-width="1.5"></path><path d="M142.94 672.33L142.94 672.33" stroke="hsl(228.5, 77.2%, 51.5%)" stroke-width="1.5"></path><path d="M151.46 782.53L151.46 782.53" stroke="hsl(228.5, 77.2%, 51.5%)" stroke-width="1.5"></path><path d="M151.46 782.53L142.94 672.33" stroke="hsl(228.5, 77.2%, 51.5%)" stroke-width="1.5"></path><path d="M151.46 782.53L243.24 703.59" stroke="hsl(228.5, 77.2%, 51.5%)" stroke-width="1.5"></path><path d="M151.46 782.53L42.29 671.82" stroke="hsl(228.5, 77.2%, 51.5%)" stroke-width="1.5"></path><path d="M238.24 486.11L238.24 486.11" stroke="hsl(228.5, 77.2%, 51.5%)" stroke-width="1.5"></path><path d="M238.24 486.11L334.75 491.36" stroke="hsl(228.5, 77.2%, 51.5%)" stroke-width="1.5"></path><path d="M251.67 590.98L251.67 590.98" stroke="hsl(228.5, 77.2%, 51.5%)" stroke-width="1.5"></path><path d="M251.67 590.98L302.58 617.27" stroke="hsl(228.5, 77.2%, 51.5%)" stroke-width="1.5"></path><path d="M251.67 590.98L238.24 486.11" stroke="hsl(228.5, 77.2%, 51.5%)" stroke-width="1.5"></path><path d="M251.67 590.98L243.24 703.59" stroke="hsl(228.5, 77.2%, 51.5%)" stroke-width="1.5"></path><path d="M251.67 590.98L311.5 704.66" stroke="hsl(228.5, 77.2%, 51.5%)" stroke-width="1.5"></path><path d="M251.67 590.98L334.75 491.36" stroke="hsl(228.5, 77.2%, 51.5%)" stroke-width="1.5"></path><path d="M251.67 590.98L142.94 672.33" stroke="hsl(228.5, 77.2%, 51.5%)" stroke-width="1.5"></path><path d="M314.82 -23.47L314.82 -23.47" stroke="hsl(228.5, 77.2%, 51.5%)" stroke-width="1.5"></path><path d="M314.82 -23.47L338.67 37.67" stroke="hsl(228.5, 77.2%, 51.5%)" stroke-width="1.5"></path><path d="M314.82 -23.47L420.45 -52.8" stroke="hsl(228.5, 77.2%, 51.5%)" stroke-width="1.5"></path><path d="M314.82 -23.47L411.67 49.12" stroke="hsl(228.5, 77.2%, 51.5%)" stroke-width="1.5"></path><path d="M338.67 37.67L338.67 37.67" stroke="hsl(228.5, 77.2%, 51.5%)" stroke-width="1.5"></path><path d="M338.67 37.67L411.67 49.12" stroke="hsl(228.5, 77.2%, 51.5%)" stroke-width="1.5"></path><path d="M338.67 37.67L313.34 155.26" stroke="hsl(228.5, 77.2%, 51.5%)" stroke-width="1.5"></path><path d="M313.34 155.26L313.34 155.26" stroke="hsl(228.5, 77.2%, 51.5%)" stroke-width="1.5"></path><path d="M313.34 155.26L401.25 213.8" stroke="hsl(228.5, 77.2%, 51.5%)" stroke-width="1.5"></path><path d="M313.34 155.26L426.25 141.77" stroke="hsl(228.5, 77.2%, 51.5%)" stroke-width="1.5"></path><path d="M313.34 155.26L411.67 49.12" stroke="hsl(228.5, 77.2%, 51.5%)" stroke-width="1.5"></path><path d="M334.75 491.36L334.75 491.36" stroke="hsl(228.5, 77.2%, 51.5%)" stroke-width="1.5"></path><path d="M334.75 491.36L429.23 500.48" stroke="hsl(228.5, 77.2%, 51.5%)" stroke-width="1.5"></path><path d="M334.75 491.36L400.43 406.26" stroke="hsl(228.5, 77.2%, 51.5%)" stroke-width="1.5"></path><path d="M302.58 617.27L302.58 617.27" stroke="hsl(228.5, 77.2%, 51.5%)" stroke-width="1.5"></path><path d="M302.58 617.27L311.5 704.66" stroke="hsl(228.5, 77.2%, 51.5%)" stroke-width="1.5"></path><path d="M311.5 704.66L311.5 704.66" stroke="hsl(228.5, 77.2%, 51.5%)" stroke-width="1.5"></path><path d="M320.73 775.16L320.73 775.16" stroke="hsl(228.5, 77.2%, 51.5%)" stroke-width="1.5"></path><path d="M320.73 775.16L311.5 704.66" stroke="hsl(228.5, 77.2%, 51.5%)" stroke-width="1.5"></path><path d="M320.73 775.16L397.16 797.81" stroke="hsl(228.5, 77.2%, 51.5%)" stroke-width="1.5"></path><path d="M320.73 775.16L243.24 703.59" stroke="hsl(228.5, 77.2%, 51.5%)" stroke-width="1.5"></path><path d="M320.73 775.16L436.16 672.05" stroke="hsl(228.5, 77.2%, 51.5%)" stroke-width="1.5"></path><path d="M420.45 -52.8L420.45 -52.8" stroke="hsl(228.5, 77.2%, 51.5%)" stroke-width="1.5"></path><path d="M420.45 -52.8L510.24 -24.88" stroke="hsl(228.5, 77.2%, 51.5%)" stroke-width="1.5"></path><path d="M420.45 -52.8L411.67 49.12" stroke="hsl(228.5, 77.2%, 51.5%)" stroke-width="1.5"></path><path d="M420.45 -52.8L338.67 37.67" stroke="hsl(228.5, 77.2%, 51.5%)" stroke-width="1.5"></path><path d="M411.67 49.12L411.67 49.12" stroke="hsl(228.5, 77.2%, 51.5%)" stroke-width="1.5"></path><path d="M411.67 49.12L426.25 141.77" stroke="hsl(228.5, 77.2%, 51.5%)" stroke-width="1.5"></path><path d="M426.25 141.77L426.25 141.77" stroke="hsl(228.5, 77.2%, 51.5%)" stroke-width="1.5"></path><path d="M426.25 141.77L401.25 213.8" stroke="hsl(228.5, 77.2%, 51.5%)" stroke-width="1.5"></path><path d="M426.25 141.77L519.44 150.68" stroke="hsl(228.5, 77.2%, 51.5%)" stroke-width="1.5"></path><path d="M401.25 213.8L401.25 213.8" stroke="hsl(228.5, 77.2%, 51.5%)" stroke-width="1.5"></path><path d="M401.25 213.8L507.98 221.47" stroke="hsl(228.5, 77.2%, 51.5%)" stroke-width="1.5"></path><path d="M401.25 213.8L422.68 345.13" stroke="hsl(228.5, 77.2%, 51.5%)" stroke-width="1.5"></path><path d="M401.25 213.8L519.44 150.68" stroke="hsl(228.5, 77.2%, 51.5%)" stroke-width="1.5"></path><path d="M422.68 345.13L422.68 345.13" stroke="hsl(228.5, 77.2%, 51.5%)" stroke-width="1.5"></path><path d="M422.68 345.13L400.43 406.26" stroke="hsl(228.5, 77.2%, 51.5%)" stroke-width="1.5"></path><path d="M422.68 345.13L525.84 342.24" stroke="hsl(228.5, 77.2%, 51.5%)" stroke-width="1.5"></path><path d="M400.43 406.26L400.43 406.26" stroke="hsl(228.5, 77.2%, 51.5%)" stroke-width="1.5"></path><path d="M400.43 406.26L429.23 500.48" stroke="hsl(228.5, 77.2%, 51.5%)" stroke-width="1.5"></path><path d="M429.23 500.48L429.23 500.48" stroke="hsl(228.5, 77.2%, 51.5%)" stroke-width="1.5"></path><path d="M429.23 500.48L499.91 496.66" stroke="hsl(228.5, 77.2%, 51.5%)" stroke-width="1.5"></path><path d="M429.23 500.48L507.58 616.85" stroke="hsl(228.5, 77.2%, 51.5%)" stroke-width="1.5"></path><path d="M429.23 500.48L422.68 345.13" stroke="hsl(228.5, 77.2%, 51.5%)" stroke-width="1.5"></path><path d="M436.16 672.05L436.16 672.05" stroke="hsl(228.5, 77.2%, 51.5%)" stroke-width="1.5"></path><path d="M436.16 672.05L507.58 616.85" stroke="hsl(228.5, 77.2%, 51.5%)" stroke-width="1.5"></path><path d="M436.16 672.05L531 677.01" stroke="hsl(228.5, 77.2%, 51.5%)" stroke-width="1.5"></path><path d="M436.16 672.05L311.5 704.66" stroke="hsl(228.5, 77.2%, 51.5%)" stroke-width="1.5"></path><path d="M397.16 797.81L397.16 797.81" stroke="hsl(228.5, 77.2%, 51.5%)" stroke-width="1.5"></path><path d="M397.16 797.81L516.8 784.11" stroke="hsl(228.5, 77.2%, 51.5%)" stroke-width="1.5"></path><path d="M397.16 797.81L311.5 704.66" stroke="hsl(228.5, 77.2%, 51.5%)" stroke-width="1.5"></path><path d="M510.24 -24.88L510.24 -24.88" stroke="hsl(228.5, 77.2%, 51.5%)" stroke-width="1.5"></path><path d="M510.24 -24.88L523.81 28.1" stroke="hsl(228.5, 77.2%, 51.5%)" stroke-width="1.5"></path><path d="M523.81 28.1L523.81 28.1" stroke="hsl(228.5, 77.2%, 51.5%)" stroke-width="1.5"></path><path d="M523.81 28.1L411.67 49.12" stroke="hsl(228.5, 77.2%, 51.5%)" stroke-width="1.5"></path><path d="M519.44 150.68L519.44 150.68" stroke="hsl(228.5, 77.2%, 51.5%)" stroke-width="1.5"></path><path d="M519.44 150.68L507.98 221.47" stroke="hsl(228.5, 77.2%, 51.5%)" stroke-width="1.5"></path><path d="M519.44 150.68L523.81 28.1" stroke="hsl(228.5, 77.2%, 51.5%)" stroke-width="1.5"></path><path d="M519.44 150.68L411.67 49.12" stroke="hsl(228.5, 77.2%, 51.5%)" stroke-width="1.5"></path><path d="M519.44 150.68L510.24 -24.88" stroke="hsl(228.5, 77.2%, 51.5%)" stroke-width="1.5"></path><path d="M507.98 221.47L507.98 221.47" stroke="hsl(228.5, 77.2%, 51.5%)" stroke-width="1.5"></path><path d="M525.84 342.24L525.84 342.24" stroke="hsl(228.5, 77.2%, 51.5%)" stroke-width="1.5"></path><path d="M525.84 342.24L507.98 221.47" stroke="hsl(228.5, 77.2%, 51.5%)" stroke-width="1.5"></path><path d="M525.84 342.24L400.43 406.26" stroke="hsl(228.5, 77.2%, 51.5%)" stroke-width="1.5"></path><path d="M525.84 342.24L499.91 496.66" stroke="hsl(228.5, 77.2%, 51.5%)" stroke-width="1.5"></path><path d="M525.84 342.24L401.25 213.8" stroke="hsl(228.5, 77.2%, 51.5%)" stroke-width="1.5"></path><path d="M525.84 342.24L429.23 500.48" stroke="hsl(228.5, 77.2%, 51.5%)" stroke-width="1.5"></path><path d="M499.91 496.66L499.91 496.66" stroke="hsl(228.5, 77.2%, 51.5%)" stroke-width="1.5"></path><path d="M507.58 616.85L507.58 616.85" stroke="hsl(228.5, 77.2%, 51.5%)" stroke-width="1.5"></path><path d="M507.58 616.85L531 677.01" stroke="hsl(228.5, 77.2%, 51.5%)" stroke-width="1.5"></path><path d="M531 677.01L531 677.01" stroke="hsl(228.5, 77.2%, 51.5%)" stroke-width="1.5"></path><path d="M516.8 784.11L516.8 784.11" stroke="hsl(228.5, 77.2%, 51.5%)" stroke-width="1.5"></path><path d="M516.8 784.11L531 677.01" stroke="hsl(228.5, 77.2%, 51.5%)" stroke-width="1.5"></path><path d="M516.8 784.11L436.16 672.05" stroke="hsl(228.5, 77.2%, 51.5%)" stroke-width="1.5"></path><path d="M516.8 784.11L507.58 616.85" stroke="hsl(228.5, 77.2%, 51.5%)" stroke-width="1.5"></path><path d="M516.8 784.11L427.87 616.64" stroke="hsl(228.5, 77.2%, 51.5%)" stroke-width="1.5"></path><path d="M516.8 784.11L320.73 775.16" stroke="hsl(228.5, 77.2%, 51.5%)" stroke-width="1.5"></path><circle r="25" cx="250.4" cy="394.9" fill="url(&quot;#SvgjsRadialGradient1021&quot;)"></circle><circle r="25" cx="243.24" cy="703.59" fill="url(&quot;#SvgjsRadialGradient1021&quot;)"></circle><circle r="25" cx="240.32" cy="784.77" fill="url(&quot;#SvgjsRadialGradient1021&quot;)"></circle><circle r="25" cx="343.74" cy="218.44" fill="url(&quot;#SvgjsRadialGradient1021&quot;)"></circle><circle r="25" cx="427.87" cy="616.64" fill="url(&quot;#SvgjsRadialGradient1021&quot;)"></circle><circle r="5" cx="-39.54" cy="612.61" fill="#8b9ad9"></circle><circle r="5" cx="-44.06" cy="704.05" fill="#8b9ad9"></circle><circle r="5" cx="-26.19" cy="789.02" fill="#8b9ad9"></circle><circle r="5" cx="42.29" cy="671.82" fill="#8b9ad9"></circle><circle r="5" cx="27.77" cy="769.5" fill="#8b9ad9"></circle><circle r="5" cx="142.94" cy="672.33" fill="#8b9ad9"></circle><circle r="5" cx="151.46" cy="782.53" fill="#8b9ad9"></circle><circle r="5" cx="238.24" cy="486.11" fill="#8b9ad9"></circle><circle r="5" cx="251.67" cy="590.98" fill="#8b9ad9"></circle><circle r="5" cx="314.82" cy="-23.47" fill="#8b9ad9"></circle><circle r="5" cx="338.67" cy="37.67" fill="#8b9ad9"></circle><circle r="5" cx="313.34" cy="155.26" fill="#8b9ad9"></circle><circle r="5" cx="334.75" cy="491.36" fill="#8b9ad9"></circle><circle r="5" cx="302.58" cy="617.27" fill="#8b9ad9"></circle><circle r="5" cx="311.5" cy="704.66" fill="#8b9ad9"></circle><circle r="5" cx="320.73" cy="775.16" fill="#8b9ad9"></circle><circle r="5" cx="420.45" cy="-52.8" fill="#8b9ad9"></circle><circle r="5" cx="411.67" cy="49.12" fill="#8b9ad9"></circle><circle r="5" cx="426.25" cy="141.77" fill="#8b9ad9"></circle><circle r="5" cx="401.25" cy="213.8" fill="#8b9ad9"></circle><circle r="5" cx="422.68" cy="345.13" fill="#8b9ad9"></circle><circle r="5" cx="400.43" cy="406.26" fill="#8b9ad9"></circle><circle r="5" cx="429.23" cy="500.48" fill="#8b9ad9"></circle><circle r="5" cx="436.16" cy="672.05" fill="#8b9ad9"></circle><circle r="5" cx="397.16" cy="797.81" fill="#8b9ad9"></circle><circle r="5" cx="510.24" cy="-24.88" fill="#8b9ad9"></circle><circle r="5" cx="523.81" cy="28.1" fill="#8b9ad9"></circle><circle r="5" cx="519.44" cy="150.68" fill="#8b9ad9"></circle><circle r="5" cx="507.98" cy="221.47" fill="#8b9ad9"></circle><circle r="5" cx="525.84" cy="342.24" fill="#8b9ad9"></circle><circle r="5" cx="499.91" cy="496.66" fill="#8b9ad9"></circle><circle r="5" cx="507.58" cy="616.85" fill="#8b9ad9"></circle><circle r="5" cx="531" cy="677.01" fill="#8b9ad9"></circle><circle r="5" cx="516.8" cy="784.11" fill="#8b9ad9"></circle></g><defs><mask id="SvgjsMask1020"><rect width="390" height="740" fill="#ffffff"></rect></mask><radialGradient id="SvgjsRadialGradient1021"><stop stop-color="#ffffff" offset="0.1"></stop><stop stop-color="#1735b3" offset="0.2"></stop><stop stop-color="rgba(23, 53, 179, 0)" offset="1"></stop></radialGradient></defs></svg>