<?xml version="1.0" encoding="utf-8"?>
<!-- Generator: Adobe Illustrator 27.5.0, SVG Export Plug-In . SVG Version: 6.00 Build 0)  -->
<svg version="1.1" xmlns="http://www.w3.org/2000/svg" xmlns:xlink="http://www.w3.org/1999/xlink" x="0px" y="0px"
	 viewBox="0 0 150 50" xml:space="preserve">
	<g>
		<g>
			<g>
				<g>
					<g>
						<g>
							
								<text transform="matrix(1 0 0 1 298.615 186.1761)" style="fill:#5B5B5B; font-family:'Poppins-Bold'; font-size:23px; letter-spacing:4;">COMPANY</text>
						</g>
					</g>
				</g>
				<g>
					
						<text transform="matrix(1 0 0 1 324.7566 201.6673)" style="fill:#5B5B5B; font-family:'Poppins-Medium'; font-size:11px; letter-spacing:2;">TAGLINE HERE</text>
				</g>
			</g>
		</g>
		<g>
			<g style="opacity:0.2;">
				
					<radialGradient id="SVGID_1_" cx="375.0901" cy="133.3755" r="75.3035" gradientTransform="matrix(1 0 0 0.0881 0 136.3654)" gradientUnits="userSpaceOnUse">
					<stop  offset="0" style="stop-color:#000000"/>
					<stop  offset="1" style="stop-color:#000000;stop-opacity:0"/>
				</radialGradient>
				<ellipse style="fill:url(#SVGID_1_);" cx="375.09" cy="148.114" rx="66.608" ry="7.265"/>
			</g>
			<g>
				<g>
					
						<linearGradient id="SVGID_00000090254444481025504460000007354701700684160955_" gradientUnits="userSpaceOnUse" x1="371.4297" y1="103.0392" x2="374.949" y2="142.4217">
						<stop  offset="0" style="stop-color:#35029C"/>
						<stop  offset="0.1471" style="stop-color:#3A05A0"/>
						<stop  offset="0.3291" style="stop-color:#4A0FAB"/>
						<stop  offset="0.5297" style="stop-color:#631EBE"/>
						<stop  offset="0.7435" style="stop-color:#8634D8"/>
						<stop  offset="0.9658" style="stop-color:#B250F9"/>
						<stop  offset="1" style="stop-color:#BA55FF"/>
					</linearGradient>
					<path style="fill:url(#SVGID_00000090254444481025504460000007354701700684160955_);" d="M394.722,107.572v-0.245
						c0,0-57.987-6.121-57.987,1.387v35.287h9.843c7.509,0,13.596-6.087,13.596-13.596v-16.731h12.329l11.434,22.821
						c2.305,4.601,7.01,7.506,12.155,7.506h17.354L394.722,107.572z"/>
					<g style="opacity:0.5;">
						<path style="fill:#FFFFFF;" d="M369.861,112.257h-12.329v16.731c0,7.509-6.087,13.596-13.596,13.596h-7.201v1.418h9.844
							c7.509,0,13.596-6.087,13.596-13.596v-16.731h10.397L369.861,112.257z"/>
						<path style="fill:#FFFFFF;" d="M394.722,107.572v-0.245c0,0-0.781-0.082-2.15-0.215l18.231,35.472H393.45
							c-1.77,0-3.485-0.351-5.072-0.99c0.27,0.187,0.548,0.362,0.831,0.529c0.023,0.014,0.047,0.027,0.07,0.04
							c0.259,0.15,0.523,0.292,0.791,0.424c0.044,0.022,0.088,0.043,0.133,0.064c0.248,0.119,0.5,0.231,0.755,0.335
							c0.064,0.026,0.128,0.052,0.192,0.077c0.238,0.093,0.479,0.178,0.722,0.258c0.08,0.026,0.16,0.053,0.241,0.078
							c0.23,0.071,0.464,0.133,0.699,0.192c0.093,0.023,0.186,0.048,0.279,0.07c0.228,0.052,0.458,0.094,0.689,0.134
							c0.101,0.017,0.201,0.038,0.303,0.054c0.237,0.036,0.477,0.06,0.718,0.083c0.095,0.009,0.188,0.023,0.283,0.03
							c0.334,0.025,0.67,0.039,1.009,0.039h17.354L394.722,107.572z"/>
					</g>
					<path style="opacity:0.3;fill:#022C90;" d="M395.324,108.744l-0.603-1.173v-0.245c0,0-12.316-1.299-25.595-1.966
						c0.337,3.327,1.239,6.405,1.903,8.314h1.474l1.126,2.248C377.444,116.271,386.595,116.137,395.324,108.744z"/>
					<path style="opacity:0.3;fill:#022C90;" d="M363.972,109.077c0,0-18.771-3.705-27.237,4.322v11.353
						c0,0,6.156-8.504,23.439-8.752v-2.326h3.798V109.077z"/>
				</g>
				<g>
					
						<linearGradient id="SVGID_00000093155003305318263250000000002295864657181578_" gradientUnits="userSpaceOnUse" x1="409.7368" y1="90.8457" x2="341.6903" y2="61.1311">
						<stop  offset="0.0015" style="stop-color:#FCED00"/>
						<stop  offset="0.3697" style="stop-color:#F9AC18"/>
						<stop  offset="0.7992" style="stop-color:#F56732"/>
						<stop  offset="1" style="stop-color:#F44B3C"/>
					</linearGradient>
					<path style="fill:url(#SVGID_00000093155003305318263250000000002295864657181578_);" d="M385.345,75.604
						c0.214,0.358,0.409,0.739,0.585,1.143c0.288,0.589,0.437,1.204,0.748,2.381c1.687,6.374,7.172,19.011,2.876,31.098
						c0,0,2.15-1.088,5.168-2.814v-0.084c0.574-0.284,1.132-0.584,1.681-0.893c0.272-0.16,0.548-0.325,0.829-0.493
						c8.634-5.185,13.849-13.58,13.849-24.74c0-18.068-13.062-28.2-34.06-28.2h-40.285v3.618c0,7.509,6.087,13.596,13.596,13.596
						h21.685C377.614,70.215,382.784,71.314,385.345,75.604L385.345,75.604L385.345,75.604z"/>
					<path style="opacity:0.5;fill:#FFFFFF;" d="M339.816,59.029v-3.618h40.285c9.392,0,17.19,2.033,22.948,5.89
						c-5.907-5.422-14.841-8.3-26.03-8.3h-40.285v3.618c0,5.056,2.766,9.459,6.862,11.801
						C341.26,65.979,339.816,62.676,339.816,59.029z"/>
					<path style="opacity:0.3;fill:#F44B3C;" d="M410.977,78.607c-1.653,16.654-10.396,20.649-10.396,20.649
						c2.778-19.078-14.159-21.092-14.159-21.092c0.075,0.276,0.158,0.592,0.256,0.964c1.687,6.374,7.172,19.011,2.876,31.098
						c0,0,2.15-1.088,5.168-2.814v-0.084c0.574-0.284,1.132-0.584,1.681-0.893c0.272-0.16,0.548-0.325,0.829-0.493
						c8.634-5.185,13.849-13.58,13.849-24.74C411.08,80.316,411.039,79.455,410.977,78.607z"/>
				</g>
				<g>
					
						<linearGradient id="SVGID_00000175322346127967032250000005914507609586757554_" gradientUnits="userSpaceOnUse" x1="333.2944" y1="119.4696" x2="397.6149" y2="88.7075">
						<stop  offset="0" style="stop-color:#993EFF"/>
						<stop  offset="1" style="stop-color:#F44B3C"/>
					</linearGradient>
					<path style="fill:url(#SVGID_00000175322346127967032250000005914507609586757554_);" d="M386.678,79.127L386.678,79.127
						c0.228,1.091,0.352,2.305,0.352,3.662c0,10.132-7.08,12.329-15.016,12.329H350.33c-7.509,0-13.596,6.087-13.596,13.596v16.037
						c5.541-11.867,18.317-11.077,23.439-11.077h12.329c14.142,0,22.219-6.347,22.219-6.347s3.573-6.364,1.931-15.324
						C394.747,81.611,386.678,79.127,386.678,79.127z"/>
					<path style="opacity:0.5;fill:#FFFFFF;" d="M350.33,97.605h21.685c7.935,0,15.016-2.197,15.016-12.329
						c0-0.434-0.017-0.848-0.042-1.253c-0.561,9.075-7.373,11.096-14.974,11.096H350.33c-7.509,0-13.596,6.087-13.596,13.596v2.486
						C336.735,103.692,342.822,97.605,350.33,97.605z"/>
					<path style="opacity:0.5;fill:#BA55FF;" d="M360.174,113.675h12.329c14.142,0,22.219-6.347,22.219-6.347
						s3.573-6.364,1.931-15.324c-1.905-10.392-9.974-12.876-9.974-12.876c0.228,1.091,0.352,2.305,0.352,3.662
						c0,0.222,5.803,1.835,6.752,13.033c0.829,9.786-8.076,15.882-20.811,15.994c-12.735,0.112-22.719-1.871-29.645,3.714
						c-4.615,3.722-6.191,6.092-6.507,9.053C342.403,112.898,355.077,113.675,360.174,113.675z"/>
				</g>
			</g>
		</g>
	</g>
</svg>
